%TF.GenerationSoftware,KiCad,Pcbnew,7.0.11*%
%TF.CreationDate,2025-01-24T11:41:37+01:00*%
%TF.ProjectId,Numpad1,4e756d70-6164-4312-9e6b-696361645f70,rev?*%
%TF.SameCoordinates,Original*%
%TF.FileFunction,Paste,Bot*%
%TF.FilePolarity,Positive*%
%FSLAX46Y46*%
G04 Gerber Fmt 4.6, Leading zero omitted, Abs format (unit mm)*
G04 Created by KiCad (PCBNEW 7.0.11) date 2025-01-24 11:41:37*
%MOMM*%
%LPD*%
G01*
G04 APERTURE LIST*
G04 Aperture macros list*
%AMRoundRect*
0 Rectangle with rounded corners*
0 $1 Rounding radius*
0 $2 $3 $4 $5 $6 $7 $8 $9 X,Y pos of 4 corners*
0 Add a 4 corners polygon primitive as box body*
4,1,4,$2,$3,$4,$5,$6,$7,$8,$9,$2,$3,0*
0 Add four circle primitives for the rounded corners*
1,1,$1+$1,$2,$3*
1,1,$1+$1,$4,$5*
1,1,$1+$1,$6,$7*
1,1,$1+$1,$8,$9*
0 Add four rect primitives between the rounded corners*
20,1,$1+$1,$2,$3,$4,$5,0*
20,1,$1+$1,$4,$5,$6,$7,0*
20,1,$1+$1,$6,$7,$8,$9,0*
20,1,$1+$1,$8,$9,$2,$3,0*%
G04 Aperture macros list end*
%ADD10RoundRect,0.250000X-1.025000X-1.000000X1.025000X-1.000000X1.025000X1.000000X-1.025000X1.000000X0*%
%ADD11RoundRect,0.250000X-0.450000X0.325000X-0.450000X-0.325000X0.450000X-0.325000X0.450000X0.325000X0*%
%ADD12R,0.700000X1.000000*%
%ADD13RoundRect,0.225000X0.375000X-0.225000X0.375000X0.225000X-0.375000X0.225000X-0.375000X-0.225000X0*%
%ADD14RoundRect,0.250000X0.450000X-0.350000X0.450000X0.350000X-0.450000X0.350000X-0.450000X-0.350000X0*%
G04 APERTURE END LIST*
D10*
%TO.C,SW18*%
X81377500Y-140947500D03*
X94304500Y-138407500D03*
%TD*%
%TO.C,SW15*%
X100432153Y-112361620D03*
X113359153Y-109821620D03*
%TD*%
%TO.C,SW6*%
X62327500Y-83797500D03*
X75254500Y-81257500D03*
%TD*%
%TO.C,SW13*%
X62327500Y-121900000D03*
X75254500Y-119360000D03*
%TD*%
%TO.C,SW8*%
X100427500Y-83797500D03*
X113354500Y-81257500D03*
%TD*%
%TO.C,SW16*%
X43277500Y-140947500D03*
X56204500Y-138407500D03*
%TD*%
%TO.C,SW12*%
X43277500Y-121900000D03*
X56204500Y-119360000D03*
%TD*%
%TO.C,SW14*%
X81415000Y-121900000D03*
X94342000Y-119360000D03*
%TD*%
%TO.C,SW19*%
X52802500Y-159997500D03*
X65729500Y-157457500D03*
%TD*%
%TO.C,SW17*%
X62327500Y-140947500D03*
X75254500Y-138407500D03*
%TD*%
%TO.C,SW10*%
X62327500Y-102847500D03*
X75254500Y-100307500D03*
%TD*%
%TO.C,SW2*%
X62327500Y-64747500D03*
X75254500Y-62207500D03*
%TD*%
%TO.C,SW7*%
X81377500Y-83797500D03*
X94304500Y-81257500D03*
%TD*%
%TO.C,SW11*%
X81377500Y-102847500D03*
X94304500Y-100307500D03*
%TD*%
%TO.C,SW20*%
X81377500Y-159997500D03*
X94304500Y-157457500D03*
%TD*%
%TO.C,SW4*%
X100427500Y-64747500D03*
X113354500Y-62207500D03*
%TD*%
%TO.C,SW21*%
X100400000Y-150500000D03*
X113327000Y-147960000D03*
%TD*%
%TO.C,SW5*%
X43277500Y-83797500D03*
X56204500Y-81257500D03*
%TD*%
%TO.C,SW9*%
X43277500Y-102847500D03*
X56204500Y-100307500D03*
%TD*%
%TO.C,SW1*%
X43277500Y-64747500D03*
X56204500Y-62207500D03*
%TD*%
%TO.C,SW3*%
X81377500Y-64747500D03*
X94304500Y-62207500D03*
%TD*%
D11*
%TO.C,D22*%
X110837500Y-101237500D03*
X110837500Y-103287500D03*
%TD*%
D12*
%TO.C,S1*%
X102987500Y-96262500D03*
X102987500Y-102262500D03*
X106687500Y-96262500D03*
X106687500Y-102262500D03*
%TD*%
D13*
%TO.C,D2*%
X79000000Y-72412500D03*
X79000000Y-69112500D03*
%TD*%
%TO.C,D9*%
X59962500Y-109150000D03*
X59962500Y-105850000D03*
%TD*%
%TO.C,D18*%
X97987500Y-147150000D03*
X97987500Y-143850000D03*
%TD*%
%TO.C,D19*%
X78975000Y-165559100D03*
X78975000Y-162259100D03*
%TD*%
%TO.C,D6*%
X79000000Y-91412500D03*
X79000000Y-88112500D03*
%TD*%
D11*
%TO.C,D23*%
X114337500Y-101237500D03*
X114337500Y-103287500D03*
%TD*%
D13*
%TO.C,D3*%
X98012500Y-72412500D03*
X98012500Y-69112500D03*
%TD*%
%TO.C,D7*%
X98012500Y-91412500D03*
X98012500Y-88112500D03*
%TD*%
%TO.C,D1*%
X59987500Y-72412500D03*
X59987500Y-69112500D03*
%TD*%
%TO.C,D15*%
X114446700Y-128286620D03*
X114446700Y-124986620D03*
%TD*%
%TO.C,D8*%
X114446700Y-91412500D03*
X114446700Y-88112500D03*
%TD*%
%TO.C,D16*%
X59962500Y-147150000D03*
X59962500Y-143850000D03*
%TD*%
%TO.C,D11*%
X97987500Y-109150000D03*
X97987500Y-105850000D03*
%TD*%
%TO.C,D10*%
X78962500Y-109150000D03*
X78962500Y-105850000D03*
%TD*%
D14*
%TO.C,R1*%
X110669567Y-97765703D03*
X110669567Y-95765703D03*
%TD*%
D13*
%TO.C,D5*%
X59987500Y-91412500D03*
X59987500Y-88112500D03*
%TD*%
D14*
%TO.C,R2*%
X114344362Y-97762500D03*
X114344362Y-95762500D03*
%TD*%
D13*
%TO.C,D13*%
X78975000Y-128300000D03*
X78975000Y-125000000D03*
%TD*%
%TO.C,D21*%
X114446700Y-165559100D03*
X114446700Y-162259100D03*
%TD*%
%TO.C,D4*%
X114446700Y-72412500D03*
X114446700Y-69112500D03*
%TD*%
%TO.C,D12*%
X59962500Y-128300000D03*
X59962500Y-125000000D03*
%TD*%
%TO.C,D17*%
X78962500Y-147150000D03*
X78962500Y-143850000D03*
%TD*%
%TO.C,D20*%
X97987500Y-165559100D03*
X97987500Y-162259100D03*
%TD*%
%TO.C,D14*%
X97987500Y-128300000D03*
X97987500Y-125000000D03*
%TD*%
M02*
