%TF.GenerationSoftware,KiCad,Pcbnew,7.0.11*%
%TF.CreationDate,2025-01-24T11:41:37+01:00*%
%TF.ProjectId,Numpad1,4e756d70-6164-4312-9e6b-696361645f70,rev?*%
%TF.SameCoordinates,Original*%
%TF.FileFunction,Legend,Bot*%
%TF.FilePolarity,Positive*%
%FSLAX46Y46*%
G04 Gerber Fmt 4.6, Leading zero omitted, Abs format (unit mm)*
G04 Created by KiCad (PCBNEW 7.0.11) date 2025-01-24 11:41:37*
%MOMM*%
%LPD*%
G01*
G04 APERTURE LIST*
%ADD10C,0.100000*%
%ADD11C,0.150000*%
%ADD12C,0.254000*%
%ADD13C,0.120000*%
%ADD14C,0.200000*%
G04 APERTURE END LIST*
D10*
X113934395Y-134747336D02*
X114505823Y-134747336D01*
X114505823Y-134747336D02*
X114620109Y-134709241D01*
X114620109Y-134709241D02*
X114696300Y-134633050D01*
X114696300Y-134633050D02*
X114734395Y-134518765D01*
X114734395Y-134518765D02*
X114734395Y-134442574D01*
X114734395Y-135509241D02*
X114734395Y-135128289D01*
X114734395Y-135128289D02*
X113934395Y-135128289D01*
X114658204Y-136233051D02*
X114696300Y-136194955D01*
X114696300Y-136194955D02*
X114734395Y-136080670D01*
X114734395Y-136080670D02*
X114734395Y-136004479D01*
X114734395Y-136004479D02*
X114696300Y-135890193D01*
X114696300Y-135890193D02*
X114620109Y-135814003D01*
X114620109Y-135814003D02*
X114543919Y-135775908D01*
X114543919Y-135775908D02*
X114391538Y-135737812D01*
X114391538Y-135737812D02*
X114277252Y-135737812D01*
X114277252Y-135737812D02*
X114124871Y-135775908D01*
X114124871Y-135775908D02*
X114048680Y-135814003D01*
X114048680Y-135814003D02*
X113972490Y-135890193D01*
X113972490Y-135890193D02*
X113934395Y-136004479D01*
X113934395Y-136004479D02*
X113934395Y-136080670D01*
X113934395Y-136080670D02*
X113972490Y-136194955D01*
X113972490Y-136194955D02*
X114010585Y-136233051D01*
X113934395Y-136804479D02*
X114505823Y-136804479D01*
X114505823Y-136804479D02*
X114620109Y-136766384D01*
X114620109Y-136766384D02*
X114696300Y-136690193D01*
X114696300Y-136690193D02*
X114734395Y-136575908D01*
X114734395Y-136575908D02*
X114734395Y-136499717D01*
X114734395Y-137566384D02*
X114734395Y-137185432D01*
X114734395Y-137185432D02*
X113934395Y-137185432D01*
X114658204Y-138290194D02*
X114696300Y-138252098D01*
X114696300Y-138252098D02*
X114734395Y-138137813D01*
X114734395Y-138137813D02*
X114734395Y-138061622D01*
X114734395Y-138061622D02*
X114696300Y-137947336D01*
X114696300Y-137947336D02*
X114620109Y-137871146D01*
X114620109Y-137871146D02*
X114543919Y-137833051D01*
X114543919Y-137833051D02*
X114391538Y-137794955D01*
X114391538Y-137794955D02*
X114277252Y-137794955D01*
X114277252Y-137794955D02*
X114124871Y-137833051D01*
X114124871Y-137833051D02*
X114048680Y-137871146D01*
X114048680Y-137871146D02*
X113972490Y-137947336D01*
X113972490Y-137947336D02*
X113934395Y-138061622D01*
X113934395Y-138061622D02*
X113934395Y-138137813D01*
X113934395Y-138137813D02*
X113972490Y-138252098D01*
X113972490Y-138252098D02*
X114010585Y-138290194D01*
X113934395Y-138861622D02*
X114505823Y-138861622D01*
X114505823Y-138861622D02*
X114620109Y-138823527D01*
X114620109Y-138823527D02*
X114696300Y-138747336D01*
X114696300Y-138747336D02*
X114734395Y-138633051D01*
X114734395Y-138633051D02*
X114734395Y-138556860D01*
X114734395Y-139623527D02*
X114734395Y-139242575D01*
X114734395Y-139242575D02*
X113934395Y-139242575D01*
X114658204Y-140347337D02*
X114696300Y-140309241D01*
X114696300Y-140309241D02*
X114734395Y-140194956D01*
X114734395Y-140194956D02*
X114734395Y-140118765D01*
X114734395Y-140118765D02*
X114696300Y-140004479D01*
X114696300Y-140004479D02*
X114620109Y-139928289D01*
X114620109Y-139928289D02*
X114543919Y-139890194D01*
X114543919Y-139890194D02*
X114391538Y-139852098D01*
X114391538Y-139852098D02*
X114277252Y-139852098D01*
X114277252Y-139852098D02*
X114124871Y-139890194D01*
X114124871Y-139890194D02*
X114048680Y-139928289D01*
X114048680Y-139928289D02*
X113972490Y-140004479D01*
X113972490Y-140004479D02*
X113934395Y-140118765D01*
X113934395Y-140118765D02*
X113934395Y-140194956D01*
X113934395Y-140194956D02*
X113972490Y-140309241D01*
X113972490Y-140309241D02*
X114010585Y-140347337D01*
X113934395Y-140918765D02*
X114505823Y-140918765D01*
X114505823Y-140918765D02*
X114620109Y-140880670D01*
X114620109Y-140880670D02*
X114696300Y-140804479D01*
X114696300Y-140804479D02*
X114734395Y-140690194D01*
X114734395Y-140690194D02*
X114734395Y-140614003D01*
X114734395Y-141680670D02*
X114734395Y-141299718D01*
X114734395Y-141299718D02*
X113934395Y-141299718D01*
X114658204Y-142404480D02*
X114696300Y-142366384D01*
X114696300Y-142366384D02*
X114734395Y-142252099D01*
X114734395Y-142252099D02*
X114734395Y-142175908D01*
X114734395Y-142175908D02*
X114696300Y-142061622D01*
X114696300Y-142061622D02*
X114620109Y-141985432D01*
X114620109Y-141985432D02*
X114543919Y-141947337D01*
X114543919Y-141947337D02*
X114391538Y-141909241D01*
X114391538Y-141909241D02*
X114277252Y-141909241D01*
X114277252Y-141909241D02*
X114124871Y-141947337D01*
X114124871Y-141947337D02*
X114048680Y-141985432D01*
X114048680Y-141985432D02*
X113972490Y-142061622D01*
X113972490Y-142061622D02*
X113934395Y-142175908D01*
X113934395Y-142175908D02*
X113934395Y-142252099D01*
X113934395Y-142252099D02*
X113972490Y-142366384D01*
X113972490Y-142366384D02*
X114010585Y-142404480D01*
D11*
X109524344Y-100926428D02*
X108524344Y-100926428D01*
X108524344Y-100926428D02*
X108524344Y-101164523D01*
X108524344Y-101164523D02*
X108571963Y-101307380D01*
X108571963Y-101307380D02*
X108667201Y-101402618D01*
X108667201Y-101402618D02*
X108762439Y-101450237D01*
X108762439Y-101450237D02*
X108952915Y-101497856D01*
X108952915Y-101497856D02*
X109095772Y-101497856D01*
X109095772Y-101497856D02*
X109286248Y-101450237D01*
X109286248Y-101450237D02*
X109381486Y-101402618D01*
X109381486Y-101402618D02*
X109476725Y-101307380D01*
X109476725Y-101307380D02*
X109524344Y-101164523D01*
X109524344Y-101164523D02*
X109524344Y-100926428D01*
X108619582Y-101878809D02*
X108571963Y-101926428D01*
X108571963Y-101926428D02*
X108524344Y-102021666D01*
X108524344Y-102021666D02*
X108524344Y-102259761D01*
X108524344Y-102259761D02*
X108571963Y-102354999D01*
X108571963Y-102354999D02*
X108619582Y-102402618D01*
X108619582Y-102402618D02*
X108714820Y-102450237D01*
X108714820Y-102450237D02*
X108810058Y-102450237D01*
X108810058Y-102450237D02*
X108952915Y-102402618D01*
X108952915Y-102402618D02*
X109524344Y-101831190D01*
X109524344Y-101831190D02*
X109524344Y-102450237D01*
X108619582Y-102831190D02*
X108571963Y-102878809D01*
X108571963Y-102878809D02*
X108524344Y-102974047D01*
X108524344Y-102974047D02*
X108524344Y-103212142D01*
X108524344Y-103212142D02*
X108571963Y-103307380D01*
X108571963Y-103307380D02*
X108619582Y-103354999D01*
X108619582Y-103354999D02*
X108714820Y-103402618D01*
X108714820Y-103402618D02*
X108810058Y-103402618D01*
X108810058Y-103402618D02*
X108952915Y-103354999D01*
X108952915Y-103354999D02*
X109524344Y-102783571D01*
X109524344Y-102783571D02*
X109524344Y-103402618D01*
D12*
X105351342Y-98294880D02*
X105411818Y-98476309D01*
X105411818Y-98476309D02*
X105411818Y-98778690D01*
X105411818Y-98778690D02*
X105351342Y-98899642D01*
X105351342Y-98899642D02*
X105290865Y-98960118D01*
X105290865Y-98960118D02*
X105169913Y-99020595D01*
X105169913Y-99020595D02*
X105048961Y-99020595D01*
X105048961Y-99020595D02*
X104928008Y-98960118D01*
X104928008Y-98960118D02*
X104867532Y-98899642D01*
X104867532Y-98899642D02*
X104807056Y-98778690D01*
X104807056Y-98778690D02*
X104746580Y-98536785D01*
X104746580Y-98536785D02*
X104686103Y-98415833D01*
X104686103Y-98415833D02*
X104625627Y-98355356D01*
X104625627Y-98355356D02*
X104504675Y-98294880D01*
X104504675Y-98294880D02*
X104383722Y-98294880D01*
X104383722Y-98294880D02*
X104262770Y-98355356D01*
X104262770Y-98355356D02*
X104202294Y-98415833D01*
X104202294Y-98415833D02*
X104141818Y-98536785D01*
X104141818Y-98536785D02*
X104141818Y-98839166D01*
X104141818Y-98839166D02*
X104202294Y-99020595D01*
X105411818Y-100230119D02*
X105411818Y-99504404D01*
X105411818Y-99867261D02*
X104141818Y-99867261D01*
X104141818Y-99867261D02*
X104323246Y-99746309D01*
X104323246Y-99746309D02*
X104444199Y-99625357D01*
X104444199Y-99625357D02*
X104504675Y-99504404D01*
D11*
X79417319Y-66536905D02*
X78417319Y-66536905D01*
X78417319Y-66536905D02*
X78417319Y-66775000D01*
X78417319Y-66775000D02*
X78464938Y-66917857D01*
X78464938Y-66917857D02*
X78560176Y-67013095D01*
X78560176Y-67013095D02*
X78655414Y-67060714D01*
X78655414Y-67060714D02*
X78845890Y-67108333D01*
X78845890Y-67108333D02*
X78988747Y-67108333D01*
X78988747Y-67108333D02*
X79179223Y-67060714D01*
X79179223Y-67060714D02*
X79274461Y-67013095D01*
X79274461Y-67013095D02*
X79369700Y-66917857D01*
X79369700Y-66917857D02*
X79417319Y-66775000D01*
X79417319Y-66775000D02*
X79417319Y-66536905D01*
X78512557Y-67489286D02*
X78464938Y-67536905D01*
X78464938Y-67536905D02*
X78417319Y-67632143D01*
X78417319Y-67632143D02*
X78417319Y-67870238D01*
X78417319Y-67870238D02*
X78464938Y-67965476D01*
X78464938Y-67965476D02*
X78512557Y-68013095D01*
X78512557Y-68013095D02*
X78607795Y-68060714D01*
X78607795Y-68060714D02*
X78703033Y-68060714D01*
X78703033Y-68060714D02*
X78845890Y-68013095D01*
X78845890Y-68013095D02*
X79417319Y-67441667D01*
X79417319Y-67441667D02*
X79417319Y-68060714D01*
X60429819Y-102424405D02*
X59429819Y-102424405D01*
X59429819Y-102424405D02*
X59429819Y-102662500D01*
X59429819Y-102662500D02*
X59477438Y-102805357D01*
X59477438Y-102805357D02*
X59572676Y-102900595D01*
X59572676Y-102900595D02*
X59667914Y-102948214D01*
X59667914Y-102948214D02*
X59858390Y-102995833D01*
X59858390Y-102995833D02*
X60001247Y-102995833D01*
X60001247Y-102995833D02*
X60191723Y-102948214D01*
X60191723Y-102948214D02*
X60286961Y-102900595D01*
X60286961Y-102900595D02*
X60382200Y-102805357D01*
X60382200Y-102805357D02*
X60429819Y-102662500D01*
X60429819Y-102662500D02*
X60429819Y-102424405D01*
X60429819Y-103472024D02*
X60429819Y-103662500D01*
X60429819Y-103662500D02*
X60382200Y-103757738D01*
X60382200Y-103757738D02*
X60334580Y-103805357D01*
X60334580Y-103805357D02*
X60191723Y-103900595D01*
X60191723Y-103900595D02*
X60001247Y-103948214D01*
X60001247Y-103948214D02*
X59620295Y-103948214D01*
X59620295Y-103948214D02*
X59525057Y-103900595D01*
X59525057Y-103900595D02*
X59477438Y-103852976D01*
X59477438Y-103852976D02*
X59429819Y-103757738D01*
X59429819Y-103757738D02*
X59429819Y-103567262D01*
X59429819Y-103567262D02*
X59477438Y-103472024D01*
X59477438Y-103472024D02*
X59525057Y-103424405D01*
X59525057Y-103424405D02*
X59620295Y-103376786D01*
X59620295Y-103376786D02*
X59858390Y-103376786D01*
X59858390Y-103376786D02*
X59953628Y-103424405D01*
X59953628Y-103424405D02*
X60001247Y-103472024D01*
X60001247Y-103472024D02*
X60048866Y-103567262D01*
X60048866Y-103567262D02*
X60048866Y-103757738D01*
X60048866Y-103757738D02*
X60001247Y-103852976D01*
X60001247Y-103852976D02*
X59953628Y-103900595D01*
X59953628Y-103900595D02*
X59858390Y-103948214D01*
X98454819Y-139948214D02*
X97454819Y-139948214D01*
X97454819Y-139948214D02*
X97454819Y-140186309D01*
X97454819Y-140186309D02*
X97502438Y-140329166D01*
X97502438Y-140329166D02*
X97597676Y-140424404D01*
X97597676Y-140424404D02*
X97692914Y-140472023D01*
X97692914Y-140472023D02*
X97883390Y-140519642D01*
X97883390Y-140519642D02*
X98026247Y-140519642D01*
X98026247Y-140519642D02*
X98216723Y-140472023D01*
X98216723Y-140472023D02*
X98311961Y-140424404D01*
X98311961Y-140424404D02*
X98407200Y-140329166D01*
X98407200Y-140329166D02*
X98454819Y-140186309D01*
X98454819Y-140186309D02*
X98454819Y-139948214D01*
X98454819Y-141472023D02*
X98454819Y-140900595D01*
X98454819Y-141186309D02*
X97454819Y-141186309D01*
X97454819Y-141186309D02*
X97597676Y-141091071D01*
X97597676Y-141091071D02*
X97692914Y-140995833D01*
X97692914Y-140995833D02*
X97740533Y-140900595D01*
X97883390Y-142043452D02*
X97835771Y-141948214D01*
X97835771Y-141948214D02*
X97788152Y-141900595D01*
X97788152Y-141900595D02*
X97692914Y-141852976D01*
X97692914Y-141852976D02*
X97645295Y-141852976D01*
X97645295Y-141852976D02*
X97550057Y-141900595D01*
X97550057Y-141900595D02*
X97502438Y-141948214D01*
X97502438Y-141948214D02*
X97454819Y-142043452D01*
X97454819Y-142043452D02*
X97454819Y-142233928D01*
X97454819Y-142233928D02*
X97502438Y-142329166D01*
X97502438Y-142329166D02*
X97550057Y-142376785D01*
X97550057Y-142376785D02*
X97645295Y-142424404D01*
X97645295Y-142424404D02*
X97692914Y-142424404D01*
X97692914Y-142424404D02*
X97788152Y-142376785D01*
X97788152Y-142376785D02*
X97835771Y-142329166D01*
X97835771Y-142329166D02*
X97883390Y-142233928D01*
X97883390Y-142233928D02*
X97883390Y-142043452D01*
X97883390Y-142043452D02*
X97931009Y-141948214D01*
X97931009Y-141948214D02*
X97978628Y-141900595D01*
X97978628Y-141900595D02*
X98073866Y-141852976D01*
X98073866Y-141852976D02*
X98264342Y-141852976D01*
X98264342Y-141852976D02*
X98359580Y-141900595D01*
X98359580Y-141900595D02*
X98407200Y-141948214D01*
X98407200Y-141948214D02*
X98454819Y-142043452D01*
X98454819Y-142043452D02*
X98454819Y-142233928D01*
X98454819Y-142233928D02*
X98407200Y-142329166D01*
X98407200Y-142329166D02*
X98359580Y-142376785D01*
X98359580Y-142376785D02*
X98264342Y-142424404D01*
X98264342Y-142424404D02*
X98073866Y-142424404D01*
X98073866Y-142424404D02*
X97978628Y-142376785D01*
X97978628Y-142376785D02*
X97931009Y-142329166D01*
X97931009Y-142329166D02*
X97883390Y-142233928D01*
X79442319Y-158357314D02*
X78442319Y-158357314D01*
X78442319Y-158357314D02*
X78442319Y-158595409D01*
X78442319Y-158595409D02*
X78489938Y-158738266D01*
X78489938Y-158738266D02*
X78585176Y-158833504D01*
X78585176Y-158833504D02*
X78680414Y-158881123D01*
X78680414Y-158881123D02*
X78870890Y-158928742D01*
X78870890Y-158928742D02*
X79013747Y-158928742D01*
X79013747Y-158928742D02*
X79204223Y-158881123D01*
X79204223Y-158881123D02*
X79299461Y-158833504D01*
X79299461Y-158833504D02*
X79394700Y-158738266D01*
X79394700Y-158738266D02*
X79442319Y-158595409D01*
X79442319Y-158595409D02*
X79442319Y-158357314D01*
X79442319Y-159881123D02*
X79442319Y-159309695D01*
X79442319Y-159595409D02*
X78442319Y-159595409D01*
X78442319Y-159595409D02*
X78585176Y-159500171D01*
X78585176Y-159500171D02*
X78680414Y-159404933D01*
X78680414Y-159404933D02*
X78728033Y-159309695D01*
X79442319Y-160357314D02*
X79442319Y-160547790D01*
X79442319Y-160547790D02*
X79394700Y-160643028D01*
X79394700Y-160643028D02*
X79347080Y-160690647D01*
X79347080Y-160690647D02*
X79204223Y-160785885D01*
X79204223Y-160785885D02*
X79013747Y-160833504D01*
X79013747Y-160833504D02*
X78632795Y-160833504D01*
X78632795Y-160833504D02*
X78537557Y-160785885D01*
X78537557Y-160785885D02*
X78489938Y-160738266D01*
X78489938Y-160738266D02*
X78442319Y-160643028D01*
X78442319Y-160643028D02*
X78442319Y-160452552D01*
X78442319Y-160452552D02*
X78489938Y-160357314D01*
X78489938Y-160357314D02*
X78537557Y-160309695D01*
X78537557Y-160309695D02*
X78632795Y-160262076D01*
X78632795Y-160262076D02*
X78870890Y-160262076D01*
X78870890Y-160262076D02*
X78966128Y-160309695D01*
X78966128Y-160309695D02*
X79013747Y-160357314D01*
X79013747Y-160357314D02*
X79061366Y-160452552D01*
X79061366Y-160452552D02*
X79061366Y-160643028D01*
X79061366Y-160643028D02*
X79013747Y-160738266D01*
X79013747Y-160738266D02*
X78966128Y-160785885D01*
X78966128Y-160785885D02*
X78870890Y-160833504D01*
X79417319Y-85536905D02*
X78417319Y-85536905D01*
X78417319Y-85536905D02*
X78417319Y-85775000D01*
X78417319Y-85775000D02*
X78464938Y-85917857D01*
X78464938Y-85917857D02*
X78560176Y-86013095D01*
X78560176Y-86013095D02*
X78655414Y-86060714D01*
X78655414Y-86060714D02*
X78845890Y-86108333D01*
X78845890Y-86108333D02*
X78988747Y-86108333D01*
X78988747Y-86108333D02*
X79179223Y-86060714D01*
X79179223Y-86060714D02*
X79274461Y-86013095D01*
X79274461Y-86013095D02*
X79369700Y-85917857D01*
X79369700Y-85917857D02*
X79417319Y-85775000D01*
X79417319Y-85775000D02*
X79417319Y-85536905D01*
X78417319Y-86965476D02*
X78417319Y-86775000D01*
X78417319Y-86775000D02*
X78464938Y-86679762D01*
X78464938Y-86679762D02*
X78512557Y-86632143D01*
X78512557Y-86632143D02*
X78655414Y-86536905D01*
X78655414Y-86536905D02*
X78845890Y-86489286D01*
X78845890Y-86489286D02*
X79226842Y-86489286D01*
X79226842Y-86489286D02*
X79322080Y-86536905D01*
X79322080Y-86536905D02*
X79369700Y-86584524D01*
X79369700Y-86584524D02*
X79417319Y-86679762D01*
X79417319Y-86679762D02*
X79417319Y-86870238D01*
X79417319Y-86870238D02*
X79369700Y-86965476D01*
X79369700Y-86965476D02*
X79322080Y-87013095D01*
X79322080Y-87013095D02*
X79226842Y-87060714D01*
X79226842Y-87060714D02*
X78988747Y-87060714D01*
X78988747Y-87060714D02*
X78893509Y-87013095D01*
X78893509Y-87013095D02*
X78845890Y-86965476D01*
X78845890Y-86965476D02*
X78798271Y-86870238D01*
X78798271Y-86870238D02*
X78798271Y-86679762D01*
X78798271Y-86679762D02*
X78845890Y-86584524D01*
X78845890Y-86584524D02*
X78893509Y-86536905D01*
X78893509Y-86536905D02*
X78988747Y-86489286D01*
X116496258Y-100993035D02*
X115496258Y-100993035D01*
X115496258Y-100993035D02*
X115496258Y-101231130D01*
X115496258Y-101231130D02*
X115543877Y-101373987D01*
X115543877Y-101373987D02*
X115639115Y-101469225D01*
X115639115Y-101469225D02*
X115734353Y-101516844D01*
X115734353Y-101516844D02*
X115924829Y-101564463D01*
X115924829Y-101564463D02*
X116067686Y-101564463D01*
X116067686Y-101564463D02*
X116258162Y-101516844D01*
X116258162Y-101516844D02*
X116353400Y-101469225D01*
X116353400Y-101469225D02*
X116448639Y-101373987D01*
X116448639Y-101373987D02*
X116496258Y-101231130D01*
X116496258Y-101231130D02*
X116496258Y-100993035D01*
X115591496Y-101945416D02*
X115543877Y-101993035D01*
X115543877Y-101993035D02*
X115496258Y-102088273D01*
X115496258Y-102088273D02*
X115496258Y-102326368D01*
X115496258Y-102326368D02*
X115543877Y-102421606D01*
X115543877Y-102421606D02*
X115591496Y-102469225D01*
X115591496Y-102469225D02*
X115686734Y-102516844D01*
X115686734Y-102516844D02*
X115781972Y-102516844D01*
X115781972Y-102516844D02*
X115924829Y-102469225D01*
X115924829Y-102469225D02*
X116496258Y-101897797D01*
X116496258Y-101897797D02*
X116496258Y-102516844D01*
X115496258Y-102850178D02*
X115496258Y-103469225D01*
X115496258Y-103469225D02*
X115877210Y-103135892D01*
X115877210Y-103135892D02*
X115877210Y-103278749D01*
X115877210Y-103278749D02*
X115924829Y-103373987D01*
X115924829Y-103373987D02*
X115972448Y-103421606D01*
X115972448Y-103421606D02*
X116067686Y-103469225D01*
X116067686Y-103469225D02*
X116305781Y-103469225D01*
X116305781Y-103469225D02*
X116401019Y-103421606D01*
X116401019Y-103421606D02*
X116448639Y-103373987D01*
X116448639Y-103373987D02*
X116496258Y-103278749D01*
X116496258Y-103278749D02*
X116496258Y-102993035D01*
X116496258Y-102993035D02*
X116448639Y-102897797D01*
X116448639Y-102897797D02*
X116401019Y-102850178D01*
X98479819Y-66536905D02*
X97479819Y-66536905D01*
X97479819Y-66536905D02*
X97479819Y-66775000D01*
X97479819Y-66775000D02*
X97527438Y-66917857D01*
X97527438Y-66917857D02*
X97622676Y-67013095D01*
X97622676Y-67013095D02*
X97717914Y-67060714D01*
X97717914Y-67060714D02*
X97908390Y-67108333D01*
X97908390Y-67108333D02*
X98051247Y-67108333D01*
X98051247Y-67108333D02*
X98241723Y-67060714D01*
X98241723Y-67060714D02*
X98336961Y-67013095D01*
X98336961Y-67013095D02*
X98432200Y-66917857D01*
X98432200Y-66917857D02*
X98479819Y-66775000D01*
X98479819Y-66775000D02*
X98479819Y-66536905D01*
X97479819Y-67441667D02*
X97479819Y-68060714D01*
X97479819Y-68060714D02*
X97860771Y-67727381D01*
X97860771Y-67727381D02*
X97860771Y-67870238D01*
X97860771Y-67870238D02*
X97908390Y-67965476D01*
X97908390Y-67965476D02*
X97956009Y-68013095D01*
X97956009Y-68013095D02*
X98051247Y-68060714D01*
X98051247Y-68060714D02*
X98289342Y-68060714D01*
X98289342Y-68060714D02*
X98384580Y-68013095D01*
X98384580Y-68013095D02*
X98432200Y-67965476D01*
X98432200Y-67965476D02*
X98479819Y-67870238D01*
X98479819Y-67870238D02*
X98479819Y-67584524D01*
X98479819Y-67584524D02*
X98432200Y-67489286D01*
X98432200Y-67489286D02*
X98384580Y-67441667D01*
X98429819Y-85536905D02*
X97429819Y-85536905D01*
X97429819Y-85536905D02*
X97429819Y-85775000D01*
X97429819Y-85775000D02*
X97477438Y-85917857D01*
X97477438Y-85917857D02*
X97572676Y-86013095D01*
X97572676Y-86013095D02*
X97667914Y-86060714D01*
X97667914Y-86060714D02*
X97858390Y-86108333D01*
X97858390Y-86108333D02*
X98001247Y-86108333D01*
X98001247Y-86108333D02*
X98191723Y-86060714D01*
X98191723Y-86060714D02*
X98286961Y-86013095D01*
X98286961Y-86013095D02*
X98382200Y-85917857D01*
X98382200Y-85917857D02*
X98429819Y-85775000D01*
X98429819Y-85775000D02*
X98429819Y-85536905D01*
X97429819Y-86441667D02*
X97429819Y-87108333D01*
X97429819Y-87108333D02*
X98429819Y-86679762D01*
X60404819Y-66536905D02*
X59404819Y-66536905D01*
X59404819Y-66536905D02*
X59404819Y-66775000D01*
X59404819Y-66775000D02*
X59452438Y-66917857D01*
X59452438Y-66917857D02*
X59547676Y-67013095D01*
X59547676Y-67013095D02*
X59642914Y-67060714D01*
X59642914Y-67060714D02*
X59833390Y-67108333D01*
X59833390Y-67108333D02*
X59976247Y-67108333D01*
X59976247Y-67108333D02*
X60166723Y-67060714D01*
X60166723Y-67060714D02*
X60261961Y-67013095D01*
X60261961Y-67013095D02*
X60357200Y-66917857D01*
X60357200Y-66917857D02*
X60404819Y-66775000D01*
X60404819Y-66775000D02*
X60404819Y-66536905D01*
X60404819Y-68060714D02*
X60404819Y-67489286D01*
X60404819Y-67775000D02*
X59404819Y-67775000D01*
X59404819Y-67775000D02*
X59547676Y-67679762D01*
X59547676Y-67679762D02*
X59642914Y-67584524D01*
X59642914Y-67584524D02*
X59690533Y-67489286D01*
X114914019Y-121084834D02*
X113914019Y-121084834D01*
X113914019Y-121084834D02*
X113914019Y-121322929D01*
X113914019Y-121322929D02*
X113961638Y-121465786D01*
X113961638Y-121465786D02*
X114056876Y-121561024D01*
X114056876Y-121561024D02*
X114152114Y-121608643D01*
X114152114Y-121608643D02*
X114342590Y-121656262D01*
X114342590Y-121656262D02*
X114485447Y-121656262D01*
X114485447Y-121656262D02*
X114675923Y-121608643D01*
X114675923Y-121608643D02*
X114771161Y-121561024D01*
X114771161Y-121561024D02*
X114866400Y-121465786D01*
X114866400Y-121465786D02*
X114914019Y-121322929D01*
X114914019Y-121322929D02*
X114914019Y-121084834D01*
X114914019Y-122608643D02*
X114914019Y-122037215D01*
X114914019Y-122322929D02*
X113914019Y-122322929D01*
X113914019Y-122322929D02*
X114056876Y-122227691D01*
X114056876Y-122227691D02*
X114152114Y-122132453D01*
X114152114Y-122132453D02*
X114199733Y-122037215D01*
X113914019Y-123513405D02*
X113914019Y-123037215D01*
X113914019Y-123037215D02*
X114390209Y-122989596D01*
X114390209Y-122989596D02*
X114342590Y-123037215D01*
X114342590Y-123037215D02*
X114294971Y-123132453D01*
X114294971Y-123132453D02*
X114294971Y-123370548D01*
X114294971Y-123370548D02*
X114342590Y-123465786D01*
X114342590Y-123465786D02*
X114390209Y-123513405D01*
X114390209Y-123513405D02*
X114485447Y-123561024D01*
X114485447Y-123561024D02*
X114723542Y-123561024D01*
X114723542Y-123561024D02*
X114818780Y-123513405D01*
X114818780Y-123513405D02*
X114866400Y-123465786D01*
X114866400Y-123465786D02*
X114914019Y-123370548D01*
X114914019Y-123370548D02*
X114914019Y-123132453D01*
X114914019Y-123132453D02*
X114866400Y-123037215D01*
X114866400Y-123037215D02*
X114818780Y-122989596D01*
X114864019Y-85536905D02*
X113864019Y-85536905D01*
X113864019Y-85536905D02*
X113864019Y-85775000D01*
X113864019Y-85775000D02*
X113911638Y-85917857D01*
X113911638Y-85917857D02*
X114006876Y-86013095D01*
X114006876Y-86013095D02*
X114102114Y-86060714D01*
X114102114Y-86060714D02*
X114292590Y-86108333D01*
X114292590Y-86108333D02*
X114435447Y-86108333D01*
X114435447Y-86108333D02*
X114625923Y-86060714D01*
X114625923Y-86060714D02*
X114721161Y-86013095D01*
X114721161Y-86013095D02*
X114816400Y-85917857D01*
X114816400Y-85917857D02*
X114864019Y-85775000D01*
X114864019Y-85775000D02*
X114864019Y-85536905D01*
X114292590Y-86679762D02*
X114244971Y-86584524D01*
X114244971Y-86584524D02*
X114197352Y-86536905D01*
X114197352Y-86536905D02*
X114102114Y-86489286D01*
X114102114Y-86489286D02*
X114054495Y-86489286D01*
X114054495Y-86489286D02*
X113959257Y-86536905D01*
X113959257Y-86536905D02*
X113911638Y-86584524D01*
X113911638Y-86584524D02*
X113864019Y-86679762D01*
X113864019Y-86679762D02*
X113864019Y-86870238D01*
X113864019Y-86870238D02*
X113911638Y-86965476D01*
X113911638Y-86965476D02*
X113959257Y-87013095D01*
X113959257Y-87013095D02*
X114054495Y-87060714D01*
X114054495Y-87060714D02*
X114102114Y-87060714D01*
X114102114Y-87060714D02*
X114197352Y-87013095D01*
X114197352Y-87013095D02*
X114244971Y-86965476D01*
X114244971Y-86965476D02*
X114292590Y-86870238D01*
X114292590Y-86870238D02*
X114292590Y-86679762D01*
X114292590Y-86679762D02*
X114340209Y-86584524D01*
X114340209Y-86584524D02*
X114387828Y-86536905D01*
X114387828Y-86536905D02*
X114483066Y-86489286D01*
X114483066Y-86489286D02*
X114673542Y-86489286D01*
X114673542Y-86489286D02*
X114768780Y-86536905D01*
X114768780Y-86536905D02*
X114816400Y-86584524D01*
X114816400Y-86584524D02*
X114864019Y-86679762D01*
X114864019Y-86679762D02*
X114864019Y-86870238D01*
X114864019Y-86870238D02*
X114816400Y-86965476D01*
X114816400Y-86965476D02*
X114768780Y-87013095D01*
X114768780Y-87013095D02*
X114673542Y-87060714D01*
X114673542Y-87060714D02*
X114483066Y-87060714D01*
X114483066Y-87060714D02*
X114387828Y-87013095D01*
X114387828Y-87013095D02*
X114340209Y-86965476D01*
X114340209Y-86965476D02*
X114292590Y-86870238D01*
X60429819Y-139948214D02*
X59429819Y-139948214D01*
X59429819Y-139948214D02*
X59429819Y-140186309D01*
X59429819Y-140186309D02*
X59477438Y-140329166D01*
X59477438Y-140329166D02*
X59572676Y-140424404D01*
X59572676Y-140424404D02*
X59667914Y-140472023D01*
X59667914Y-140472023D02*
X59858390Y-140519642D01*
X59858390Y-140519642D02*
X60001247Y-140519642D01*
X60001247Y-140519642D02*
X60191723Y-140472023D01*
X60191723Y-140472023D02*
X60286961Y-140424404D01*
X60286961Y-140424404D02*
X60382200Y-140329166D01*
X60382200Y-140329166D02*
X60429819Y-140186309D01*
X60429819Y-140186309D02*
X60429819Y-139948214D01*
X60429819Y-141472023D02*
X60429819Y-140900595D01*
X60429819Y-141186309D02*
X59429819Y-141186309D01*
X59429819Y-141186309D02*
X59572676Y-141091071D01*
X59572676Y-141091071D02*
X59667914Y-140995833D01*
X59667914Y-140995833D02*
X59715533Y-140900595D01*
X59429819Y-142329166D02*
X59429819Y-142138690D01*
X59429819Y-142138690D02*
X59477438Y-142043452D01*
X59477438Y-142043452D02*
X59525057Y-141995833D01*
X59525057Y-141995833D02*
X59667914Y-141900595D01*
X59667914Y-141900595D02*
X59858390Y-141852976D01*
X59858390Y-141852976D02*
X60239342Y-141852976D01*
X60239342Y-141852976D02*
X60334580Y-141900595D01*
X60334580Y-141900595D02*
X60382200Y-141948214D01*
X60382200Y-141948214D02*
X60429819Y-142043452D01*
X60429819Y-142043452D02*
X60429819Y-142233928D01*
X60429819Y-142233928D02*
X60382200Y-142329166D01*
X60382200Y-142329166D02*
X60334580Y-142376785D01*
X60334580Y-142376785D02*
X60239342Y-142424404D01*
X60239342Y-142424404D02*
X60001247Y-142424404D01*
X60001247Y-142424404D02*
X59906009Y-142376785D01*
X59906009Y-142376785D02*
X59858390Y-142329166D01*
X59858390Y-142329166D02*
X59810771Y-142233928D01*
X59810771Y-142233928D02*
X59810771Y-142043452D01*
X59810771Y-142043452D02*
X59858390Y-141948214D01*
X59858390Y-141948214D02*
X59906009Y-141900595D01*
X59906009Y-141900595D02*
X60001247Y-141852976D01*
X98454819Y-101948214D02*
X97454819Y-101948214D01*
X97454819Y-101948214D02*
X97454819Y-102186309D01*
X97454819Y-102186309D02*
X97502438Y-102329166D01*
X97502438Y-102329166D02*
X97597676Y-102424404D01*
X97597676Y-102424404D02*
X97692914Y-102472023D01*
X97692914Y-102472023D02*
X97883390Y-102519642D01*
X97883390Y-102519642D02*
X98026247Y-102519642D01*
X98026247Y-102519642D02*
X98216723Y-102472023D01*
X98216723Y-102472023D02*
X98311961Y-102424404D01*
X98311961Y-102424404D02*
X98407200Y-102329166D01*
X98407200Y-102329166D02*
X98454819Y-102186309D01*
X98454819Y-102186309D02*
X98454819Y-101948214D01*
X98454819Y-103472023D02*
X98454819Y-102900595D01*
X98454819Y-103186309D02*
X97454819Y-103186309D01*
X97454819Y-103186309D02*
X97597676Y-103091071D01*
X97597676Y-103091071D02*
X97692914Y-102995833D01*
X97692914Y-102995833D02*
X97740533Y-102900595D01*
X98454819Y-104424404D02*
X98454819Y-103852976D01*
X98454819Y-104138690D02*
X97454819Y-104138690D01*
X97454819Y-104138690D02*
X97597676Y-104043452D01*
X97597676Y-104043452D02*
X97692914Y-103948214D01*
X97692914Y-103948214D02*
X97740533Y-103852976D01*
X79429819Y-101948214D02*
X78429819Y-101948214D01*
X78429819Y-101948214D02*
X78429819Y-102186309D01*
X78429819Y-102186309D02*
X78477438Y-102329166D01*
X78477438Y-102329166D02*
X78572676Y-102424404D01*
X78572676Y-102424404D02*
X78667914Y-102472023D01*
X78667914Y-102472023D02*
X78858390Y-102519642D01*
X78858390Y-102519642D02*
X79001247Y-102519642D01*
X79001247Y-102519642D02*
X79191723Y-102472023D01*
X79191723Y-102472023D02*
X79286961Y-102424404D01*
X79286961Y-102424404D02*
X79382200Y-102329166D01*
X79382200Y-102329166D02*
X79429819Y-102186309D01*
X79429819Y-102186309D02*
X79429819Y-101948214D01*
X79429819Y-103472023D02*
X79429819Y-102900595D01*
X79429819Y-103186309D02*
X78429819Y-103186309D01*
X78429819Y-103186309D02*
X78572676Y-103091071D01*
X78572676Y-103091071D02*
X78667914Y-102995833D01*
X78667914Y-102995833D02*
X78715533Y-102900595D01*
X78429819Y-104091071D02*
X78429819Y-104186309D01*
X78429819Y-104186309D02*
X78477438Y-104281547D01*
X78477438Y-104281547D02*
X78525057Y-104329166D01*
X78525057Y-104329166D02*
X78620295Y-104376785D01*
X78620295Y-104376785D02*
X78810771Y-104424404D01*
X78810771Y-104424404D02*
X79048866Y-104424404D01*
X79048866Y-104424404D02*
X79239342Y-104376785D01*
X79239342Y-104376785D02*
X79334580Y-104329166D01*
X79334580Y-104329166D02*
X79382200Y-104281547D01*
X79382200Y-104281547D02*
X79429819Y-104186309D01*
X79429819Y-104186309D02*
X79429819Y-104091071D01*
X79429819Y-104091071D02*
X79382200Y-103995833D01*
X79382200Y-103995833D02*
X79334580Y-103948214D01*
X79334580Y-103948214D02*
X79239342Y-103900595D01*
X79239342Y-103900595D02*
X79048866Y-103852976D01*
X79048866Y-103852976D02*
X78810771Y-103852976D01*
X78810771Y-103852976D02*
X78620295Y-103900595D01*
X78620295Y-103900595D02*
X78525057Y-103948214D01*
X78525057Y-103948214D02*
X78477438Y-103995833D01*
X78477438Y-103995833D02*
X78429819Y-104091071D01*
X109463585Y-96611820D02*
X108987394Y-96278487D01*
X109463585Y-96040392D02*
X108463585Y-96040392D01*
X108463585Y-96040392D02*
X108463585Y-96421344D01*
X108463585Y-96421344D02*
X108511204Y-96516582D01*
X108511204Y-96516582D02*
X108558823Y-96564201D01*
X108558823Y-96564201D02*
X108654061Y-96611820D01*
X108654061Y-96611820D02*
X108796918Y-96611820D01*
X108796918Y-96611820D02*
X108892156Y-96564201D01*
X108892156Y-96564201D02*
X108939775Y-96516582D01*
X108939775Y-96516582D02*
X108987394Y-96421344D01*
X108987394Y-96421344D02*
X108987394Y-96040392D01*
X109463585Y-97564201D02*
X109463585Y-96992773D01*
X109463585Y-97278487D02*
X108463585Y-97278487D01*
X108463585Y-97278487D02*
X108606442Y-97183249D01*
X108606442Y-97183249D02*
X108701680Y-97088011D01*
X108701680Y-97088011D02*
X108749299Y-96992773D01*
X58292319Y-87786905D02*
X57292319Y-87786905D01*
X57292319Y-87786905D02*
X57292319Y-88025000D01*
X57292319Y-88025000D02*
X57339938Y-88167857D01*
X57339938Y-88167857D02*
X57435176Y-88263095D01*
X57435176Y-88263095D02*
X57530414Y-88310714D01*
X57530414Y-88310714D02*
X57720890Y-88358333D01*
X57720890Y-88358333D02*
X57863747Y-88358333D01*
X57863747Y-88358333D02*
X58054223Y-88310714D01*
X58054223Y-88310714D02*
X58149461Y-88263095D01*
X58149461Y-88263095D02*
X58244700Y-88167857D01*
X58244700Y-88167857D02*
X58292319Y-88025000D01*
X58292319Y-88025000D02*
X58292319Y-87786905D01*
X57292319Y-89263095D02*
X57292319Y-88786905D01*
X57292319Y-88786905D02*
X57768509Y-88739286D01*
X57768509Y-88739286D02*
X57720890Y-88786905D01*
X57720890Y-88786905D02*
X57673271Y-88882143D01*
X57673271Y-88882143D02*
X57673271Y-89120238D01*
X57673271Y-89120238D02*
X57720890Y-89215476D01*
X57720890Y-89215476D02*
X57768509Y-89263095D01*
X57768509Y-89263095D02*
X57863747Y-89310714D01*
X57863747Y-89310714D02*
X58101842Y-89310714D01*
X58101842Y-89310714D02*
X58197080Y-89263095D01*
X58197080Y-89263095D02*
X58244700Y-89215476D01*
X58244700Y-89215476D02*
X58292319Y-89120238D01*
X58292319Y-89120238D02*
X58292319Y-88882143D01*
X58292319Y-88882143D02*
X58244700Y-88786905D01*
X58244700Y-88786905D02*
X58197080Y-88739286D01*
X74392004Y-77195319D02*
X74392004Y-78004842D01*
X74392004Y-78004842D02*
X74344385Y-78100080D01*
X74344385Y-78100080D02*
X74296766Y-78147700D01*
X74296766Y-78147700D02*
X74201528Y-78195319D01*
X74201528Y-78195319D02*
X74011052Y-78195319D01*
X74011052Y-78195319D02*
X73915814Y-78147700D01*
X73915814Y-78147700D02*
X73868195Y-78100080D01*
X73868195Y-78100080D02*
X73820576Y-78004842D01*
X73820576Y-78004842D02*
X73820576Y-77195319D01*
X72820576Y-78195319D02*
X73392004Y-78195319D01*
X73106290Y-78195319D02*
X73106290Y-77195319D01*
X73106290Y-77195319D02*
X73201528Y-77338176D01*
X73201528Y-77338176D02*
X73296766Y-77433414D01*
X73296766Y-77433414D02*
X73392004Y-77481033D01*
X89340939Y-78562700D02*
X89198082Y-78610319D01*
X89198082Y-78610319D02*
X88959987Y-78610319D01*
X88959987Y-78610319D02*
X88864749Y-78562700D01*
X88864749Y-78562700D02*
X88817130Y-78515080D01*
X88817130Y-78515080D02*
X88769511Y-78419842D01*
X88769511Y-78419842D02*
X88769511Y-78324604D01*
X88769511Y-78324604D02*
X88817130Y-78229366D01*
X88817130Y-78229366D02*
X88864749Y-78181747D01*
X88864749Y-78181747D02*
X88959987Y-78134128D01*
X88959987Y-78134128D02*
X89150463Y-78086509D01*
X89150463Y-78086509D02*
X89245701Y-78038890D01*
X89245701Y-78038890D02*
X89293320Y-77991271D01*
X89293320Y-77991271D02*
X89340939Y-77896033D01*
X89340939Y-77896033D02*
X89340939Y-77800795D01*
X89340939Y-77800795D02*
X89293320Y-77705557D01*
X89293320Y-77705557D02*
X89245701Y-77657938D01*
X89245701Y-77657938D02*
X89150463Y-77610319D01*
X89150463Y-77610319D02*
X88912368Y-77610319D01*
X88912368Y-77610319D02*
X88769511Y-77657938D01*
X88483796Y-77610319D02*
X87912368Y-77610319D01*
X88198082Y-78610319D02*
X88198082Y-77610319D01*
X87626653Y-78562700D02*
X87483796Y-78610319D01*
X87483796Y-78610319D02*
X87245701Y-78610319D01*
X87245701Y-78610319D02*
X87150463Y-78562700D01*
X87150463Y-78562700D02*
X87102844Y-78515080D01*
X87102844Y-78515080D02*
X87055225Y-78419842D01*
X87055225Y-78419842D02*
X87055225Y-78324604D01*
X87055225Y-78324604D02*
X87102844Y-78229366D01*
X87102844Y-78229366D02*
X87150463Y-78181747D01*
X87150463Y-78181747D02*
X87245701Y-78134128D01*
X87245701Y-78134128D02*
X87436177Y-78086509D01*
X87436177Y-78086509D02*
X87531415Y-78038890D01*
X87531415Y-78038890D02*
X87579034Y-77991271D01*
X87579034Y-77991271D02*
X87626653Y-77896033D01*
X87626653Y-77896033D02*
X87626653Y-77800795D01*
X87626653Y-77800795D02*
X87579034Y-77705557D01*
X87579034Y-77705557D02*
X87531415Y-77657938D01*
X87531415Y-77657938D02*
X87436177Y-77610319D01*
X87436177Y-77610319D02*
X87198082Y-77610319D01*
X87198082Y-77610319D02*
X87055225Y-77657938D01*
X67364749Y-69443652D02*
X67364749Y-70110319D01*
X67602844Y-69062700D02*
X67840939Y-69776985D01*
X67840939Y-69776985D02*
X67221892Y-69776985D01*
X71431558Y-69306919D02*
X70812511Y-69306919D01*
X70812511Y-69306919D02*
X71145844Y-69687871D01*
X71145844Y-69687871D02*
X71002987Y-69687871D01*
X71002987Y-69687871D02*
X70907749Y-69735490D01*
X70907749Y-69735490D02*
X70860130Y-69783109D01*
X70860130Y-69783109D02*
X70812511Y-69878347D01*
X70812511Y-69878347D02*
X70812511Y-70116442D01*
X70812511Y-70116442D02*
X70860130Y-70211680D01*
X70860130Y-70211680D02*
X70907749Y-70259300D01*
X70907749Y-70259300D02*
X71002987Y-70306919D01*
X71002987Y-70306919D02*
X71288701Y-70306919D01*
X71288701Y-70306919D02*
X71383939Y-70259300D01*
X71383939Y-70259300D02*
X71431558Y-70211680D01*
X74840939Y-69205557D02*
X74793320Y-69157938D01*
X74793320Y-69157938D02*
X74698082Y-69110319D01*
X74698082Y-69110319D02*
X74459987Y-69110319D01*
X74459987Y-69110319D02*
X74364749Y-69157938D01*
X74364749Y-69157938D02*
X74317130Y-69205557D01*
X74317130Y-69205557D02*
X74269511Y-69300795D01*
X74269511Y-69300795D02*
X74269511Y-69396033D01*
X74269511Y-69396033D02*
X74317130Y-69538890D01*
X74317130Y-69538890D02*
X74888558Y-70110319D01*
X74888558Y-70110319D02*
X74269511Y-70110319D01*
X45252593Y-74610319D02*
X45157355Y-74610319D01*
X45157355Y-74610319D02*
X45062117Y-74657938D01*
X45062117Y-74657938D02*
X45014498Y-74705557D01*
X45014498Y-74705557D02*
X44966879Y-74800795D01*
X44966879Y-74800795D02*
X44919260Y-74991271D01*
X44919260Y-74991271D02*
X44919260Y-75229366D01*
X44919260Y-75229366D02*
X44966879Y-75419842D01*
X44966879Y-75419842D02*
X45014498Y-75515080D01*
X45014498Y-75515080D02*
X45062117Y-75562700D01*
X45062117Y-75562700D02*
X45157355Y-75610319D01*
X45157355Y-75610319D02*
X45252593Y-75610319D01*
X45252593Y-75610319D02*
X45347831Y-75562700D01*
X45347831Y-75562700D02*
X45395450Y-75515080D01*
X45395450Y-75515080D02*
X45443069Y-75419842D01*
X45443069Y-75419842D02*
X45490688Y-75229366D01*
X45490688Y-75229366D02*
X45490688Y-74991271D01*
X45490688Y-74991271D02*
X45443069Y-74800795D01*
X45443069Y-74800795D02*
X45395450Y-74705557D01*
X45395450Y-74705557D02*
X45347831Y-74657938D01*
X45347831Y-74657938D02*
X45252593Y-74610319D01*
X67602844Y-77610319D02*
X67507606Y-77610319D01*
X67507606Y-77610319D02*
X67412368Y-77657938D01*
X67412368Y-77657938D02*
X67364749Y-77705557D01*
X67364749Y-77705557D02*
X67317130Y-77800795D01*
X67317130Y-77800795D02*
X67269511Y-77991271D01*
X67269511Y-77991271D02*
X67269511Y-78229366D01*
X67269511Y-78229366D02*
X67317130Y-78419842D01*
X67317130Y-78419842D02*
X67364749Y-78515080D01*
X67364749Y-78515080D02*
X67412368Y-78562700D01*
X67412368Y-78562700D02*
X67507606Y-78610319D01*
X67507606Y-78610319D02*
X67602844Y-78610319D01*
X67602844Y-78610319D02*
X67698082Y-78562700D01*
X67698082Y-78562700D02*
X67745701Y-78515080D01*
X67745701Y-78515080D02*
X67793320Y-78419842D01*
X67793320Y-78419842D02*
X67840939Y-78229366D01*
X67840939Y-78229366D02*
X67840939Y-77991271D01*
X67840939Y-77991271D02*
X67793320Y-77800795D01*
X67793320Y-77800795D02*
X67745701Y-77705557D01*
X67745701Y-77705557D02*
X67698082Y-77657938D01*
X67698082Y-77657938D02*
X67602844Y-77610319D01*
X53221892Y-77015080D02*
X53269511Y-77062700D01*
X53269511Y-77062700D02*
X53412368Y-77110319D01*
X53412368Y-77110319D02*
X53507606Y-77110319D01*
X53507606Y-77110319D02*
X53650463Y-77062700D01*
X53650463Y-77062700D02*
X53745701Y-76967461D01*
X53745701Y-76967461D02*
X53793320Y-76872223D01*
X53793320Y-76872223D02*
X53840939Y-76681747D01*
X53840939Y-76681747D02*
X53840939Y-76538890D01*
X53840939Y-76538890D02*
X53793320Y-76348414D01*
X53793320Y-76348414D02*
X53745701Y-76253176D01*
X53745701Y-76253176D02*
X53650463Y-76157938D01*
X53650463Y-76157938D02*
X53507606Y-76110319D01*
X53507606Y-76110319D02*
X53412368Y-76110319D01*
X53412368Y-76110319D02*
X53269511Y-76157938D01*
X53269511Y-76157938D02*
X53221892Y-76205557D01*
X52602844Y-76110319D02*
X52412368Y-76110319D01*
X52412368Y-76110319D02*
X52317130Y-76157938D01*
X52317130Y-76157938D02*
X52221892Y-76253176D01*
X52221892Y-76253176D02*
X52174273Y-76443652D01*
X52174273Y-76443652D02*
X52174273Y-76776985D01*
X52174273Y-76776985D02*
X52221892Y-76967461D01*
X52221892Y-76967461D02*
X52317130Y-77062700D01*
X52317130Y-77062700D02*
X52412368Y-77110319D01*
X52412368Y-77110319D02*
X52602844Y-77110319D01*
X52602844Y-77110319D02*
X52698082Y-77062700D01*
X52698082Y-77062700D02*
X52793320Y-76967461D01*
X52793320Y-76967461D02*
X52840939Y-76776985D01*
X52840939Y-76776985D02*
X52840939Y-76443652D01*
X52840939Y-76443652D02*
X52793320Y-76253176D01*
X52793320Y-76253176D02*
X52698082Y-76157938D01*
X52698082Y-76157938D02*
X52602844Y-76110319D01*
X51269511Y-77110319D02*
X51745701Y-77110319D01*
X51745701Y-77110319D02*
X51745701Y-76110319D01*
X50936177Y-76110319D02*
X50936177Y-76919842D01*
X50936177Y-76919842D02*
X50888558Y-77015080D01*
X50888558Y-77015080D02*
X50840939Y-77062700D01*
X50840939Y-77062700D02*
X50745701Y-77110319D01*
X50745701Y-77110319D02*
X50555225Y-77110319D01*
X50555225Y-77110319D02*
X50459987Y-77062700D01*
X50459987Y-77062700D02*
X50412368Y-77015080D01*
X50412368Y-77015080D02*
X50364749Y-76919842D01*
X50364749Y-76919842D02*
X50364749Y-76110319D01*
X49888558Y-77110319D02*
X49888558Y-76110319D01*
X49888558Y-76110319D02*
X49555225Y-76824604D01*
X49555225Y-76824604D02*
X49221892Y-76110319D01*
X49221892Y-76110319D02*
X49221892Y-77110319D01*
X48745701Y-77110319D02*
X48745701Y-76110319D01*
X48745701Y-76110319D02*
X48174273Y-77110319D01*
X48174273Y-77110319D02*
X48174273Y-76110319D01*
X47745701Y-77062700D02*
X47602844Y-77110319D01*
X47602844Y-77110319D02*
X47364749Y-77110319D01*
X47364749Y-77110319D02*
X47269511Y-77062700D01*
X47269511Y-77062700D02*
X47221892Y-77015080D01*
X47221892Y-77015080D02*
X47174273Y-76919842D01*
X47174273Y-76919842D02*
X47174273Y-76824604D01*
X47174273Y-76824604D02*
X47221892Y-76729366D01*
X47221892Y-76729366D02*
X47269511Y-76681747D01*
X47269511Y-76681747D02*
X47364749Y-76634128D01*
X47364749Y-76634128D02*
X47555225Y-76586509D01*
X47555225Y-76586509D02*
X47650463Y-76538890D01*
X47650463Y-76538890D02*
X47698082Y-76491271D01*
X47698082Y-76491271D02*
X47745701Y-76396033D01*
X47745701Y-76396033D02*
X47745701Y-76300795D01*
X47745701Y-76300795D02*
X47698082Y-76205557D01*
X47698082Y-76205557D02*
X47650463Y-76157938D01*
X47650463Y-76157938D02*
X47555225Y-76110319D01*
X47555225Y-76110319D02*
X47317130Y-76110319D01*
X47317130Y-76110319D02*
X47174273Y-76157938D01*
X73221892Y-76110319D02*
X73555225Y-75634128D01*
X73793320Y-76110319D02*
X73793320Y-75110319D01*
X73793320Y-75110319D02*
X73412368Y-75110319D01*
X73412368Y-75110319D02*
X73317130Y-75157938D01*
X73317130Y-75157938D02*
X73269511Y-75205557D01*
X73269511Y-75205557D02*
X73221892Y-75300795D01*
X73221892Y-75300795D02*
X73221892Y-75443652D01*
X73221892Y-75443652D02*
X73269511Y-75538890D01*
X73269511Y-75538890D02*
X73317130Y-75586509D01*
X73317130Y-75586509D02*
X73412368Y-75634128D01*
X73412368Y-75634128D02*
X73793320Y-75634128D01*
X72602844Y-75110319D02*
X72412368Y-75110319D01*
X72412368Y-75110319D02*
X72317130Y-75157938D01*
X72317130Y-75157938D02*
X72221892Y-75253176D01*
X72221892Y-75253176D02*
X72174273Y-75443652D01*
X72174273Y-75443652D02*
X72174273Y-75776985D01*
X72174273Y-75776985D02*
X72221892Y-75967461D01*
X72221892Y-75967461D02*
X72317130Y-76062700D01*
X72317130Y-76062700D02*
X72412368Y-76110319D01*
X72412368Y-76110319D02*
X72602844Y-76110319D01*
X72602844Y-76110319D02*
X72698082Y-76062700D01*
X72698082Y-76062700D02*
X72793320Y-75967461D01*
X72793320Y-75967461D02*
X72840939Y-75776985D01*
X72840939Y-75776985D02*
X72840939Y-75443652D01*
X72840939Y-75443652D02*
X72793320Y-75253176D01*
X72793320Y-75253176D02*
X72698082Y-75157938D01*
X72698082Y-75157938D02*
X72602844Y-75110319D01*
X71840939Y-75110319D02*
X71602844Y-76110319D01*
X71602844Y-76110319D02*
X71412368Y-75396033D01*
X71412368Y-75396033D02*
X71221892Y-76110319D01*
X71221892Y-76110319D02*
X70983797Y-75110319D01*
X70650463Y-76062700D02*
X70507606Y-76110319D01*
X70507606Y-76110319D02*
X70269511Y-76110319D01*
X70269511Y-76110319D02*
X70174273Y-76062700D01*
X70174273Y-76062700D02*
X70126654Y-76015080D01*
X70126654Y-76015080D02*
X70079035Y-75919842D01*
X70079035Y-75919842D02*
X70079035Y-75824604D01*
X70079035Y-75824604D02*
X70126654Y-75729366D01*
X70126654Y-75729366D02*
X70174273Y-75681747D01*
X70174273Y-75681747D02*
X70269511Y-75634128D01*
X70269511Y-75634128D02*
X70459987Y-75586509D01*
X70459987Y-75586509D02*
X70555225Y-75538890D01*
X70555225Y-75538890D02*
X70602844Y-75491271D01*
X70602844Y-75491271D02*
X70650463Y-75396033D01*
X70650463Y-75396033D02*
X70650463Y-75300795D01*
X70650463Y-75300795D02*
X70602844Y-75205557D01*
X70602844Y-75205557D02*
X70555225Y-75157938D01*
X70555225Y-75157938D02*
X70459987Y-75110319D01*
X70459987Y-75110319D02*
X70221892Y-75110319D01*
X70221892Y-75110319D02*
X70079035Y-75157938D01*
X52490688Y-74705557D02*
X52443069Y-74657938D01*
X52443069Y-74657938D02*
X52347831Y-74610319D01*
X52347831Y-74610319D02*
X52109736Y-74610319D01*
X52109736Y-74610319D02*
X52014498Y-74657938D01*
X52014498Y-74657938D02*
X51966879Y-74705557D01*
X51966879Y-74705557D02*
X51919260Y-74800795D01*
X51919260Y-74800795D02*
X51919260Y-74896033D01*
X51919260Y-74896033D02*
X51966879Y-75038890D01*
X51966879Y-75038890D02*
X52538307Y-75610319D01*
X52538307Y-75610319D02*
X51919260Y-75610319D01*
X48419260Y-75610319D02*
X48990688Y-75610319D01*
X48704974Y-75610319D02*
X48704974Y-74610319D01*
X48704974Y-74610319D02*
X48800212Y-74753176D01*
X48800212Y-74753176D02*
X48895450Y-74848414D01*
X48895450Y-74848414D02*
X48990688Y-74896033D01*
X95212661Y-76379911D02*
X95260280Y-76475149D01*
X95260280Y-76475149D02*
X95260280Y-76618006D01*
X95260280Y-76618006D02*
X95212661Y-76760863D01*
X95212661Y-76760863D02*
X95117423Y-76856101D01*
X95117423Y-76856101D02*
X95022185Y-76903720D01*
X95022185Y-76903720D02*
X94831709Y-76951339D01*
X94831709Y-76951339D02*
X94688852Y-76951339D01*
X94688852Y-76951339D02*
X94498376Y-76903720D01*
X94498376Y-76903720D02*
X94403138Y-76856101D01*
X94403138Y-76856101D02*
X94307900Y-76760863D01*
X94307900Y-76760863D02*
X94260280Y-76618006D01*
X94260280Y-76618006D02*
X94260280Y-76522768D01*
X94260280Y-76522768D02*
X94307900Y-76379911D01*
X94307900Y-76379911D02*
X94355519Y-76332292D01*
X94355519Y-76332292D02*
X94688852Y-76332292D01*
X94688852Y-76332292D02*
X94688852Y-76522768D01*
X94260280Y-75903720D02*
X95260280Y-75903720D01*
X95260280Y-75903720D02*
X94260280Y-75332292D01*
X94260280Y-75332292D02*
X95260280Y-75332292D01*
X94260280Y-74856101D02*
X95260280Y-74856101D01*
X95260280Y-74856101D02*
X95260280Y-74618006D01*
X95260280Y-74618006D02*
X95212661Y-74475149D01*
X95212661Y-74475149D02*
X95117423Y-74379911D01*
X95117423Y-74379911D02*
X95022185Y-74332292D01*
X95022185Y-74332292D02*
X94831709Y-74284673D01*
X94831709Y-74284673D02*
X94688852Y-74284673D01*
X94688852Y-74284673D02*
X94498376Y-74332292D01*
X94498376Y-74332292D02*
X94403138Y-74379911D01*
X94403138Y-74379911D02*
X94307900Y-74475149D01*
X94307900Y-74475149D02*
X94260280Y-74618006D01*
X94260280Y-74618006D02*
X94260280Y-74856101D01*
X81260280Y-76332292D02*
X81736471Y-76665625D01*
X81260280Y-76903720D02*
X82260280Y-76903720D01*
X82260280Y-76903720D02*
X82260280Y-76522768D01*
X82260280Y-76522768D02*
X82212661Y-76427530D01*
X82212661Y-76427530D02*
X82165042Y-76379911D01*
X82165042Y-76379911D02*
X82069804Y-76332292D01*
X82069804Y-76332292D02*
X81926947Y-76332292D01*
X81926947Y-76332292D02*
X81831709Y-76379911D01*
X81831709Y-76379911D02*
X81784090Y-76427530D01*
X81784090Y-76427530D02*
X81736471Y-76522768D01*
X81736471Y-76522768D02*
X81736471Y-76903720D01*
X81307900Y-75951339D02*
X81260280Y-75808482D01*
X81260280Y-75808482D02*
X81260280Y-75570387D01*
X81260280Y-75570387D02*
X81307900Y-75475149D01*
X81307900Y-75475149D02*
X81355519Y-75427530D01*
X81355519Y-75427530D02*
X81450757Y-75379911D01*
X81450757Y-75379911D02*
X81545995Y-75379911D01*
X81545995Y-75379911D02*
X81641233Y-75427530D01*
X81641233Y-75427530D02*
X81688852Y-75475149D01*
X81688852Y-75475149D02*
X81736471Y-75570387D01*
X81736471Y-75570387D02*
X81784090Y-75760863D01*
X81784090Y-75760863D02*
X81831709Y-75856101D01*
X81831709Y-75856101D02*
X81879328Y-75903720D01*
X81879328Y-75903720D02*
X81974566Y-75951339D01*
X81974566Y-75951339D02*
X82069804Y-75951339D01*
X82069804Y-75951339D02*
X82165042Y-75903720D01*
X82165042Y-75903720D02*
X82212661Y-75856101D01*
X82212661Y-75856101D02*
X82260280Y-75760863D01*
X82260280Y-75760863D02*
X82260280Y-75522768D01*
X82260280Y-75522768D02*
X82212661Y-75379911D01*
X82260280Y-75094196D02*
X82260280Y-74522768D01*
X81260280Y-74808482D02*
X82260280Y-74808482D01*
X83784090Y-72070387D02*
X83736471Y-71927530D01*
X83736471Y-71927530D02*
X83688852Y-71879911D01*
X83688852Y-71879911D02*
X83593614Y-71832292D01*
X83593614Y-71832292D02*
X83450757Y-71832292D01*
X83450757Y-71832292D02*
X83355519Y-71879911D01*
X83355519Y-71879911D02*
X83307900Y-71927530D01*
X83307900Y-71927530D02*
X83260280Y-72022768D01*
X83260280Y-72022768D02*
X83260280Y-72403720D01*
X83260280Y-72403720D02*
X84260280Y-72403720D01*
X84260280Y-72403720D02*
X84260280Y-72070387D01*
X84260280Y-72070387D02*
X84212661Y-71975149D01*
X84212661Y-71975149D02*
X84165042Y-71927530D01*
X84165042Y-71927530D02*
X84069804Y-71879911D01*
X84069804Y-71879911D02*
X83974566Y-71879911D01*
X83974566Y-71879911D02*
X83879328Y-71927530D01*
X83879328Y-71927530D02*
X83831709Y-71975149D01*
X83831709Y-71975149D02*
X83784090Y-72070387D01*
X83784090Y-72070387D02*
X83784090Y-72403720D01*
X83641233Y-71403720D02*
X83641233Y-70641816D01*
X83260280Y-71022768D02*
X84022185Y-71022768D01*
X63769511Y-78610319D02*
X64340939Y-78610319D01*
X64055225Y-78610319D02*
X64055225Y-77610319D01*
X64055225Y-77610319D02*
X64150463Y-77753176D01*
X64150463Y-77753176D02*
X64245701Y-77848414D01*
X64245701Y-77848414D02*
X64340939Y-77896033D01*
X56038307Y-74610319D02*
X55419260Y-74610319D01*
X55419260Y-74610319D02*
X55752593Y-74991271D01*
X55752593Y-74991271D02*
X55609736Y-74991271D01*
X55609736Y-74991271D02*
X55514498Y-75038890D01*
X55514498Y-75038890D02*
X55466879Y-75086509D01*
X55466879Y-75086509D02*
X55419260Y-75181747D01*
X55419260Y-75181747D02*
X55419260Y-75419842D01*
X55419260Y-75419842D02*
X55466879Y-75515080D01*
X55466879Y-75515080D02*
X55514498Y-75562700D01*
X55514498Y-75562700D02*
X55609736Y-75610319D01*
X55609736Y-75610319D02*
X55895450Y-75610319D01*
X55895450Y-75610319D02*
X55990688Y-75562700D01*
X55990688Y-75562700D02*
X56038307Y-75515080D01*
X93260280Y-73046577D02*
X92260280Y-72713244D01*
X92260280Y-72713244D02*
X93260280Y-72379911D01*
X92355519Y-71475149D02*
X92307900Y-71522768D01*
X92307900Y-71522768D02*
X92260280Y-71665625D01*
X92260280Y-71665625D02*
X92260280Y-71760863D01*
X92260280Y-71760863D02*
X92307900Y-71903720D01*
X92307900Y-71903720D02*
X92403138Y-71998958D01*
X92403138Y-71998958D02*
X92498376Y-72046577D01*
X92498376Y-72046577D02*
X92688852Y-72094196D01*
X92688852Y-72094196D02*
X92831709Y-72094196D01*
X92831709Y-72094196D02*
X93022185Y-72046577D01*
X93022185Y-72046577D02*
X93117423Y-71998958D01*
X93117423Y-71998958D02*
X93212661Y-71903720D01*
X93212661Y-71903720D02*
X93260280Y-71760863D01*
X93260280Y-71760863D02*
X93260280Y-71665625D01*
X93260280Y-71665625D02*
X93212661Y-71522768D01*
X93212661Y-71522768D02*
X93165042Y-71475149D01*
X92355519Y-70475149D02*
X92307900Y-70522768D01*
X92307900Y-70522768D02*
X92260280Y-70665625D01*
X92260280Y-70665625D02*
X92260280Y-70760863D01*
X92260280Y-70760863D02*
X92307900Y-70903720D01*
X92307900Y-70903720D02*
X92403138Y-70998958D01*
X92403138Y-70998958D02*
X92498376Y-71046577D01*
X92498376Y-71046577D02*
X92688852Y-71094196D01*
X92688852Y-71094196D02*
X92831709Y-71094196D01*
X92831709Y-71094196D02*
X93022185Y-71046577D01*
X93022185Y-71046577D02*
X93117423Y-70998958D01*
X93117423Y-70998958D02*
X93212661Y-70903720D01*
X93212661Y-70903720D02*
X93260280Y-70760863D01*
X93260280Y-70760863D02*
X93260280Y-70665625D01*
X93260280Y-70665625D02*
X93212661Y-70522768D01*
X93212661Y-70522768D02*
X93165042Y-70475149D01*
X63817130Y-69110319D02*
X64293320Y-69110319D01*
X64293320Y-69110319D02*
X64340939Y-69586509D01*
X64340939Y-69586509D02*
X64293320Y-69538890D01*
X64293320Y-69538890D02*
X64198082Y-69491271D01*
X64198082Y-69491271D02*
X63959987Y-69491271D01*
X63959987Y-69491271D02*
X63864749Y-69538890D01*
X63864749Y-69538890D02*
X63817130Y-69586509D01*
X63817130Y-69586509D02*
X63769511Y-69681747D01*
X63769511Y-69681747D02*
X63769511Y-69919842D01*
X63769511Y-69919842D02*
X63817130Y-70015080D01*
X63817130Y-70015080D02*
X63864749Y-70062700D01*
X63864749Y-70062700D02*
X63959987Y-70110319D01*
X63959987Y-70110319D02*
X64198082Y-70110319D01*
X64198082Y-70110319D02*
X64293320Y-70062700D01*
X64293320Y-70062700D02*
X64340939Y-70015080D01*
X116442135Y-96640645D02*
X115965944Y-96307312D01*
X116442135Y-96069217D02*
X115442135Y-96069217D01*
X115442135Y-96069217D02*
X115442135Y-96450169D01*
X115442135Y-96450169D02*
X115489754Y-96545407D01*
X115489754Y-96545407D02*
X115537373Y-96593026D01*
X115537373Y-96593026D02*
X115632611Y-96640645D01*
X115632611Y-96640645D02*
X115775468Y-96640645D01*
X115775468Y-96640645D02*
X115870706Y-96593026D01*
X115870706Y-96593026D02*
X115918325Y-96545407D01*
X115918325Y-96545407D02*
X115965944Y-96450169D01*
X115965944Y-96450169D02*
X115965944Y-96069217D01*
X115537373Y-97021598D02*
X115489754Y-97069217D01*
X115489754Y-97069217D02*
X115442135Y-97164455D01*
X115442135Y-97164455D02*
X115442135Y-97402550D01*
X115442135Y-97402550D02*
X115489754Y-97497788D01*
X115489754Y-97497788D02*
X115537373Y-97545407D01*
X115537373Y-97545407D02*
X115632611Y-97593026D01*
X115632611Y-97593026D02*
X115727849Y-97593026D01*
X115727849Y-97593026D02*
X115870706Y-97545407D01*
X115870706Y-97545407D02*
X116442135Y-96973979D01*
X116442135Y-96973979D02*
X116442135Y-97593026D01*
X79442319Y-121098214D02*
X78442319Y-121098214D01*
X78442319Y-121098214D02*
X78442319Y-121336309D01*
X78442319Y-121336309D02*
X78489938Y-121479166D01*
X78489938Y-121479166D02*
X78585176Y-121574404D01*
X78585176Y-121574404D02*
X78680414Y-121622023D01*
X78680414Y-121622023D02*
X78870890Y-121669642D01*
X78870890Y-121669642D02*
X79013747Y-121669642D01*
X79013747Y-121669642D02*
X79204223Y-121622023D01*
X79204223Y-121622023D02*
X79299461Y-121574404D01*
X79299461Y-121574404D02*
X79394700Y-121479166D01*
X79394700Y-121479166D02*
X79442319Y-121336309D01*
X79442319Y-121336309D02*
X79442319Y-121098214D01*
X79442319Y-122622023D02*
X79442319Y-122050595D01*
X79442319Y-122336309D02*
X78442319Y-122336309D01*
X78442319Y-122336309D02*
X78585176Y-122241071D01*
X78585176Y-122241071D02*
X78680414Y-122145833D01*
X78680414Y-122145833D02*
X78728033Y-122050595D01*
X78442319Y-122955357D02*
X78442319Y-123574404D01*
X78442319Y-123574404D02*
X78823271Y-123241071D01*
X78823271Y-123241071D02*
X78823271Y-123383928D01*
X78823271Y-123383928D02*
X78870890Y-123479166D01*
X78870890Y-123479166D02*
X78918509Y-123526785D01*
X78918509Y-123526785D02*
X79013747Y-123574404D01*
X79013747Y-123574404D02*
X79251842Y-123574404D01*
X79251842Y-123574404D02*
X79347080Y-123526785D01*
X79347080Y-123526785D02*
X79394700Y-123479166D01*
X79394700Y-123479166D02*
X79442319Y-123383928D01*
X79442319Y-123383928D02*
X79442319Y-123098214D01*
X79442319Y-123098214D02*
X79394700Y-123002976D01*
X79394700Y-123002976D02*
X79347080Y-122955357D01*
X103885118Y-71193509D02*
X103742261Y-71241128D01*
X103742261Y-71241128D02*
X103694642Y-71288747D01*
X103694642Y-71288747D02*
X103647023Y-71383985D01*
X103647023Y-71383985D02*
X103647023Y-71526842D01*
X103647023Y-71526842D02*
X103694642Y-71622080D01*
X103694642Y-71622080D02*
X103742261Y-71669700D01*
X103742261Y-71669700D02*
X103837499Y-71717319D01*
X103837499Y-71717319D02*
X104218451Y-71717319D01*
X104218451Y-71717319D02*
X104218451Y-70717319D01*
X104218451Y-70717319D02*
X103885118Y-70717319D01*
X103885118Y-70717319D02*
X103789880Y-70764938D01*
X103789880Y-70764938D02*
X103742261Y-70812557D01*
X103742261Y-70812557D02*
X103694642Y-70907795D01*
X103694642Y-70907795D02*
X103694642Y-71003033D01*
X103694642Y-71003033D02*
X103742261Y-71098271D01*
X103742261Y-71098271D02*
X103789880Y-71145890D01*
X103789880Y-71145890D02*
X103885118Y-71193509D01*
X103885118Y-71193509D02*
X104218451Y-71193509D01*
X103218451Y-71336366D02*
X102456547Y-71336366D01*
X114914019Y-158357314D02*
X113914019Y-158357314D01*
X113914019Y-158357314D02*
X113914019Y-158595409D01*
X113914019Y-158595409D02*
X113961638Y-158738266D01*
X113961638Y-158738266D02*
X114056876Y-158833504D01*
X114056876Y-158833504D02*
X114152114Y-158881123D01*
X114152114Y-158881123D02*
X114342590Y-158928742D01*
X114342590Y-158928742D02*
X114485447Y-158928742D01*
X114485447Y-158928742D02*
X114675923Y-158881123D01*
X114675923Y-158881123D02*
X114771161Y-158833504D01*
X114771161Y-158833504D02*
X114866400Y-158738266D01*
X114866400Y-158738266D02*
X114914019Y-158595409D01*
X114914019Y-158595409D02*
X114914019Y-158357314D01*
X114009257Y-159309695D02*
X113961638Y-159357314D01*
X113961638Y-159357314D02*
X113914019Y-159452552D01*
X113914019Y-159452552D02*
X113914019Y-159690647D01*
X113914019Y-159690647D02*
X113961638Y-159785885D01*
X113961638Y-159785885D02*
X114009257Y-159833504D01*
X114009257Y-159833504D02*
X114104495Y-159881123D01*
X114104495Y-159881123D02*
X114199733Y-159881123D01*
X114199733Y-159881123D02*
X114342590Y-159833504D01*
X114342590Y-159833504D02*
X114914019Y-159262076D01*
X114914019Y-159262076D02*
X114914019Y-159881123D01*
X114914019Y-160833504D02*
X114914019Y-160262076D01*
X114914019Y-160547790D02*
X113914019Y-160547790D01*
X113914019Y-160547790D02*
X114056876Y-160452552D01*
X114056876Y-160452552D02*
X114152114Y-160357314D01*
X114152114Y-160357314D02*
X114199733Y-160262076D01*
X114914019Y-66536905D02*
X113914019Y-66536905D01*
X113914019Y-66536905D02*
X113914019Y-66775000D01*
X113914019Y-66775000D02*
X113961638Y-66917857D01*
X113961638Y-66917857D02*
X114056876Y-67013095D01*
X114056876Y-67013095D02*
X114152114Y-67060714D01*
X114152114Y-67060714D02*
X114342590Y-67108333D01*
X114342590Y-67108333D02*
X114485447Y-67108333D01*
X114485447Y-67108333D02*
X114675923Y-67060714D01*
X114675923Y-67060714D02*
X114771161Y-67013095D01*
X114771161Y-67013095D02*
X114866400Y-66917857D01*
X114866400Y-66917857D02*
X114914019Y-66775000D01*
X114914019Y-66775000D02*
X114914019Y-66536905D01*
X114247352Y-67965476D02*
X114914019Y-67965476D01*
X113866400Y-67727381D02*
X114580685Y-67489286D01*
X114580685Y-67489286D02*
X114580685Y-68108333D01*
X60429819Y-121098214D02*
X59429819Y-121098214D01*
X59429819Y-121098214D02*
X59429819Y-121336309D01*
X59429819Y-121336309D02*
X59477438Y-121479166D01*
X59477438Y-121479166D02*
X59572676Y-121574404D01*
X59572676Y-121574404D02*
X59667914Y-121622023D01*
X59667914Y-121622023D02*
X59858390Y-121669642D01*
X59858390Y-121669642D02*
X60001247Y-121669642D01*
X60001247Y-121669642D02*
X60191723Y-121622023D01*
X60191723Y-121622023D02*
X60286961Y-121574404D01*
X60286961Y-121574404D02*
X60382200Y-121479166D01*
X60382200Y-121479166D02*
X60429819Y-121336309D01*
X60429819Y-121336309D02*
X60429819Y-121098214D01*
X60429819Y-122622023D02*
X60429819Y-122050595D01*
X60429819Y-122336309D02*
X59429819Y-122336309D01*
X59429819Y-122336309D02*
X59572676Y-122241071D01*
X59572676Y-122241071D02*
X59667914Y-122145833D01*
X59667914Y-122145833D02*
X59715533Y-122050595D01*
X59525057Y-123002976D02*
X59477438Y-123050595D01*
X59477438Y-123050595D02*
X59429819Y-123145833D01*
X59429819Y-123145833D02*
X59429819Y-123383928D01*
X59429819Y-123383928D02*
X59477438Y-123479166D01*
X59477438Y-123479166D02*
X59525057Y-123526785D01*
X59525057Y-123526785D02*
X59620295Y-123574404D01*
X59620295Y-123574404D02*
X59715533Y-123574404D01*
X59715533Y-123574404D02*
X59858390Y-123526785D01*
X59858390Y-123526785D02*
X60429819Y-122955357D01*
X60429819Y-122955357D02*
X60429819Y-123574404D01*
X79429819Y-139948214D02*
X78429819Y-139948214D01*
X78429819Y-139948214D02*
X78429819Y-140186309D01*
X78429819Y-140186309D02*
X78477438Y-140329166D01*
X78477438Y-140329166D02*
X78572676Y-140424404D01*
X78572676Y-140424404D02*
X78667914Y-140472023D01*
X78667914Y-140472023D02*
X78858390Y-140519642D01*
X78858390Y-140519642D02*
X79001247Y-140519642D01*
X79001247Y-140519642D02*
X79191723Y-140472023D01*
X79191723Y-140472023D02*
X79286961Y-140424404D01*
X79286961Y-140424404D02*
X79382200Y-140329166D01*
X79382200Y-140329166D02*
X79429819Y-140186309D01*
X79429819Y-140186309D02*
X79429819Y-139948214D01*
X79429819Y-141472023D02*
X79429819Y-140900595D01*
X79429819Y-141186309D02*
X78429819Y-141186309D01*
X78429819Y-141186309D02*
X78572676Y-141091071D01*
X78572676Y-141091071D02*
X78667914Y-140995833D01*
X78667914Y-140995833D02*
X78715533Y-140900595D01*
X78429819Y-141805357D02*
X78429819Y-142472023D01*
X78429819Y-142472023D02*
X79429819Y-142043452D01*
X98454819Y-158357314D02*
X97454819Y-158357314D01*
X97454819Y-158357314D02*
X97454819Y-158595409D01*
X97454819Y-158595409D02*
X97502438Y-158738266D01*
X97502438Y-158738266D02*
X97597676Y-158833504D01*
X97597676Y-158833504D02*
X97692914Y-158881123D01*
X97692914Y-158881123D02*
X97883390Y-158928742D01*
X97883390Y-158928742D02*
X98026247Y-158928742D01*
X98026247Y-158928742D02*
X98216723Y-158881123D01*
X98216723Y-158881123D02*
X98311961Y-158833504D01*
X98311961Y-158833504D02*
X98407200Y-158738266D01*
X98407200Y-158738266D02*
X98454819Y-158595409D01*
X98454819Y-158595409D02*
X98454819Y-158357314D01*
X97550057Y-159309695D02*
X97502438Y-159357314D01*
X97502438Y-159357314D02*
X97454819Y-159452552D01*
X97454819Y-159452552D02*
X97454819Y-159690647D01*
X97454819Y-159690647D02*
X97502438Y-159785885D01*
X97502438Y-159785885D02*
X97550057Y-159833504D01*
X97550057Y-159833504D02*
X97645295Y-159881123D01*
X97645295Y-159881123D02*
X97740533Y-159881123D01*
X97740533Y-159881123D02*
X97883390Y-159833504D01*
X97883390Y-159833504D02*
X98454819Y-159262076D01*
X98454819Y-159262076D02*
X98454819Y-159881123D01*
X97454819Y-160500171D02*
X97454819Y-160595409D01*
X97454819Y-160595409D02*
X97502438Y-160690647D01*
X97502438Y-160690647D02*
X97550057Y-160738266D01*
X97550057Y-160738266D02*
X97645295Y-160785885D01*
X97645295Y-160785885D02*
X97835771Y-160833504D01*
X97835771Y-160833504D02*
X98073866Y-160833504D01*
X98073866Y-160833504D02*
X98264342Y-160785885D01*
X98264342Y-160785885D02*
X98359580Y-160738266D01*
X98359580Y-160738266D02*
X98407200Y-160690647D01*
X98407200Y-160690647D02*
X98454819Y-160595409D01*
X98454819Y-160595409D02*
X98454819Y-160500171D01*
X98454819Y-160500171D02*
X98407200Y-160404933D01*
X98407200Y-160404933D02*
X98359580Y-160357314D01*
X98359580Y-160357314D02*
X98264342Y-160309695D01*
X98264342Y-160309695D02*
X98073866Y-160262076D01*
X98073866Y-160262076D02*
X97835771Y-160262076D01*
X97835771Y-160262076D02*
X97645295Y-160309695D01*
X97645295Y-160309695D02*
X97550057Y-160357314D01*
X97550057Y-160357314D02*
X97502438Y-160404933D01*
X97502438Y-160404933D02*
X97454819Y-160500171D01*
X109885118Y-71193509D02*
X109742261Y-71241128D01*
X109742261Y-71241128D02*
X109694642Y-71288747D01*
X109694642Y-71288747D02*
X109647023Y-71383985D01*
X109647023Y-71383985D02*
X109647023Y-71526842D01*
X109647023Y-71526842D02*
X109694642Y-71622080D01*
X109694642Y-71622080D02*
X109742261Y-71669700D01*
X109742261Y-71669700D02*
X109837499Y-71717319D01*
X109837499Y-71717319D02*
X110218451Y-71717319D01*
X110218451Y-71717319D02*
X110218451Y-70717319D01*
X110218451Y-70717319D02*
X109885118Y-70717319D01*
X109885118Y-70717319D02*
X109789880Y-70764938D01*
X109789880Y-70764938D02*
X109742261Y-70812557D01*
X109742261Y-70812557D02*
X109694642Y-70907795D01*
X109694642Y-70907795D02*
X109694642Y-71003033D01*
X109694642Y-71003033D02*
X109742261Y-71098271D01*
X109742261Y-71098271D02*
X109789880Y-71145890D01*
X109789880Y-71145890D02*
X109885118Y-71193509D01*
X109885118Y-71193509D02*
X110218451Y-71193509D01*
X109218451Y-71336366D02*
X108456547Y-71336366D01*
X108837499Y-71717319D02*
X108837499Y-70955414D01*
X98454819Y-121098214D02*
X97454819Y-121098214D01*
X97454819Y-121098214D02*
X97454819Y-121336309D01*
X97454819Y-121336309D02*
X97502438Y-121479166D01*
X97502438Y-121479166D02*
X97597676Y-121574404D01*
X97597676Y-121574404D02*
X97692914Y-121622023D01*
X97692914Y-121622023D02*
X97883390Y-121669642D01*
X97883390Y-121669642D02*
X98026247Y-121669642D01*
X98026247Y-121669642D02*
X98216723Y-121622023D01*
X98216723Y-121622023D02*
X98311961Y-121574404D01*
X98311961Y-121574404D02*
X98407200Y-121479166D01*
X98407200Y-121479166D02*
X98454819Y-121336309D01*
X98454819Y-121336309D02*
X98454819Y-121098214D01*
X98454819Y-122622023D02*
X98454819Y-122050595D01*
X98454819Y-122336309D02*
X97454819Y-122336309D01*
X97454819Y-122336309D02*
X97597676Y-122241071D01*
X97597676Y-122241071D02*
X97692914Y-122145833D01*
X97692914Y-122145833D02*
X97740533Y-122050595D01*
X97788152Y-123479166D02*
X98454819Y-123479166D01*
X97407200Y-123241071D02*
X98121485Y-123002976D01*
X98121485Y-123002976D02*
X98121485Y-123622023D01*
D13*
%TO.C,SW18*%
X84362500Y-136587500D02*
X89462500Y-136587500D01*
X88262500Y-140787500D02*
X93362500Y-140787500D01*
X84362500Y-136587500D02*
G75*
G03*
X82362500Y-138587500I-1J-1999999D01*
G01*
X88262500Y-140787500D02*
G75*
G03*
X86262500Y-142787500I-1J-1999999D01*
G01*
%TO.C,SW15*%
X103417153Y-108001620D02*
X108517153Y-108001620D01*
X107317153Y-112201620D02*
X112417153Y-112201620D01*
X103417153Y-108001620D02*
G75*
G03*
X101417153Y-110001620I-1J-1999999D01*
G01*
X107317153Y-112201620D02*
G75*
G03*
X105317153Y-114201620I-1J-1999999D01*
G01*
%TO.C,SW6*%
X65312500Y-79437500D02*
X70412500Y-79437500D01*
X69212500Y-83637500D02*
X74312500Y-83637500D01*
X65312500Y-79437500D02*
G75*
G03*
X63312500Y-81437500I-1J-1999999D01*
G01*
X69212500Y-83637500D02*
G75*
G03*
X67212500Y-85637500I-1J-1999999D01*
G01*
%TO.C,SW13*%
X65312500Y-117540000D02*
X70412500Y-117540000D01*
X69212500Y-121740000D02*
X74312500Y-121740000D01*
X65312500Y-117540000D02*
G75*
G03*
X63312500Y-119540000I-1J-1999999D01*
G01*
X69212500Y-121740000D02*
G75*
G03*
X67212500Y-123740000I-1J-1999999D01*
G01*
%TO.C,SW8*%
X103412500Y-79437500D02*
X108512500Y-79437500D01*
X107312500Y-83637500D02*
X112412500Y-83637500D01*
X103412500Y-79437500D02*
G75*
G03*
X101412500Y-81437500I-1J-1999999D01*
G01*
X107312500Y-83637500D02*
G75*
G03*
X105312500Y-85637500I-1J-1999999D01*
G01*
%TO.C,SW16*%
X46262500Y-136587500D02*
X51362500Y-136587500D01*
X50162500Y-140787500D02*
X55262500Y-140787500D01*
X46262500Y-136587500D02*
G75*
G03*
X44262500Y-138587500I-1J-1999999D01*
G01*
X50162500Y-140787500D02*
G75*
G03*
X48162500Y-142787500I-1J-1999999D01*
G01*
%TO.C,SW12*%
X46262500Y-117540000D02*
X51362500Y-117540000D01*
X50162500Y-121740000D02*
X55262500Y-121740000D01*
X46262500Y-117540000D02*
G75*
G03*
X44262500Y-119540000I-1J-1999999D01*
G01*
X50162500Y-121740000D02*
G75*
G03*
X48162500Y-123740000I-1J-1999999D01*
G01*
%TO.C,SW14*%
X84400000Y-117540000D02*
X89500000Y-117540000D01*
X88300000Y-121740000D02*
X93400000Y-121740000D01*
X84400000Y-117540000D02*
G75*
G03*
X82400000Y-119540000I-1J-1999999D01*
G01*
X88300000Y-121740000D02*
G75*
G03*
X86300000Y-123740000I-1J-1999999D01*
G01*
%TO.C,SW19*%
X55787500Y-155637500D02*
X60887500Y-155637500D01*
X59687500Y-159837500D02*
X64787500Y-159837500D01*
X55787500Y-155637500D02*
G75*
G03*
X53787500Y-157637500I-1J-1999999D01*
G01*
X59687500Y-159837500D02*
G75*
G03*
X57687500Y-161837500I-1J-1999999D01*
G01*
%TO.C,SW17*%
X65312500Y-136587500D02*
X70412500Y-136587500D01*
X69212500Y-140787500D02*
X74312500Y-140787500D01*
X65312500Y-136587500D02*
G75*
G03*
X63312500Y-138587500I-1J-1999999D01*
G01*
X69212500Y-140787500D02*
G75*
G03*
X67212500Y-142787500I-1J-1999999D01*
G01*
%TO.C,SW10*%
X65312500Y-98487500D02*
X70412500Y-98487500D01*
X69212500Y-102687500D02*
X74312500Y-102687500D01*
X65312500Y-98487500D02*
G75*
G03*
X63312500Y-100487500I-1J-1999999D01*
G01*
X69212500Y-102687500D02*
G75*
G03*
X67212500Y-104687500I-1J-1999999D01*
G01*
%TO.C,SW2*%
X65312500Y-60387500D02*
X70412500Y-60387500D01*
X69212500Y-64587500D02*
X74312500Y-64587500D01*
X65312500Y-60387500D02*
G75*
G03*
X63312500Y-62387500I-1J-1999999D01*
G01*
X69212500Y-64587500D02*
G75*
G03*
X67212500Y-66587500I-1J-1999999D01*
G01*
%TO.C,SW7*%
X84362500Y-79437500D02*
X89462500Y-79437500D01*
X88262500Y-83637500D02*
X93362500Y-83637500D01*
X84362500Y-79437500D02*
G75*
G03*
X82362500Y-81437500I-1J-1999999D01*
G01*
X88262500Y-83637500D02*
G75*
G03*
X86262500Y-85637500I-1J-1999999D01*
G01*
%TO.C,SW11*%
X84362500Y-98487500D02*
X89462500Y-98487500D01*
X88262500Y-102687500D02*
X93362500Y-102687500D01*
X84362500Y-98487500D02*
G75*
G03*
X82362500Y-100487500I-1J-1999999D01*
G01*
X88262500Y-102687500D02*
G75*
G03*
X86262500Y-104687500I-1J-1999999D01*
G01*
%TO.C,SW20*%
X84362500Y-155637500D02*
X89462500Y-155637500D01*
X88262500Y-159837500D02*
X93362500Y-159837500D01*
X84362500Y-155637500D02*
G75*
G03*
X82362500Y-157637500I-1J-1999999D01*
G01*
X88262500Y-159837500D02*
G75*
G03*
X86262500Y-161837500I-1J-1999999D01*
G01*
%TO.C,SW4*%
X103412500Y-60387500D02*
X108512500Y-60387500D01*
X107312500Y-64587500D02*
X112412500Y-64587500D01*
X103412500Y-60387500D02*
G75*
G03*
X101412500Y-62387500I-1J-1999999D01*
G01*
X107312500Y-64587500D02*
G75*
G03*
X105312500Y-66587500I-1J-1999999D01*
G01*
%TO.C,SW21*%
X103385000Y-146140000D02*
X108485000Y-146140000D01*
X107285000Y-150340000D02*
X112385000Y-150340000D01*
X103385000Y-146140000D02*
G75*
G03*
X101385000Y-148140000I-1J-1999999D01*
G01*
X107285000Y-150340000D02*
G75*
G03*
X105285000Y-152340000I-1J-1999999D01*
G01*
%TO.C,SW5*%
X46262500Y-79437500D02*
X51362500Y-79437500D01*
X50162500Y-83637500D02*
X55262500Y-83637500D01*
X46262500Y-79437500D02*
G75*
G03*
X44262500Y-81437500I-1J-1999999D01*
G01*
X50162500Y-83637500D02*
G75*
G03*
X48162500Y-85637500I-1J-1999999D01*
G01*
%TO.C,SW9*%
X46262500Y-98487500D02*
X51362500Y-98487500D01*
X50162500Y-102687500D02*
X55262500Y-102687500D01*
X46262500Y-98487500D02*
G75*
G03*
X44262500Y-100487500I-1J-1999999D01*
G01*
X50162500Y-102687500D02*
G75*
G03*
X48162500Y-104687500I-1J-1999999D01*
G01*
%TO.C,SW1*%
X46262500Y-60387500D02*
X51362500Y-60387500D01*
X50162500Y-64587500D02*
X55262500Y-64587500D01*
X46262500Y-60387500D02*
G75*
G03*
X44262500Y-62387500I-1J-1999999D01*
G01*
X50162500Y-64587500D02*
G75*
G03*
X48162500Y-66587500I-1J-1999999D01*
G01*
%TO.C,SW3*%
X84362500Y-60387500D02*
X89462500Y-60387500D01*
X88262500Y-64587500D02*
X93362500Y-64587500D01*
X84362500Y-60387500D02*
G75*
G03*
X82362500Y-62387500I-1J-1999999D01*
G01*
X88262500Y-64587500D02*
G75*
G03*
X86262500Y-66587500I-1J-1999999D01*
G01*
%TO.C,D22*%
X111797500Y-100402500D02*
X111797500Y-103262500D01*
X109877500Y-100402500D02*
X111797500Y-100402500D01*
X109877500Y-103262500D02*
X109877500Y-100402500D01*
D10*
%TO.C,S1*%
X102987500Y-95262500D02*
X102987500Y-95262500D01*
X102987500Y-95362500D02*
X102987500Y-95362500D01*
D14*
X103637500Y-96662500D02*
X106037500Y-96662500D01*
X107437500Y-97462500D02*
X107437500Y-101062500D01*
X102237500Y-97462500D02*
X102237500Y-101062500D01*
X103637500Y-101862500D02*
X106037500Y-101862500D01*
D10*
X102987500Y-95362500D02*
G75*
G03*
X102987500Y-95262500I0J50000D01*
G01*
X102987500Y-95262500D02*
G75*
G03*
X102987500Y-95362500I0J-50000D01*
G01*
D13*
%TO.C,D2*%
X78000000Y-73122500D02*
X78000000Y-69112500D01*
X80000000Y-73122500D02*
X78000000Y-73122500D01*
X80000000Y-73122500D02*
X80000000Y-69112500D01*
%TO.C,D9*%
X58962500Y-109860000D02*
X58962500Y-105850000D01*
X60962500Y-109860000D02*
X58962500Y-109860000D01*
X60962500Y-109860000D02*
X60962500Y-105850000D01*
%TO.C,D18*%
X96987500Y-147860000D02*
X96987500Y-143850000D01*
X98987500Y-147860000D02*
X96987500Y-147860000D01*
X98987500Y-147860000D02*
X98987500Y-143850000D01*
%TO.C,D19*%
X77975000Y-166269100D02*
X77975000Y-162259100D01*
X79975000Y-166269100D02*
X77975000Y-166269100D01*
X79975000Y-166269100D02*
X79975000Y-162259100D01*
%TO.C,D6*%
X78000000Y-92122500D02*
X78000000Y-88112500D01*
X80000000Y-92122500D02*
X78000000Y-92122500D01*
X80000000Y-92122500D02*
X80000000Y-88112500D01*
%TO.C,D23*%
X115297500Y-100402500D02*
X115297500Y-103262500D01*
X113377500Y-100402500D02*
X115297500Y-100402500D01*
X113377500Y-103262500D02*
X113377500Y-100402500D01*
%TO.C,D3*%
X97012500Y-73122500D02*
X97012500Y-69112500D01*
X99012500Y-73122500D02*
X97012500Y-73122500D01*
X99012500Y-73122500D02*
X99012500Y-69112500D01*
%TO.C,D7*%
X97012500Y-92122500D02*
X97012500Y-88112500D01*
X99012500Y-92122500D02*
X97012500Y-92122500D01*
X99012500Y-92122500D02*
X99012500Y-88112500D01*
%TO.C,D1*%
X58987500Y-73122500D02*
X58987500Y-69112500D01*
X60987500Y-73122500D02*
X58987500Y-73122500D01*
X60987500Y-73122500D02*
X60987500Y-69112500D01*
%TO.C,D15*%
X113446700Y-128996620D02*
X113446700Y-124986620D01*
X115446700Y-128996620D02*
X113446700Y-128996620D01*
X115446700Y-128996620D02*
X115446700Y-124986620D01*
%TO.C,D8*%
X113446700Y-92122500D02*
X113446700Y-88112500D01*
X115446700Y-92122500D02*
X113446700Y-92122500D01*
X115446700Y-92122500D02*
X115446700Y-88112500D01*
%TO.C,D16*%
X58962500Y-147860000D02*
X58962500Y-143850000D01*
X60962500Y-147860000D02*
X58962500Y-147860000D01*
X60962500Y-147860000D02*
X60962500Y-143850000D01*
%TO.C,D11*%
X96987500Y-109860000D02*
X96987500Y-105850000D01*
X98987500Y-109860000D02*
X96987500Y-109860000D01*
X98987500Y-109860000D02*
X98987500Y-105850000D01*
%TO.C,D10*%
X77962500Y-109860000D02*
X77962500Y-105850000D01*
X79962500Y-109860000D02*
X77962500Y-109860000D01*
X79962500Y-109860000D02*
X79962500Y-105850000D01*
%TO.C,R1*%
X109934567Y-96992767D02*
X109934567Y-96538639D01*
X111404567Y-96992767D02*
X111404567Y-96538639D01*
%TO.C,D5*%
X58987500Y-92122500D02*
X58987500Y-88112500D01*
X60987500Y-92122500D02*
X58987500Y-92122500D01*
X60987500Y-92122500D02*
X60987500Y-88112500D01*
%TO.C,U1*%
X57630100Y-74240500D02*
X57630100Y-73740500D01*
X57630100Y-74240500D02*
X43130100Y-74240500D01*
X43130100Y-74240500D02*
X43130100Y-73740500D01*
%TO.C,R2*%
X113609362Y-96989564D02*
X113609362Y-96535436D01*
X115079362Y-96989564D02*
X115079362Y-96535436D01*
%TO.C,D13*%
X77975000Y-129010000D02*
X77975000Y-125000000D01*
X79975000Y-129010000D02*
X77975000Y-129010000D01*
X79975000Y-129010000D02*
X79975000Y-125000000D01*
%TO.C,B-*%
X105737500Y-74262500D02*
G75*
G03*
X101237500Y-74262500I-2250000J0D01*
G01*
X101237500Y-74262500D02*
G75*
G03*
X105737500Y-74262500I2250000J0D01*
G01*
%TO.C,D21*%
X113446700Y-166269100D02*
X113446700Y-162259100D01*
X115446700Y-166269100D02*
X113446700Y-166269100D01*
X115446700Y-166269100D02*
X115446700Y-162259100D01*
%TO.C,D4*%
X113446700Y-73122500D02*
X113446700Y-69112500D01*
X115446700Y-73122500D02*
X113446700Y-73122500D01*
X115446700Y-73122500D02*
X115446700Y-69112500D01*
%TO.C,D12*%
X58962500Y-129010000D02*
X58962500Y-125000000D01*
X60962500Y-129010000D02*
X58962500Y-129010000D01*
X60962500Y-129010000D02*
X60962500Y-125000000D01*
%TO.C,D17*%
X77962500Y-147860000D02*
X77962500Y-143850000D01*
X79962500Y-147860000D02*
X77962500Y-147860000D01*
X79962500Y-147860000D02*
X79962500Y-143850000D01*
%TO.C,D20*%
X96987500Y-166269100D02*
X96987500Y-162259100D01*
X98987500Y-166269100D02*
X96987500Y-166269100D01*
X98987500Y-166269100D02*
X98987500Y-162259100D01*
%TO.C,B+*%
X111787500Y-74262500D02*
G75*
G03*
X107287500Y-74262500I-2250000J0D01*
G01*
X107287500Y-74262500D02*
G75*
G03*
X111787500Y-74262500I2250000J0D01*
G01*
%TO.C,D14*%
X96987500Y-129010000D02*
X96987500Y-125000000D01*
X98987500Y-129010000D02*
X96987500Y-129010000D01*
X98987500Y-129010000D02*
X98987500Y-125000000D01*
%TD*%
M02*
