M48
; DRILL file {KiCad 7.0.11} date Friday, January 24, 2025 at 11:41:34 AM
; FORMAT={-:-/ absolute / inch / decimal}
; #@! TF.CreationDate,2025-01-24T11:41:34+01:00
; #@! TF.GenerationSoftware,Kicad,Pcbnew,7.0.11
; #@! TF.FileFunction,Plated,1,2,PTH
FMAT,2
INCH
; #@! TA.AperFunction,Plated,PTH,ViaDrill
T1C0.0118
; #@! TA.AperFunction,Plated,PTH,ComponentDrill
T2C0.1260
%
G90
G05
T1
X2.0802Y-6.2308
X2.3558Y-3.219
X2.3755Y-2.904
X2.3952Y-4.341
X2.4149Y-2.7662
X2.4149Y-2.7977
X2.4149Y-3.6324
X2.4149Y-5.0891
X2.4149Y-5.8371
X2.4345Y-3.219
X2.4542Y-5.6403
X2.4739Y-3.0812
X2.4739Y-4.8922
X2.4739Y-5.4631
X2.4936Y-4.4395
X2.5133Y-5.0103
X2.592Y-3.1796
X2.6117Y-3.534
X2.6511Y-5.8371
X2.7495Y-2.9434
X2.7889Y-4.4592
X2.9857Y-2.9631
X2.9857Y-3.5143
X3.0645Y-5.0891
X3.0645Y-5.8371
X3.0842Y-4.341
X3.1038Y-2.904
X3.1038Y-3.6324
X3.1432Y-4.4985
X3.1432Y-6.5655
X3.1826Y-2.7662
X3.5369Y-3.0615
X3.7141Y-3.0025
X3.8125Y-3.6324
X3.8125Y-5.0891
X3.8125Y-5.8371
X3.8125Y-6.5655
X3.8322Y-4.341
X3.8519Y-2.904
X3.8706Y-3.5143
X3.8912Y-3.1796
X3.9109Y-2.7662
X3.9503Y-2.7859
X3.9503Y-3.656
X4.0094Y-3.0025
X4.0094Y-3.0615
X4.1521Y-3.6088
X4.3046Y-2.8253
X4.4621Y-3.6324
X4.4621Y-5.0891
X4.4621Y-6.5655
X4.5015Y-2.904
X4.5408Y-3.6718
T2
X2.3578Y-3.7741
X2.3578Y-5.2741
X3.8578Y-3.7741
X3.8578Y-5.2751
M30
