%TF.GenerationSoftware,KiCad,Pcbnew,7.0.11*%
%TF.CreationDate,2025-01-24T11:41:37+01:00*%
%TF.ProjectId,Numpad1,4e756d70-6164-4312-9e6b-696361645f70,rev?*%
%TF.SameCoordinates,Original*%
%TF.FileFunction,Soldermask,Top*%
%TF.FilePolarity,Negative*%
%FSLAX46Y46*%
G04 Gerber Fmt 4.6, Leading zero omitted, Abs format (unit mm)*
G04 Created by KiCad (PCBNEW 7.0.11) date 2025-01-24 11:41:37*
%MOMM*%
%LPD*%
G01*
G04 APERTURE LIST*
%ADD10C,1.750000*%
%ADD11C,3.050000*%
%ADD12C,4.000000*%
%ADD13C,5.600000*%
G04 APERTURE END LIST*
D10*
%TO.C,SW18*%
X83382500Y-143487500D03*
D11*
X84652500Y-140947500D03*
D12*
X88462500Y-143487500D03*
D11*
X91002500Y-138407500D03*
D10*
X93542500Y-143487500D03*
%TD*%
%TO.C,SW15*%
X102437153Y-114901620D03*
D11*
X103707153Y-112361620D03*
D12*
X107517153Y-114901620D03*
D11*
X110057153Y-109821620D03*
D10*
X112597153Y-114901620D03*
%TD*%
D13*
%TO.C,H3*%
X59887500Y-133962500D03*
%TD*%
D10*
%TO.C,SW6*%
X64332500Y-86337500D03*
D11*
X65602500Y-83797500D03*
D12*
X69412500Y-86337500D03*
D11*
X71952500Y-81257500D03*
D10*
X74492500Y-86337500D03*
%TD*%
%TO.C,SW13*%
X64332500Y-124440000D03*
D11*
X65602500Y-121900000D03*
D12*
X69412500Y-124440000D03*
D11*
X71952500Y-119360000D03*
D10*
X74492500Y-124440000D03*
%TD*%
%TO.C,SW8*%
X102432500Y-86337500D03*
D11*
X103702500Y-83797500D03*
D12*
X107512500Y-86337500D03*
D11*
X110052500Y-81257500D03*
D10*
X112592500Y-86337500D03*
%TD*%
%TO.C,SW16*%
X45282500Y-143487500D03*
D11*
X46552500Y-140947500D03*
D12*
X50362500Y-143487500D03*
D11*
X52902500Y-138407500D03*
D10*
X55442500Y-143487500D03*
%TD*%
%TO.C,SW12*%
X45282500Y-124440000D03*
D11*
X46552500Y-121900000D03*
D12*
X50362500Y-124440000D03*
D11*
X52902500Y-119360000D03*
D10*
X55442500Y-124440000D03*
%TD*%
%TO.C,SW14*%
X83420000Y-124440000D03*
D11*
X84690000Y-121900000D03*
D12*
X88500000Y-124440000D03*
D11*
X91040000Y-119360000D03*
D10*
X93580000Y-124440000D03*
%TD*%
%TO.C,SW19*%
X54807500Y-162537500D03*
D11*
X56077500Y-159997500D03*
D12*
X59887500Y-162537500D03*
D11*
X62427500Y-157457500D03*
D10*
X64967500Y-162537500D03*
%TD*%
%TO.C,SW17*%
X64332500Y-143487500D03*
D11*
X65602500Y-140947500D03*
D12*
X69412500Y-143487500D03*
D11*
X71952500Y-138407500D03*
D10*
X74492500Y-143487500D03*
%TD*%
%TO.C,SW10*%
X64332500Y-105387500D03*
D11*
X65602500Y-102847500D03*
D12*
X69412500Y-105387500D03*
D11*
X71952500Y-100307500D03*
D10*
X74492500Y-105387500D03*
%TD*%
%TO.C,SW2*%
X64332500Y-67287500D03*
D11*
X65602500Y-64747500D03*
D12*
X69412500Y-67287500D03*
D11*
X71952500Y-62207500D03*
D10*
X74492500Y-67287500D03*
%TD*%
%TO.C,SW7*%
X83382500Y-86337500D03*
D11*
X84652500Y-83797500D03*
D12*
X88462500Y-86337500D03*
D11*
X91002500Y-81257500D03*
D10*
X93542500Y-86337500D03*
%TD*%
D13*
%TO.C,H2*%
X97987500Y-95862500D03*
%TD*%
%TO.C,H4*%
X97987500Y-133987900D03*
%TD*%
D10*
%TO.C,SW11*%
X83382500Y-105387500D03*
D11*
X84652500Y-102847500D03*
D12*
X88462500Y-105387500D03*
D11*
X91002500Y-100307500D03*
D10*
X93542500Y-105387500D03*
%TD*%
%TO.C,SW20*%
X83382500Y-162537500D03*
D11*
X84652500Y-159997500D03*
D12*
X88462500Y-162537500D03*
D11*
X91002500Y-157457500D03*
D10*
X93542500Y-162537500D03*
%TD*%
%TO.C,SW4*%
X102432500Y-67287500D03*
D11*
X103702500Y-64747500D03*
D12*
X107512500Y-67287500D03*
D11*
X110052500Y-62207500D03*
D10*
X112592500Y-67287500D03*
%TD*%
%TO.C,SW21*%
X102405000Y-153040000D03*
D11*
X103675000Y-150500000D03*
D12*
X107485000Y-153040000D03*
D11*
X110025000Y-147960000D03*
D10*
X112565000Y-153040000D03*
%TD*%
D13*
%TO.C,H1*%
X59887500Y-95862500D03*
%TD*%
D10*
%TO.C,SW5*%
X45282500Y-86337500D03*
D11*
X46552500Y-83797500D03*
D12*
X50362500Y-86337500D03*
D11*
X52902500Y-81257500D03*
D10*
X55442500Y-86337500D03*
%TD*%
%TO.C,SW9*%
X45282500Y-105387500D03*
D11*
X46552500Y-102847500D03*
D12*
X50362500Y-105387500D03*
D11*
X52902500Y-100307500D03*
D10*
X55442500Y-105387500D03*
%TD*%
%TO.C,SW1*%
X45282500Y-67287500D03*
D11*
X46552500Y-64747500D03*
D12*
X50362500Y-67287500D03*
D11*
X52902500Y-62207500D03*
D10*
X55442500Y-67287500D03*
%TD*%
%TO.C,SW3*%
X83382500Y-67287500D03*
D11*
X84652500Y-64747500D03*
D12*
X88462500Y-67287500D03*
D11*
X91002500Y-62207500D03*
D10*
X93542500Y-67287500D03*
%TD*%
M02*
