%TF.GenerationSoftware,KiCad,Pcbnew,7.0.11*%
%TF.CreationDate,2025-01-24T11:41:37+01:00*%
%TF.ProjectId,Numpad1,4e756d70-6164-4312-9e6b-696361645f70,rev?*%
%TF.SameCoordinates,Original*%
%TF.FileFunction,Legend,Top*%
%TF.FilePolarity,Positive*%
%FSLAX46Y46*%
G04 Gerber Fmt 4.6, Leading zero omitted, Abs format (unit mm)*
G04 Created by KiCad (PCBNEW 7.0.11) date 2025-01-24 11:41:37*
%MOMM*%
%LPD*%
G01*
G04 APERTURE LIST*
%ADD10C,0.300000*%
%ADD11C,0.150000*%
%ADD12C,0.120000*%
G04 APERTURE END LIST*
D10*
G36*
X103833190Y-168773026D02*
G01*
X104193693Y-168773026D01*
X104193693Y-168766432D01*
X104194382Y-168749718D01*
X104196448Y-168734382D01*
X104200745Y-168717797D01*
X104207026Y-168703195D01*
X104215291Y-168690577D01*
X104221903Y-168683267D01*
X104233572Y-168673929D01*
X104247148Y-168666523D01*
X104262629Y-168661049D01*
X104276987Y-168657963D01*
X104292668Y-168656219D01*
X104306167Y-168655790D01*
X104322468Y-168656704D01*
X104337302Y-168659448D01*
X104352752Y-168664960D01*
X104366203Y-168672962D01*
X104376142Y-168681802D01*
X104385849Y-168694216D01*
X104393172Y-168708699D01*
X104397552Y-168722760D01*
X104400179Y-168738341D01*
X104401055Y-168755441D01*
X104401055Y-168768996D01*
X104392629Y-168933494D01*
X104391431Y-168950504D01*
X104389089Y-168967159D01*
X104385168Y-168981985D01*
X104377608Y-168995043D01*
X104363864Y-169003108D01*
X104348765Y-169006514D01*
X104333853Y-169007487D01*
X104331812Y-169007500D01*
X103591024Y-169007500D01*
X103573024Y-169006873D01*
X103556348Y-169004995D01*
X103540996Y-169001865D01*
X103526967Y-168997482D01*
X103511880Y-168990569D01*
X103498700Y-168981854D01*
X103487743Y-168971477D01*
X103479053Y-168959580D01*
X103472631Y-168946164D01*
X103468475Y-168931227D01*
X103466586Y-168914771D01*
X103466460Y-168908948D01*
X103467406Y-168892027D01*
X103470246Y-168875248D01*
X103474188Y-168860977D01*
X103479520Y-168846809D01*
X103486243Y-168832744D01*
X103494650Y-168818563D01*
X103504756Y-168804047D01*
X103514477Y-168791695D01*
X103525379Y-168779110D01*
X103537461Y-168766293D01*
X103547976Y-168755871D01*
X103550724Y-168753243D01*
X103970211Y-168350242D01*
X103982682Y-168337946D01*
X103994541Y-168325650D01*
X104005788Y-168313354D01*
X104016424Y-168301058D01*
X104026448Y-168288761D01*
X104035860Y-168276465D01*
X104044660Y-168264169D01*
X104052849Y-168251873D01*
X104062815Y-168235478D01*
X104071693Y-168219084D01*
X104079507Y-168202689D01*
X104086279Y-168186294D01*
X104092010Y-168169899D01*
X104096698Y-168153504D01*
X104100344Y-168137110D01*
X104102949Y-168120715D01*
X104104512Y-168104320D01*
X104105033Y-168087925D01*
X104104640Y-168071030D01*
X104103461Y-168054965D01*
X104101497Y-168039731D01*
X104098747Y-168025328D01*
X104093859Y-168007417D01*
X104087573Y-167990982D01*
X104079891Y-167976024D01*
X104070812Y-167962543D01*
X104060336Y-167950539D01*
X104048424Y-167939977D01*
X104035034Y-167930824D01*
X104020168Y-167923078D01*
X104003825Y-167916741D01*
X103986004Y-167911813D01*
X103966707Y-167908292D01*
X103951265Y-167906576D01*
X103934992Y-167905652D01*
X103923682Y-167905476D01*
X103907253Y-167905869D01*
X103891396Y-167907050D01*
X103876112Y-167909018D01*
X103861400Y-167911773D01*
X103844502Y-167916118D01*
X103828428Y-167921596D01*
X103813435Y-167928104D01*
X103799783Y-167935541D01*
X103787469Y-167943904D01*
X103774797Y-167954833D01*
X103763948Y-167967025D01*
X103754986Y-167978918D01*
X103746688Y-167991354D01*
X103738583Y-168004451D01*
X103734272Y-168011721D01*
X103724908Y-168026256D01*
X103715364Y-168039362D01*
X103705640Y-168051038D01*
X103692393Y-168064381D01*
X103678826Y-168075183D01*
X103664939Y-168083444D01*
X103650731Y-168089162D01*
X103636202Y-168092339D01*
X103625095Y-168093054D01*
X103609570Y-168092205D01*
X103592568Y-168088942D01*
X103577344Y-168083231D01*
X103563897Y-168075074D01*
X103552228Y-168064470D01*
X103547060Y-168058250D01*
X103538220Y-168043888D01*
X103532250Y-168030130D01*
X103527551Y-168014744D01*
X103524122Y-167997730D01*
X103522293Y-167982946D01*
X103521277Y-167967121D01*
X103521048Y-167954569D01*
X103521306Y-167937367D01*
X103522078Y-167921298D01*
X103523366Y-167906363D01*
X103525701Y-167889288D01*
X103528840Y-167873984D01*
X103533670Y-167857957D01*
X103537534Y-167848689D01*
X103544876Y-167835625D01*
X103554536Y-167822534D01*
X103564357Y-167811606D01*
X103575788Y-167800660D01*
X103588829Y-167789696D01*
X103603480Y-167778714D01*
X103618601Y-167768661D01*
X103633877Y-167759110D01*
X103649307Y-167750062D01*
X103664892Y-167741516D01*
X103680631Y-167733473D01*
X103696525Y-167725932D01*
X103712574Y-167718893D01*
X103728777Y-167712356D01*
X103745134Y-167706322D01*
X103761646Y-167700790D01*
X103772740Y-167697381D01*
X103789630Y-167692667D01*
X103806778Y-167688416D01*
X103824183Y-167684630D01*
X103841846Y-167681307D01*
X103859766Y-167678447D01*
X103877944Y-167676052D01*
X103896380Y-167674120D01*
X103915073Y-167672651D01*
X103934024Y-167671647D01*
X103953232Y-167671106D01*
X103966181Y-167671003D01*
X103990183Y-167671413D01*
X104013556Y-167672646D01*
X104036299Y-167674699D01*
X104058413Y-167677574D01*
X104079897Y-167681271D01*
X104100751Y-167685789D01*
X104120975Y-167691128D01*
X104140570Y-167697289D01*
X104159535Y-167704272D01*
X104177870Y-167712076D01*
X104195576Y-167720701D01*
X104212652Y-167730148D01*
X104229098Y-167740416D01*
X104244915Y-167751505D01*
X104260102Y-167763417D01*
X104274659Y-167776149D01*
X104288457Y-167789574D01*
X104301364Y-167803564D01*
X104313381Y-167818116D01*
X104324508Y-167833233D01*
X104334744Y-167848914D01*
X104344091Y-167865159D01*
X104352547Y-167881967D01*
X104360114Y-167899339D01*
X104366790Y-167917275D01*
X104372576Y-167935775D01*
X104377472Y-167954839D01*
X104381477Y-167974467D01*
X104384593Y-167994658D01*
X104386818Y-168015414D01*
X104388154Y-168036733D01*
X104388599Y-168058616D01*
X104388367Y-168073415D01*
X104387671Y-168088137D01*
X104386512Y-168102782D01*
X104384889Y-168117349D01*
X104381585Y-168139055D01*
X104377238Y-168160587D01*
X104373761Y-168174845D01*
X104369820Y-168189026D01*
X104365415Y-168203130D01*
X104360546Y-168217156D01*
X104355214Y-168231105D01*
X104349418Y-168244977D01*
X104343158Y-168258771D01*
X104336435Y-168272488D01*
X104329248Y-168286128D01*
X104321574Y-168299684D01*
X104313391Y-168313239D01*
X104304698Y-168326795D01*
X104295496Y-168340350D01*
X104285785Y-168353906D01*
X104275564Y-168367461D01*
X104264833Y-168381017D01*
X104253593Y-168394572D01*
X104241844Y-168408128D01*
X104229585Y-168421683D01*
X104216817Y-168435239D01*
X104203539Y-168448794D01*
X104189752Y-168462349D01*
X104175455Y-168475905D01*
X104160648Y-168489460D01*
X104145333Y-168503016D01*
X103833190Y-168773026D01*
G37*
G36*
X105473770Y-167703243D02*
G01*
X105487325Y-167709105D01*
X105497217Y-167720095D01*
X105502977Y-167733710D01*
X105505438Y-167749491D01*
X105505643Y-167756366D01*
X105505643Y-168491659D01*
X105511505Y-168491659D01*
X105522130Y-168491659D01*
X105536971Y-168488888D01*
X105550208Y-168482500D01*
X105562802Y-168473707D01*
X105569391Y-168468211D01*
X105582259Y-168457953D01*
X105595532Y-168449916D01*
X105610023Y-168445130D01*
X105614820Y-168444764D01*
X105630375Y-168445485D01*
X105646861Y-168448150D01*
X105661560Y-168452778D01*
X105676169Y-168460472D01*
X105682597Y-168465280D01*
X105693497Y-168476569D01*
X105701282Y-168489918D01*
X105705953Y-168505329D01*
X105707486Y-168520503D01*
X105707510Y-168522800D01*
X105706753Y-168537924D01*
X105706045Y-168544049D01*
X105702992Y-168558713D01*
X105701282Y-168563832D01*
X105678567Y-168638204D01*
X105672763Y-168652372D01*
X105663916Y-168664349D01*
X105658051Y-168669345D01*
X105643936Y-168676107D01*
X105629270Y-168678889D01*
X105621048Y-168679237D01*
X105505643Y-168679237D01*
X105505643Y-168819921D01*
X105566460Y-168819921D01*
X105581478Y-168819921D01*
X105589907Y-168819921D01*
X105604566Y-168819921D01*
X105608592Y-168819921D01*
X105624237Y-168821183D01*
X105638795Y-168824970D01*
X105652267Y-168831281D01*
X105664651Y-168840117D01*
X105671240Y-168846299D01*
X105681375Y-168858541D01*
X105689021Y-168872185D01*
X105694178Y-168887232D01*
X105696845Y-168903681D01*
X105697252Y-168913710D01*
X105696509Y-168928601D01*
X105693659Y-168944675D01*
X105688670Y-168958792D01*
X105680147Y-168972786D01*
X105668714Y-168984117D01*
X105666844Y-168985518D01*
X105654049Y-168992988D01*
X105638473Y-168998913D01*
X105623368Y-169002670D01*
X105606330Y-169005353D01*
X105591310Y-169006727D01*
X105575052Y-169007414D01*
X105566460Y-169007500D01*
X105131585Y-169007500D01*
X105114641Y-169007156D01*
X105098979Y-169006126D01*
X105081205Y-169003872D01*
X105065434Y-169000544D01*
X105049153Y-168995135D01*
X105035758Y-168988180D01*
X105031934Y-168985518D01*
X105020514Y-168974568D01*
X105011899Y-168960954D01*
X105006747Y-168947164D01*
X105003656Y-168931416D01*
X105002625Y-168913710D01*
X105003350Y-168898494D01*
X105006132Y-168882076D01*
X105011000Y-168867668D01*
X105019318Y-168853398D01*
X105030475Y-168841862D01*
X105032301Y-168840437D01*
X105044944Y-168832718D01*
X105060345Y-168826596D01*
X105075284Y-168822714D01*
X105092137Y-168819941D01*
X105106997Y-168818521D01*
X105123083Y-168817812D01*
X105131585Y-168817723D01*
X105282161Y-168817723D01*
X105282161Y-168679237D01*
X104806987Y-168682901D01*
X104791523Y-168681291D01*
X104777407Y-168675801D01*
X104766320Y-168666414D01*
X104758394Y-168653140D01*
X104754043Y-168638142D01*
X104752453Y-168622257D01*
X104752398Y-168618421D01*
X104752398Y-168555406D01*
X104752661Y-168539400D01*
X104753606Y-168523126D01*
X104755490Y-168507389D01*
X104757894Y-168495689D01*
X104759213Y-168491659D01*
X104958295Y-168491659D01*
X105282161Y-168491659D01*
X105282161Y-167916467D01*
X104958295Y-168491659D01*
X104759213Y-168491659D01*
X104762790Y-168480734D01*
X104768743Y-168466537D01*
X104775325Y-168453271D01*
X104776945Y-168450259D01*
X105209987Y-167709471D01*
X105218179Y-167696404D01*
X105227659Y-167683850D01*
X105234900Y-167677231D01*
X105249359Y-167672031D01*
X105262377Y-167671003D01*
X105277297Y-167671003D01*
X105278131Y-167671003D01*
X105290221Y-167671003D01*
X105473770Y-167703243D01*
G37*
G36*
X106490797Y-168632342D02*
G01*
X106508666Y-168632829D01*
X106525865Y-168634287D01*
X106542394Y-168636718D01*
X106558254Y-168640122D01*
X106573443Y-168644498D01*
X106587963Y-168649846D01*
X106601814Y-168656167D01*
X106614994Y-168663461D01*
X106627505Y-168671726D01*
X106639346Y-168680964D01*
X106646868Y-168687663D01*
X106657475Y-168698267D01*
X106667038Y-168709469D01*
X106678166Y-168725337D01*
X106687440Y-168742270D01*
X106694859Y-168760268D01*
X106699206Y-168774465D01*
X106702510Y-168789261D01*
X106704770Y-168804656D01*
X106705987Y-168820649D01*
X106706219Y-168831645D01*
X106705697Y-168847848D01*
X106704132Y-168863484D01*
X106701524Y-168878554D01*
X106697873Y-168893056D01*
X106693178Y-168906993D01*
X106685295Y-168924693D01*
X106675558Y-168941385D01*
X106663966Y-168957070D01*
X106654055Y-168968173D01*
X106646868Y-168975259D01*
X106635473Y-168985211D01*
X106623409Y-168994184D01*
X106610675Y-169002179D01*
X106597271Y-169009194D01*
X106583198Y-169015230D01*
X106568455Y-169020288D01*
X106553041Y-169024367D01*
X106536959Y-169027466D01*
X106520206Y-169029587D01*
X106502784Y-169030729D01*
X106490797Y-169030947D01*
X106473314Y-169030457D01*
X106456450Y-169028989D01*
X106440204Y-169026542D01*
X106424576Y-169023116D01*
X106409567Y-169018711D01*
X106395176Y-169013327D01*
X106381403Y-169006964D01*
X106368248Y-168999623D01*
X106355711Y-168991302D01*
X106343793Y-168982003D01*
X106336191Y-168975259D01*
X106325519Y-168964535D01*
X106315896Y-168953243D01*
X106304699Y-168937306D01*
X106295369Y-168920362D01*
X106287904Y-168902410D01*
X106283530Y-168888285D01*
X106280206Y-168873593D01*
X106277932Y-168858335D01*
X106276707Y-168842510D01*
X106276474Y-168831645D01*
X106276999Y-168815442D01*
X106278573Y-168799805D01*
X106281197Y-168784736D01*
X106284871Y-168770233D01*
X106289595Y-168756297D01*
X106297526Y-168738597D01*
X106307324Y-168721904D01*
X106318987Y-168706219D01*
X106328960Y-168695117D01*
X106336191Y-168688030D01*
X106347697Y-168678078D01*
X106359822Y-168669105D01*
X106372564Y-168661111D01*
X106385925Y-168654095D01*
X106399904Y-168648059D01*
X106414501Y-168643001D01*
X106429717Y-168638923D01*
X106445551Y-168635823D01*
X106462003Y-168633702D01*
X106479073Y-168632560D01*
X106490797Y-168632342D01*
G37*
G36*
X107763611Y-167671182D02*
G01*
X107792477Y-167672613D01*
X107820578Y-167675475D01*
X107847915Y-167679768D01*
X107874488Y-167685493D01*
X107900296Y-167692648D01*
X107925341Y-167701235D01*
X107949621Y-167711253D01*
X107973137Y-167722702D01*
X107995889Y-167735581D01*
X108017876Y-167749893D01*
X108039100Y-167765635D01*
X108059559Y-167782808D01*
X108079254Y-167801413D01*
X108098185Y-167821448D01*
X108116351Y-167842915D01*
X108125148Y-167854185D01*
X108142006Y-167877548D01*
X108157777Y-167901932D01*
X108172460Y-167927339D01*
X108179394Y-167940425D01*
X108186056Y-167953767D01*
X108192446Y-167967365D01*
X108198564Y-167981217D01*
X108204410Y-167995326D01*
X108209984Y-168009689D01*
X108215286Y-168024308D01*
X108220317Y-168039183D01*
X108225075Y-168054313D01*
X108229562Y-168069699D01*
X108233776Y-168085340D01*
X108237719Y-168101236D01*
X108241390Y-168117388D01*
X108244789Y-168133795D01*
X108247916Y-168150458D01*
X108250771Y-168167376D01*
X108253354Y-168184550D01*
X108255665Y-168201979D01*
X108257704Y-168219664D01*
X108259472Y-168237604D01*
X108260967Y-168255799D01*
X108262191Y-168274250D01*
X108263143Y-168292956D01*
X108263822Y-168311918D01*
X108264230Y-168331136D01*
X108264366Y-168350608D01*
X108264230Y-168370127D01*
X108263822Y-168389389D01*
X108263143Y-168408394D01*
X108262191Y-168427144D01*
X108260967Y-168445638D01*
X108259472Y-168463875D01*
X108257704Y-168481856D01*
X108255665Y-168499581D01*
X108253354Y-168517050D01*
X108250771Y-168534263D01*
X108247916Y-168551219D01*
X108244789Y-168567920D01*
X108241390Y-168584364D01*
X108237719Y-168600552D01*
X108233776Y-168616484D01*
X108229562Y-168632159D01*
X108225075Y-168647579D01*
X108220317Y-168662742D01*
X108215286Y-168677649D01*
X108209984Y-168692300D01*
X108204410Y-168706695D01*
X108198564Y-168720834D01*
X108192446Y-168734716D01*
X108186056Y-168748343D01*
X108179394Y-168761713D01*
X108172460Y-168774827D01*
X108165255Y-168787685D01*
X108150028Y-168812632D01*
X108133713Y-168836554D01*
X108125148Y-168848131D01*
X108107363Y-168870269D01*
X108088815Y-168890978D01*
X108069502Y-168910260D01*
X108049425Y-168928113D01*
X108028584Y-168944538D01*
X108006978Y-168959534D01*
X107984608Y-168973103D01*
X107961475Y-168985243D01*
X107937576Y-168995955D01*
X107912914Y-169005238D01*
X107887488Y-169013094D01*
X107861297Y-169019521D01*
X107834342Y-169024520D01*
X107806623Y-169028090D01*
X107778139Y-169030233D01*
X107748892Y-169030947D01*
X107719916Y-169030233D01*
X107691699Y-169028090D01*
X107664240Y-169024520D01*
X107637540Y-169019521D01*
X107611598Y-169013094D01*
X107586415Y-169005238D01*
X107561990Y-168995955D01*
X107538324Y-168985243D01*
X107515416Y-168973103D01*
X107493267Y-168959534D01*
X107471876Y-168944538D01*
X107451244Y-168928113D01*
X107431370Y-168910260D01*
X107412254Y-168890978D01*
X107393898Y-168870269D01*
X107376299Y-168848131D01*
X107359663Y-168824721D01*
X107344099Y-168800286D01*
X107329609Y-168774827D01*
X107322767Y-168761713D01*
X107316193Y-168748343D01*
X107309887Y-168734716D01*
X107303849Y-168720834D01*
X107298080Y-168706695D01*
X107292579Y-168692300D01*
X107287347Y-168677649D01*
X107282383Y-168662742D01*
X107277687Y-168647579D01*
X107273259Y-168632159D01*
X107269100Y-168616484D01*
X107265209Y-168600552D01*
X107261587Y-168584364D01*
X107258233Y-168567920D01*
X107255147Y-168551219D01*
X107252329Y-168534263D01*
X107249780Y-168517050D01*
X107247499Y-168499581D01*
X107245487Y-168481856D01*
X107243743Y-168463875D01*
X107242267Y-168445638D01*
X107241059Y-168427144D01*
X107240120Y-168408394D01*
X107239449Y-168389389D01*
X107239047Y-168370127D01*
X107238913Y-168350608D01*
X107238926Y-168348777D01*
X107515151Y-168348777D01*
X107515396Y-168374750D01*
X107516130Y-168400005D01*
X107517354Y-168424541D01*
X107519067Y-168448359D01*
X107521269Y-168471458D01*
X107523961Y-168493840D01*
X107527143Y-168515502D01*
X107530813Y-168536447D01*
X107534974Y-168556673D01*
X107539623Y-168576180D01*
X107544762Y-168594969D01*
X107550391Y-168613040D01*
X107556509Y-168630392D01*
X107563116Y-168647026D01*
X107570213Y-168662941D01*
X107577800Y-168678138D01*
X107585861Y-168692468D01*
X107594292Y-168705873D01*
X107603092Y-168718354D01*
X107612261Y-168729910D01*
X107626707Y-168745511D01*
X107641983Y-168759032D01*
X107658091Y-168770472D01*
X107675029Y-168779833D01*
X107692798Y-168787113D01*
X107711398Y-168792313D01*
X107730829Y-168795434D01*
X107751090Y-168796474D01*
X107771354Y-168795434D01*
X107790795Y-168792313D01*
X107809410Y-168787113D01*
X107827202Y-168779833D01*
X107844169Y-168770472D01*
X107860312Y-168759032D01*
X107875631Y-168745511D01*
X107890125Y-168729910D01*
X107899330Y-168718354D01*
X107908169Y-168705873D01*
X107916641Y-168692468D01*
X107924747Y-168678138D01*
X107932422Y-168662941D01*
X107939601Y-168647026D01*
X107946286Y-168630392D01*
X107952476Y-168613040D01*
X107958170Y-168594969D01*
X107963369Y-168576180D01*
X107968073Y-168556673D01*
X107972282Y-168536447D01*
X107975996Y-168515502D01*
X107979215Y-168493840D01*
X107981938Y-168471458D01*
X107984166Y-168448359D01*
X107985899Y-168424541D01*
X107987137Y-168400005D01*
X107987880Y-168374750D01*
X107988128Y-168348777D01*
X107987880Y-168323205D01*
X107987137Y-168298333D01*
X107985899Y-168274158D01*
X107984166Y-168250683D01*
X107981938Y-168227905D01*
X107979215Y-168205826D01*
X107975996Y-168184445D01*
X107972282Y-168163763D01*
X107968073Y-168143779D01*
X107963369Y-168124493D01*
X107958170Y-168105906D01*
X107952476Y-168088017D01*
X107946286Y-168070826D01*
X107939601Y-168054334D01*
X107932422Y-168038540D01*
X107924747Y-168023445D01*
X107916641Y-168009160D01*
X107908169Y-167995796D01*
X107899330Y-167983354D01*
X107890125Y-167971834D01*
X107875631Y-167956281D01*
X107860312Y-167942802D01*
X107844169Y-167931397D01*
X107827202Y-167922065D01*
X107809410Y-167914807D01*
X107790795Y-167909623D01*
X107771354Y-167906513D01*
X107751090Y-167905476D01*
X107731022Y-167906513D01*
X107711759Y-167909623D01*
X107693301Y-167914807D01*
X107675647Y-167922065D01*
X107658799Y-167931397D01*
X107642756Y-167942802D01*
X107627518Y-167956281D01*
X107613085Y-167971834D01*
X107603910Y-167983354D01*
X107595093Y-167995796D01*
X107586634Y-168009160D01*
X107578532Y-168023445D01*
X107570857Y-168038540D01*
X107563677Y-168054334D01*
X107556993Y-168070826D01*
X107550803Y-168088017D01*
X107545109Y-168105906D01*
X107539909Y-168124493D01*
X107535205Y-168143779D01*
X107530997Y-168163763D01*
X107527283Y-168184445D01*
X107524064Y-168205826D01*
X107521341Y-168227905D01*
X107519113Y-168250683D01*
X107517380Y-168274158D01*
X107516142Y-168298333D01*
X107515399Y-168323205D01*
X107515151Y-168348777D01*
X107238926Y-168348777D01*
X107239047Y-168331068D01*
X107239449Y-168311787D01*
X107240120Y-168292763D01*
X107241059Y-168273998D01*
X107242267Y-168255491D01*
X107243743Y-168237243D01*
X107245487Y-168219253D01*
X107247499Y-168201521D01*
X107249780Y-168184048D01*
X107252329Y-168166832D01*
X107255147Y-168149875D01*
X107258233Y-168133177D01*
X107261587Y-168116737D01*
X107265209Y-168100555D01*
X107269100Y-168084631D01*
X107273259Y-168068966D01*
X107277687Y-168053559D01*
X107282383Y-168038410D01*
X107287347Y-168023520D01*
X107292579Y-168008888D01*
X107298080Y-167994514D01*
X107303849Y-167980399D01*
X107309887Y-167966542D01*
X107316193Y-167952943D01*
X107322767Y-167939602D01*
X107329609Y-167926520D01*
X107336720Y-167913696D01*
X107351747Y-167888824D01*
X107367847Y-167864984D01*
X107376299Y-167853452D01*
X107393898Y-167831359D01*
X107412254Y-167810690D01*
X107431370Y-167791448D01*
X107451244Y-167773630D01*
X107471876Y-167757238D01*
X107493267Y-167742272D01*
X107515416Y-167728731D01*
X107538324Y-167716615D01*
X107561990Y-167705925D01*
X107586415Y-167696660D01*
X107611598Y-167688820D01*
X107637540Y-167682406D01*
X107664240Y-167677417D01*
X107691699Y-167673853D01*
X107719916Y-167671715D01*
X107748892Y-167671003D01*
X107763611Y-167671182D01*
G37*
G36*
X109167821Y-168773026D02*
G01*
X109334883Y-168773026D01*
X109351506Y-168773456D01*
X109366939Y-168774744D01*
X109384556Y-168777561D01*
X109400313Y-168781720D01*
X109414209Y-168787221D01*
X109428429Y-168795593D01*
X109434534Y-168800504D01*
X109445117Y-168812057D01*
X109453510Y-168826109D01*
X109459714Y-168842660D01*
X109463211Y-168858361D01*
X109465188Y-168875797D01*
X109465675Y-168890996D01*
X109465205Y-168905851D01*
X109463298Y-168922922D01*
X109459924Y-168938330D01*
X109453940Y-168954623D01*
X109445842Y-168968520D01*
X109435633Y-168980022D01*
X109423049Y-168989360D01*
X109407554Y-168996766D01*
X109392419Y-169001462D01*
X109375261Y-169004816D01*
X109360080Y-169006534D01*
X109343605Y-169007392D01*
X109334883Y-169007500D01*
X108727084Y-169007500D01*
X108709957Y-169007070D01*
X108694112Y-169005782D01*
X108679549Y-169003636D01*
X108663148Y-168999745D01*
X108648751Y-168994512D01*
X108634119Y-168986462D01*
X108625968Y-168980022D01*
X108615758Y-168968520D01*
X108607661Y-168954623D01*
X108601676Y-168938330D01*
X108598302Y-168922922D01*
X108596395Y-168905851D01*
X108595926Y-168890996D01*
X108596401Y-168875797D01*
X108598331Y-168858361D01*
X108601746Y-168842660D01*
X108606646Y-168828694D01*
X108614486Y-168814226D01*
X108624463Y-168802256D01*
X108626334Y-168800504D01*
X108639141Y-168791166D01*
X108654756Y-168783760D01*
X108669913Y-168779064D01*
X108687020Y-168775710D01*
X108702110Y-168773992D01*
X108718448Y-168773134D01*
X108727084Y-168773026D01*
X108918693Y-168773026D01*
X108918693Y-167917566D01*
X108803288Y-167947608D01*
X108788969Y-167950850D01*
X108773435Y-167954105D01*
X108758958Y-167956767D01*
X108743754Y-167958965D01*
X108733312Y-167959698D01*
X108718170Y-167958757D01*
X108702164Y-167955284D01*
X108687946Y-167949251D01*
X108675517Y-167940658D01*
X108667733Y-167932953D01*
X108658740Y-167920165D01*
X108651955Y-167905204D01*
X108647898Y-167890649D01*
X108645464Y-167874498D01*
X108644675Y-167859818D01*
X108644652Y-167856749D01*
X108645880Y-167841442D01*
X108649561Y-167827257D01*
X108656774Y-167812419D01*
X108665715Y-167800638D01*
X108670298Y-167795933D01*
X108682993Y-167785595D01*
X108695967Y-167777626D01*
X108710874Y-167770482D01*
X108724772Y-167765158D01*
X108740011Y-167760407D01*
X108749799Y-167757831D01*
X109005155Y-167687489D01*
X109020382Y-167683711D01*
X109035815Y-167680063D01*
X109050856Y-167676757D01*
X109057545Y-167675399D01*
X109071953Y-167672720D01*
X109087211Y-167671110D01*
X109091617Y-167671003D01*
X109108447Y-167672072D01*
X109123032Y-167675280D01*
X109136954Y-167681566D01*
X109149113Y-167691976D01*
X109150235Y-167693351D01*
X109157929Y-167706448D01*
X109162857Y-167721064D01*
X109165743Y-167735936D01*
X109167391Y-167752972D01*
X109167821Y-167768822D01*
X109167821Y-168773026D01*
G37*
G36*
X110271676Y-168632342D02*
G01*
X110289545Y-168632829D01*
X110306744Y-168634287D01*
X110323273Y-168636718D01*
X110339133Y-168640122D01*
X110354323Y-168644498D01*
X110368843Y-168649846D01*
X110382693Y-168656167D01*
X110395874Y-168663461D01*
X110408384Y-168671726D01*
X110420225Y-168680964D01*
X110427747Y-168687663D01*
X110438354Y-168698267D01*
X110447917Y-168709469D01*
X110459046Y-168725337D01*
X110468319Y-168742270D01*
X110475738Y-168760268D01*
X110480085Y-168774465D01*
X110483389Y-168789261D01*
X110485649Y-168804656D01*
X110486866Y-168820649D01*
X110487098Y-168831645D01*
X110486577Y-168847848D01*
X110485012Y-168863484D01*
X110482403Y-168878554D01*
X110478752Y-168893056D01*
X110474057Y-168906993D01*
X110466175Y-168924693D01*
X110456437Y-168941385D01*
X110444845Y-168957070D01*
X110434934Y-168968173D01*
X110427747Y-168975259D01*
X110416353Y-168985211D01*
X110404288Y-168994184D01*
X110391554Y-169002179D01*
X110378151Y-169009194D01*
X110364077Y-169015230D01*
X110349334Y-169020288D01*
X110333921Y-169024367D01*
X110317838Y-169027466D01*
X110301085Y-169029587D01*
X110283663Y-169030729D01*
X110271676Y-169030947D01*
X110254194Y-169030457D01*
X110237329Y-169028989D01*
X110221083Y-169026542D01*
X110205456Y-169023116D01*
X110190446Y-169018711D01*
X110176055Y-169013327D01*
X110162282Y-169006964D01*
X110149127Y-168999623D01*
X110136591Y-168991302D01*
X110124672Y-168982003D01*
X110117070Y-168975259D01*
X110106398Y-168964535D01*
X110096776Y-168953243D01*
X110085579Y-168937306D01*
X110076248Y-168920362D01*
X110068783Y-168902410D01*
X110064409Y-168888285D01*
X110061085Y-168873593D01*
X110058811Y-168858335D01*
X110057586Y-168842510D01*
X110057353Y-168831645D01*
X110057878Y-168815442D01*
X110059452Y-168799805D01*
X110062077Y-168784736D01*
X110065751Y-168770233D01*
X110070474Y-168756297D01*
X110078406Y-168738597D01*
X110088203Y-168721904D01*
X110099867Y-168706219D01*
X110109839Y-168695117D01*
X110117070Y-168688030D01*
X110128576Y-168678078D01*
X110140701Y-168669105D01*
X110153443Y-168661111D01*
X110166804Y-168654095D01*
X110180783Y-168648059D01*
X110195381Y-168643001D01*
X110210596Y-168638923D01*
X110226430Y-168635823D01*
X110242882Y-168633702D01*
X110259952Y-168632560D01*
X110271676Y-168632342D01*
G37*
G36*
X111394949Y-168773026D02*
G01*
X111755451Y-168773026D01*
X111755451Y-168766432D01*
X111756140Y-168749718D01*
X111758206Y-168734382D01*
X111762504Y-168717797D01*
X111768785Y-168703195D01*
X111777050Y-168690577D01*
X111783661Y-168683267D01*
X111795331Y-168673929D01*
X111808906Y-168666523D01*
X111824388Y-168661049D01*
X111838746Y-168657963D01*
X111854427Y-168656219D01*
X111867925Y-168655790D01*
X111884227Y-168656704D01*
X111899060Y-168659448D01*
X111914510Y-168664960D01*
X111927962Y-168672962D01*
X111937901Y-168681802D01*
X111947608Y-168694216D01*
X111954931Y-168708699D01*
X111959310Y-168722760D01*
X111961938Y-168738341D01*
X111962814Y-168755441D01*
X111962814Y-168768996D01*
X111954387Y-168933494D01*
X111953189Y-168950504D01*
X111950848Y-168967159D01*
X111946926Y-168981985D01*
X111939366Y-168995043D01*
X111925622Y-169003108D01*
X111910524Y-169006514D01*
X111895612Y-169007487D01*
X111893571Y-169007500D01*
X111152782Y-169007500D01*
X111134782Y-169006873D01*
X111118106Y-169004995D01*
X111102754Y-169001865D01*
X111088726Y-168997482D01*
X111073639Y-168990569D01*
X111060458Y-168981854D01*
X111049502Y-168971477D01*
X111040812Y-168959580D01*
X111034389Y-168946164D01*
X111030233Y-168931227D01*
X111028344Y-168914771D01*
X111028218Y-168908948D01*
X111029165Y-168892027D01*
X111032005Y-168875248D01*
X111035946Y-168860977D01*
X111041279Y-168846809D01*
X111048002Y-168832744D01*
X111056408Y-168818563D01*
X111066515Y-168804047D01*
X111076236Y-168791695D01*
X111087137Y-168779110D01*
X111099219Y-168766293D01*
X111109735Y-168755871D01*
X111112482Y-168753243D01*
X111531969Y-168350242D01*
X111544440Y-168337946D01*
X111556299Y-168325650D01*
X111567547Y-168313354D01*
X111578183Y-168301058D01*
X111588206Y-168288761D01*
X111597618Y-168276465D01*
X111606419Y-168264169D01*
X111614607Y-168251873D01*
X111624573Y-168235478D01*
X111633452Y-168219084D01*
X111641266Y-168202689D01*
X111648038Y-168186294D01*
X111653768Y-168169899D01*
X111658456Y-168153504D01*
X111662103Y-168137110D01*
X111664707Y-168120715D01*
X111666270Y-168104320D01*
X111666791Y-168087925D01*
X111666398Y-168071030D01*
X111665220Y-168054965D01*
X111663256Y-168039731D01*
X111660506Y-168025328D01*
X111655617Y-168007417D01*
X111649332Y-167990982D01*
X111641649Y-167976024D01*
X111632570Y-167962543D01*
X111622095Y-167950539D01*
X111610182Y-167939977D01*
X111596793Y-167930824D01*
X111581926Y-167923078D01*
X111565583Y-167916741D01*
X111547763Y-167911813D01*
X111528466Y-167908292D01*
X111513024Y-167906576D01*
X111496751Y-167905652D01*
X111485441Y-167905476D01*
X111469012Y-167905869D01*
X111453155Y-167907050D01*
X111437871Y-167909018D01*
X111423159Y-167911773D01*
X111406260Y-167916118D01*
X111390186Y-167921596D01*
X111375194Y-167928104D01*
X111361541Y-167935541D01*
X111349228Y-167943904D01*
X111336555Y-167954833D01*
X111325706Y-167967025D01*
X111316745Y-167978918D01*
X111308447Y-167991354D01*
X111300341Y-168004451D01*
X111296031Y-168011721D01*
X111286667Y-168026256D01*
X111277123Y-168039362D01*
X111267398Y-168051038D01*
X111254152Y-168064381D01*
X111240585Y-168075183D01*
X111226698Y-168083444D01*
X111212489Y-168089162D01*
X111197961Y-168092339D01*
X111186854Y-168093054D01*
X111171328Y-168092205D01*
X111154327Y-168088942D01*
X111139102Y-168083231D01*
X111125656Y-168075074D01*
X111113987Y-168064470D01*
X111108818Y-168058250D01*
X111099978Y-168043888D01*
X111094009Y-168030130D01*
X111089310Y-168014744D01*
X111085880Y-167997730D01*
X111084051Y-167982946D01*
X111083035Y-167967121D01*
X111082807Y-167954569D01*
X111083064Y-167937367D01*
X111083837Y-167921298D01*
X111085125Y-167906363D01*
X111087459Y-167889288D01*
X111090599Y-167873984D01*
X111095429Y-167857957D01*
X111099293Y-167848689D01*
X111106635Y-167835625D01*
X111116295Y-167822534D01*
X111126116Y-167811606D01*
X111137547Y-167800660D01*
X111150588Y-167789696D01*
X111165239Y-167778714D01*
X111180360Y-167768661D01*
X111195635Y-167759110D01*
X111211066Y-167750062D01*
X111226650Y-167741516D01*
X111242390Y-167733473D01*
X111258284Y-167725932D01*
X111274332Y-167718893D01*
X111290535Y-167712356D01*
X111306893Y-167706322D01*
X111323405Y-167700790D01*
X111334499Y-167697381D01*
X111351389Y-167692667D01*
X111368536Y-167688416D01*
X111385941Y-167684630D01*
X111403604Y-167681307D01*
X111421525Y-167678447D01*
X111439703Y-167676052D01*
X111458138Y-167674120D01*
X111476831Y-167672651D01*
X111495782Y-167671647D01*
X111514990Y-167671106D01*
X111527939Y-167671003D01*
X111551942Y-167671413D01*
X111575315Y-167672646D01*
X111598058Y-167674699D01*
X111620171Y-167677574D01*
X111641655Y-167681271D01*
X111662509Y-167685789D01*
X111682734Y-167691128D01*
X111702329Y-167697289D01*
X111721294Y-167704272D01*
X111739629Y-167712076D01*
X111757335Y-167720701D01*
X111774411Y-167730148D01*
X111790857Y-167740416D01*
X111806674Y-167751505D01*
X111821861Y-167763417D01*
X111836418Y-167776149D01*
X111850215Y-167789574D01*
X111863122Y-167803564D01*
X111875139Y-167818116D01*
X111886266Y-167833233D01*
X111896503Y-167848914D01*
X111905850Y-167865159D01*
X111914306Y-167881967D01*
X111921872Y-167899339D01*
X111928548Y-167917275D01*
X111934334Y-167935775D01*
X111939230Y-167954839D01*
X111943236Y-167974467D01*
X111946351Y-167994658D01*
X111948577Y-168015414D01*
X111949912Y-168036733D01*
X111950357Y-168058616D01*
X111950125Y-168073415D01*
X111949430Y-168088137D01*
X111948271Y-168102782D01*
X111946648Y-168117349D01*
X111943344Y-168139055D01*
X111938997Y-168160587D01*
X111935519Y-168174845D01*
X111931578Y-168189026D01*
X111927173Y-168203130D01*
X111922305Y-168217156D01*
X111916972Y-168231105D01*
X111911176Y-168244977D01*
X111904917Y-168258771D01*
X111898193Y-168272488D01*
X111891006Y-168286128D01*
X111883333Y-168299684D01*
X111875149Y-168313239D01*
X111866457Y-168326795D01*
X111857255Y-168340350D01*
X111847543Y-168353906D01*
X111837322Y-168367461D01*
X111826592Y-168381017D01*
X111815352Y-168394572D01*
X111803602Y-168408128D01*
X111791344Y-168421683D01*
X111778575Y-168435239D01*
X111765297Y-168448794D01*
X111751510Y-168462349D01*
X111737213Y-168475905D01*
X111722407Y-168489460D01*
X111707091Y-168503016D01*
X111394949Y-168773026D01*
G37*
G36*
X112804783Y-167671182D02*
G01*
X112833649Y-167672613D01*
X112861750Y-167675475D01*
X112889087Y-167679768D01*
X112915660Y-167685493D01*
X112941469Y-167692648D01*
X112966513Y-167701235D01*
X112990793Y-167711253D01*
X113014309Y-167722702D01*
X113037061Y-167735581D01*
X113059049Y-167749893D01*
X113080272Y-167765635D01*
X113100731Y-167782808D01*
X113120426Y-167801413D01*
X113139357Y-167821448D01*
X113157523Y-167842915D01*
X113166320Y-167854185D01*
X113183179Y-167877548D01*
X113198949Y-167901932D01*
X113213633Y-167927339D01*
X113220566Y-167940425D01*
X113227228Y-167953767D01*
X113233618Y-167967365D01*
X113239736Y-167981217D01*
X113245582Y-167995326D01*
X113251156Y-168009689D01*
X113256459Y-168024308D01*
X113261489Y-168039183D01*
X113266247Y-168054313D01*
X113270734Y-168069699D01*
X113274949Y-168085340D01*
X113278891Y-168101236D01*
X113282562Y-168117388D01*
X113285961Y-168133795D01*
X113289088Y-168150458D01*
X113291943Y-168167376D01*
X113294526Y-168184550D01*
X113296837Y-168201979D01*
X113298877Y-168219664D01*
X113300644Y-168237604D01*
X113302140Y-168255799D01*
X113303363Y-168274250D01*
X113304315Y-168292956D01*
X113304995Y-168311918D01*
X113305403Y-168331136D01*
X113305539Y-168350608D01*
X113305403Y-168370127D01*
X113304995Y-168389389D01*
X113304315Y-168408394D01*
X113303363Y-168427144D01*
X113302140Y-168445638D01*
X113300644Y-168463875D01*
X113298877Y-168481856D01*
X113296837Y-168499581D01*
X113294526Y-168517050D01*
X113291943Y-168534263D01*
X113289088Y-168551219D01*
X113285961Y-168567920D01*
X113282562Y-168584364D01*
X113278891Y-168600552D01*
X113274949Y-168616484D01*
X113270734Y-168632159D01*
X113266247Y-168647579D01*
X113261489Y-168662742D01*
X113256459Y-168677649D01*
X113251156Y-168692300D01*
X113245582Y-168706695D01*
X113239736Y-168720834D01*
X113233618Y-168734716D01*
X113227228Y-168748343D01*
X113220566Y-168761713D01*
X113213633Y-168774827D01*
X113206427Y-168787685D01*
X113191200Y-168812632D01*
X113174885Y-168836554D01*
X113166320Y-168848131D01*
X113148536Y-168870269D01*
X113129987Y-168890978D01*
X113110674Y-168910260D01*
X113090597Y-168928113D01*
X113069756Y-168944538D01*
X113048151Y-168959534D01*
X113025781Y-168973103D01*
X113002647Y-168985243D01*
X112978749Y-168995955D01*
X112954086Y-169005238D01*
X112928660Y-169013094D01*
X112902469Y-169019521D01*
X112875514Y-169024520D01*
X112847795Y-169028090D01*
X112819312Y-169030233D01*
X112790064Y-169030947D01*
X112761088Y-169030233D01*
X112732871Y-169028090D01*
X112705412Y-169024520D01*
X112678712Y-169019521D01*
X112652770Y-169013094D01*
X112627587Y-169005238D01*
X112603162Y-168995955D01*
X112579496Y-168985243D01*
X112556588Y-168973103D01*
X112534439Y-168959534D01*
X112513048Y-168944538D01*
X112492416Y-168928113D01*
X112472542Y-168910260D01*
X112453427Y-168890978D01*
X112435070Y-168870269D01*
X112417472Y-168848131D01*
X112400835Y-168824721D01*
X112385272Y-168800286D01*
X112370782Y-168774827D01*
X112363939Y-168761713D01*
X112357365Y-168748343D01*
X112351059Y-168734716D01*
X112345022Y-168720834D01*
X112339252Y-168706695D01*
X112333752Y-168692300D01*
X112328519Y-168677649D01*
X112323555Y-168662742D01*
X112318859Y-168647579D01*
X112314432Y-168632159D01*
X112310272Y-168616484D01*
X112306382Y-168600552D01*
X112302759Y-168584364D01*
X112299405Y-168567920D01*
X112296319Y-168551219D01*
X112293502Y-168534263D01*
X112290952Y-168517050D01*
X112288672Y-168499581D01*
X112286659Y-168481856D01*
X112284915Y-168463875D01*
X112283439Y-168445638D01*
X112282232Y-168427144D01*
X112281292Y-168408394D01*
X112280622Y-168389389D01*
X112280219Y-168370127D01*
X112280085Y-168350608D01*
X112280098Y-168348777D01*
X112556324Y-168348777D01*
X112556568Y-168374750D01*
X112557303Y-168400005D01*
X112558526Y-168424541D01*
X112560239Y-168448359D01*
X112562442Y-168471458D01*
X112565134Y-168493840D01*
X112568315Y-168515502D01*
X112571986Y-168536447D01*
X112576146Y-168556673D01*
X112580796Y-168576180D01*
X112585935Y-168594969D01*
X112591563Y-168613040D01*
X112597681Y-168630392D01*
X112604289Y-168647026D01*
X112611386Y-168662941D01*
X112618972Y-168678138D01*
X112627033Y-168692468D01*
X112635464Y-168705873D01*
X112644264Y-168718354D01*
X112653433Y-168729910D01*
X112667879Y-168745511D01*
X112683156Y-168759032D01*
X112699263Y-168770472D01*
X112716202Y-168779833D01*
X112733971Y-168787113D01*
X112752570Y-168792313D01*
X112772001Y-168795434D01*
X112792262Y-168796474D01*
X112812527Y-168795434D01*
X112831967Y-168792313D01*
X112850583Y-168787113D01*
X112868374Y-168779833D01*
X112885342Y-168770472D01*
X112901485Y-168759032D01*
X112916803Y-168745511D01*
X112931297Y-168729910D01*
X112940502Y-168718354D01*
X112949341Y-168705873D01*
X112957813Y-168692468D01*
X112965919Y-168678138D01*
X112973594Y-168662941D01*
X112980774Y-168647026D01*
X112987459Y-168630392D01*
X112993648Y-168613040D01*
X112999342Y-168594969D01*
X113004542Y-168576180D01*
X113009246Y-168556673D01*
X113013455Y-168536447D01*
X113017168Y-168515502D01*
X113020387Y-168493840D01*
X113023110Y-168471458D01*
X113025339Y-168448359D01*
X113027072Y-168424541D01*
X113028310Y-168400005D01*
X113029052Y-168374750D01*
X113029300Y-168348777D01*
X113029052Y-168323205D01*
X113028310Y-168298333D01*
X113027072Y-168274158D01*
X113025339Y-168250683D01*
X113023110Y-168227905D01*
X113020387Y-168205826D01*
X113017168Y-168184445D01*
X113013455Y-168163763D01*
X113009246Y-168143779D01*
X113004542Y-168124493D01*
X112999342Y-168105906D01*
X112993648Y-168088017D01*
X112987459Y-168070826D01*
X112980774Y-168054334D01*
X112973594Y-168038540D01*
X112965919Y-168023445D01*
X112957813Y-168009160D01*
X112949341Y-167995796D01*
X112940502Y-167983354D01*
X112931297Y-167971834D01*
X112916803Y-167956281D01*
X112901485Y-167942802D01*
X112885342Y-167931397D01*
X112868374Y-167922065D01*
X112850583Y-167914807D01*
X112831967Y-167909623D01*
X112812527Y-167906513D01*
X112792262Y-167905476D01*
X112772194Y-167906513D01*
X112752931Y-167909623D01*
X112734473Y-167914807D01*
X112716820Y-167922065D01*
X112699972Y-167931397D01*
X112683929Y-167942802D01*
X112668691Y-167956281D01*
X112654257Y-167971834D01*
X112645083Y-167983354D01*
X112636265Y-167995796D01*
X112627806Y-168009160D01*
X112619705Y-168023445D01*
X112612030Y-168038540D01*
X112604850Y-168054334D01*
X112598165Y-168070826D01*
X112591975Y-168088017D01*
X112586281Y-168105906D01*
X112581082Y-168124493D01*
X112576378Y-168143779D01*
X112572169Y-168163763D01*
X112568455Y-168184445D01*
X112565237Y-168205826D01*
X112562513Y-168227905D01*
X112560285Y-168250683D01*
X112558552Y-168274158D01*
X112557314Y-168298333D01*
X112556571Y-168323205D01*
X112556324Y-168348777D01*
X112280098Y-168348777D01*
X112280219Y-168331068D01*
X112280622Y-168311787D01*
X112281292Y-168292763D01*
X112282232Y-168273998D01*
X112283439Y-168255491D01*
X112284915Y-168237243D01*
X112286659Y-168219253D01*
X112288672Y-168201521D01*
X112290952Y-168184048D01*
X112293502Y-168166832D01*
X112296319Y-168149875D01*
X112299405Y-168133177D01*
X112302759Y-168116737D01*
X112306382Y-168100555D01*
X112310272Y-168084631D01*
X112314432Y-168068966D01*
X112318859Y-168053559D01*
X112323555Y-168038410D01*
X112328519Y-168023520D01*
X112333752Y-168008888D01*
X112339252Y-167994514D01*
X112345022Y-167980399D01*
X112351059Y-167966542D01*
X112357365Y-167952943D01*
X112363939Y-167939602D01*
X112370782Y-167926520D01*
X112377892Y-167913696D01*
X112392919Y-167888824D01*
X112409019Y-167864984D01*
X112417472Y-167853452D01*
X112435070Y-167831359D01*
X112453427Y-167810690D01*
X112472542Y-167791448D01*
X112492416Y-167773630D01*
X112513048Y-167757238D01*
X112534439Y-167742272D01*
X112556588Y-167728731D01*
X112579496Y-167716615D01*
X112603162Y-167705925D01*
X112627587Y-167696660D01*
X112652770Y-167688820D01*
X112678712Y-167682406D01*
X112705412Y-167677417D01*
X112732871Y-167673853D01*
X112761088Y-167671715D01*
X112790064Y-167671003D01*
X112804783Y-167671182D01*
G37*
G36*
X113915535Y-168773026D02*
G01*
X114276038Y-168773026D01*
X114276038Y-168766432D01*
X114276726Y-168749718D01*
X114278792Y-168734382D01*
X114283090Y-168717797D01*
X114289371Y-168703195D01*
X114297636Y-168690577D01*
X114304248Y-168683267D01*
X114315917Y-168673929D01*
X114329492Y-168666523D01*
X114344974Y-168661049D01*
X114359332Y-168657963D01*
X114375013Y-168656219D01*
X114388511Y-168655790D01*
X114404813Y-168656704D01*
X114419647Y-168659448D01*
X114435097Y-168664960D01*
X114448548Y-168672962D01*
X114458487Y-168681802D01*
X114468194Y-168694216D01*
X114475517Y-168708699D01*
X114479896Y-168722760D01*
X114482524Y-168738341D01*
X114483400Y-168755441D01*
X114483400Y-168768996D01*
X114474973Y-168933494D01*
X114473775Y-168950504D01*
X114471434Y-168967159D01*
X114467513Y-168981985D01*
X114459952Y-168995043D01*
X114446208Y-169003108D01*
X114431110Y-169006514D01*
X114416198Y-169007487D01*
X114414157Y-169007500D01*
X113673368Y-169007500D01*
X113655369Y-169006873D01*
X113638693Y-169004995D01*
X113623340Y-169001865D01*
X113609312Y-168997482D01*
X113594225Y-168990569D01*
X113581045Y-168981854D01*
X113570088Y-168971477D01*
X113561398Y-168959580D01*
X113554975Y-168946164D01*
X113550819Y-168931227D01*
X113548930Y-168914771D01*
X113548804Y-168908948D01*
X113549751Y-168892027D01*
X113552591Y-168875248D01*
X113556532Y-168860977D01*
X113561865Y-168846809D01*
X113568588Y-168832744D01*
X113576994Y-168818563D01*
X113587101Y-168804047D01*
X113596822Y-168791695D01*
X113607723Y-168779110D01*
X113619805Y-168766293D01*
X113630321Y-168755871D01*
X113633068Y-168753243D01*
X114052555Y-168350242D01*
X114065026Y-168337946D01*
X114076886Y-168325650D01*
X114088133Y-168313354D01*
X114098769Y-168301058D01*
X114108793Y-168288761D01*
X114118205Y-168276465D01*
X114127005Y-168264169D01*
X114135193Y-168251873D01*
X114145160Y-168235478D01*
X114154038Y-168219084D01*
X114161852Y-168202689D01*
X114168624Y-168186294D01*
X114174354Y-168169899D01*
X114179043Y-168153504D01*
X114182689Y-168137110D01*
X114185294Y-168120715D01*
X114186856Y-168104320D01*
X114187377Y-168087925D01*
X114186985Y-168071030D01*
X114185806Y-168054965D01*
X114183842Y-168039731D01*
X114181092Y-168025328D01*
X114176203Y-168007417D01*
X114169918Y-167990982D01*
X114162236Y-167976024D01*
X114153157Y-167962543D01*
X114142681Y-167950539D01*
X114130768Y-167939977D01*
X114117379Y-167930824D01*
X114102513Y-167923078D01*
X114086169Y-167916741D01*
X114068349Y-167911813D01*
X114049052Y-167908292D01*
X114033610Y-167906576D01*
X114017337Y-167905652D01*
X114006027Y-167905476D01*
X113989598Y-167905869D01*
X113973741Y-167907050D01*
X113958457Y-167909018D01*
X113943745Y-167911773D01*
X113926847Y-167916118D01*
X113910772Y-167921596D01*
X113895780Y-167928104D01*
X113882127Y-167935541D01*
X113869814Y-167943904D01*
X113857141Y-167954833D01*
X113846292Y-167967025D01*
X113837331Y-167978918D01*
X113829033Y-167991354D01*
X113820927Y-168004451D01*
X113816617Y-168011721D01*
X113807253Y-168026256D01*
X113797709Y-168039362D01*
X113787985Y-168051038D01*
X113774738Y-168064381D01*
X113761171Y-168075183D01*
X113747284Y-168083444D01*
X113733076Y-168089162D01*
X113718547Y-168092339D01*
X113707440Y-168093054D01*
X113691914Y-168092205D01*
X113674913Y-168088942D01*
X113659689Y-168083231D01*
X113646242Y-168075074D01*
X113634573Y-168064470D01*
X113629405Y-168058250D01*
X113620565Y-168043888D01*
X113614595Y-168030130D01*
X113609896Y-168014744D01*
X113606466Y-167997730D01*
X113604637Y-167982946D01*
X113603621Y-167967121D01*
X113603393Y-167954569D01*
X113603650Y-167937367D01*
X113604423Y-167921298D01*
X113605711Y-167906363D01*
X113608046Y-167889288D01*
X113611185Y-167873984D01*
X113616015Y-167857957D01*
X113619879Y-167848689D01*
X113627221Y-167835625D01*
X113636881Y-167822534D01*
X113646702Y-167811606D01*
X113658133Y-167800660D01*
X113671174Y-167789696D01*
X113685825Y-167778714D01*
X113700946Y-167768661D01*
X113716221Y-167759110D01*
X113731652Y-167750062D01*
X113747237Y-167741516D01*
X113762976Y-167733473D01*
X113778870Y-167725932D01*
X113794918Y-167718893D01*
X113811121Y-167712356D01*
X113827479Y-167706322D01*
X113843991Y-167700790D01*
X113855085Y-167697381D01*
X113871975Y-167692667D01*
X113889123Y-167688416D01*
X113906528Y-167684630D01*
X113924190Y-167681307D01*
X113942111Y-167678447D01*
X113960289Y-167676052D01*
X113978724Y-167674120D01*
X113997418Y-167672651D01*
X114016368Y-167671647D01*
X114035577Y-167671106D01*
X114048525Y-167671003D01*
X114072528Y-167671413D01*
X114095901Y-167672646D01*
X114118644Y-167674699D01*
X114140758Y-167677574D01*
X114162241Y-167681271D01*
X114183095Y-167685789D01*
X114203320Y-167691128D01*
X114222915Y-167697289D01*
X114241880Y-167704272D01*
X114260215Y-167712076D01*
X114277921Y-167720701D01*
X114294997Y-167730148D01*
X114311443Y-167740416D01*
X114327260Y-167751505D01*
X114342447Y-167763417D01*
X114357004Y-167776149D01*
X114370801Y-167789574D01*
X114383709Y-167803564D01*
X114395726Y-167818116D01*
X114406852Y-167833233D01*
X114417089Y-167848914D01*
X114426436Y-167865159D01*
X114434892Y-167881967D01*
X114442459Y-167899339D01*
X114449135Y-167917275D01*
X114454921Y-167935775D01*
X114459816Y-167954839D01*
X114463822Y-167974467D01*
X114466938Y-167994658D01*
X114469163Y-168015414D01*
X114470498Y-168036733D01*
X114470943Y-168058616D01*
X114470711Y-168073415D01*
X114470016Y-168088137D01*
X114468857Y-168102782D01*
X114467234Y-168117349D01*
X114463930Y-168139055D01*
X114459583Y-168160587D01*
X114456106Y-168174845D01*
X114452164Y-168189026D01*
X114447759Y-168203130D01*
X114442891Y-168217156D01*
X114437558Y-168231105D01*
X114431762Y-168244977D01*
X114425503Y-168258771D01*
X114418779Y-168272488D01*
X114411592Y-168286128D01*
X114403919Y-168299684D01*
X114395736Y-168313239D01*
X114387043Y-168326795D01*
X114377841Y-168340350D01*
X114368129Y-168353906D01*
X114357908Y-168367461D01*
X114347178Y-168381017D01*
X114335938Y-168394572D01*
X114324189Y-168408128D01*
X114311930Y-168421683D01*
X114299161Y-168435239D01*
X114285884Y-168448794D01*
X114272096Y-168462349D01*
X114257799Y-168475905D01*
X114242993Y-168489460D01*
X114227677Y-168503016D01*
X113915535Y-168773026D01*
G37*
G36*
X115125270Y-167928923D02*
G01*
X115125270Y-168154603D01*
X115141836Y-168149909D01*
X115158014Y-168145536D01*
X115173802Y-168141483D01*
X115189200Y-168137751D01*
X115204210Y-168134339D01*
X115218830Y-168131248D01*
X115236558Y-168127835D01*
X115246903Y-168126027D01*
X115263783Y-168123283D01*
X115280305Y-168121004D01*
X115296469Y-168119190D01*
X115312276Y-168117841D01*
X115327725Y-168116957D01*
X115342816Y-168116539D01*
X115348752Y-168116502D01*
X115371691Y-168116985D01*
X115394073Y-168118436D01*
X115415896Y-168120855D01*
X115437160Y-168124241D01*
X115457867Y-168128594D01*
X115478016Y-168133915D01*
X115497606Y-168140204D01*
X115516639Y-168147459D01*
X115535113Y-168155683D01*
X115553029Y-168164873D01*
X115570387Y-168175031D01*
X115587187Y-168186157D01*
X115603428Y-168198249D01*
X115619112Y-168211310D01*
X115634237Y-168225338D01*
X115648804Y-168240333D01*
X115662646Y-168256069D01*
X115675595Y-168272412D01*
X115687651Y-168289363D01*
X115698813Y-168306919D01*
X115709083Y-168325083D01*
X115718459Y-168343854D01*
X115726943Y-168363231D01*
X115734534Y-168383215D01*
X115741231Y-168403806D01*
X115747036Y-168425003D01*
X115751947Y-168446808D01*
X115755966Y-168469219D01*
X115759092Y-168492237D01*
X115761324Y-168515862D01*
X115762664Y-168540093D01*
X115763110Y-168564931D01*
X115762562Y-168592904D01*
X115760918Y-168620035D01*
X115758177Y-168646324D01*
X115754340Y-168671772D01*
X115749407Y-168696379D01*
X115743378Y-168720144D01*
X115736252Y-168743068D01*
X115728031Y-168765150D01*
X115718713Y-168786390D01*
X115708299Y-168806789D01*
X115696788Y-168826347D01*
X115684182Y-168845063D01*
X115670479Y-168862937D01*
X115655680Y-168879970D01*
X115639784Y-168896162D01*
X115622793Y-168911512D01*
X115604804Y-168925975D01*
X115585824Y-168939505D01*
X115565854Y-168952101D01*
X115544894Y-168963765D01*
X115522944Y-168974495D01*
X115500003Y-168984293D01*
X115476072Y-168993157D01*
X115451151Y-169001088D01*
X115425239Y-169008086D01*
X115398337Y-169014151D01*
X115370445Y-169019283D01*
X115341562Y-169023482D01*
X115326750Y-169025232D01*
X115311689Y-169026748D01*
X115296381Y-169028031D01*
X115280826Y-169029081D01*
X115265023Y-169029897D01*
X115248972Y-169030480D01*
X115232674Y-169030830D01*
X115216128Y-169030947D01*
X115192493Y-169030778D01*
X115169583Y-169030271D01*
X115147396Y-169029427D01*
X115125934Y-169028245D01*
X115105196Y-169026725D01*
X115085182Y-169024867D01*
X115065892Y-169022672D01*
X115047326Y-169020139D01*
X115029484Y-169017268D01*
X115012367Y-169014060D01*
X114995973Y-169010513D01*
X114980304Y-169006629D01*
X114965359Y-169002408D01*
X114951138Y-168997848D01*
X114931164Y-168990376D01*
X114924869Y-168987716D01*
X114907125Y-168979177D01*
X114891127Y-168969911D01*
X114876875Y-168959918D01*
X114864367Y-168949196D01*
X114853605Y-168937747D01*
X114844588Y-168925570D01*
X114837316Y-168912665D01*
X114831789Y-168899033D01*
X114828008Y-168884673D01*
X114825972Y-168869585D01*
X114825584Y-168859122D01*
X114826434Y-168843584D01*
X114828983Y-168828797D01*
X114833231Y-168814761D01*
X114840573Y-168798910D01*
X114848560Y-168786527D01*
X114858247Y-168774896D01*
X114860389Y-168772660D01*
X114871701Y-168762317D01*
X114883658Y-168753726D01*
X114898857Y-168745732D01*
X114914983Y-168740263D01*
X114932036Y-168737317D01*
X114943920Y-168736756D01*
X114960376Y-168738194D01*
X114976188Y-168740981D01*
X114991272Y-168744267D01*
X115008520Y-168748491D01*
X115022876Y-168752276D01*
X115038449Y-168756589D01*
X115055239Y-168761429D01*
X115073246Y-168766798D01*
X115091614Y-168772102D01*
X115109486Y-168776883D01*
X115126862Y-168781143D01*
X115143743Y-168784882D01*
X115160127Y-168788098D01*
X115176016Y-168790794D01*
X115191408Y-168792967D01*
X115206305Y-168794619D01*
X115225396Y-168796010D01*
X115243606Y-168796474D01*
X115264986Y-168795968D01*
X115285440Y-168794452D01*
X115304966Y-168791924D01*
X115323565Y-168788385D01*
X115341236Y-168783835D01*
X115357980Y-168778274D01*
X115373797Y-168771702D01*
X115388686Y-168764119D01*
X115402648Y-168755525D01*
X115415682Y-168745920D01*
X115423857Y-168738954D01*
X115435315Y-168727679D01*
X115445645Y-168715560D01*
X115454849Y-168702597D01*
X115462926Y-168688791D01*
X115469876Y-168674141D01*
X115475699Y-168658648D01*
X115480395Y-168642311D01*
X115483963Y-168625130D01*
X115486405Y-168607105D01*
X115487720Y-168588237D01*
X115487971Y-168575190D01*
X115487439Y-168556323D01*
X115485845Y-168538190D01*
X115483189Y-168520791D01*
X115479470Y-168504126D01*
X115474688Y-168488196D01*
X115468844Y-168473000D01*
X115461937Y-168458538D01*
X115453967Y-168444810D01*
X115444935Y-168431816D01*
X115434841Y-168419556D01*
X115427520Y-168411791D01*
X115415878Y-168400923D01*
X115403482Y-168391123D01*
X115390333Y-168382393D01*
X115376430Y-168374731D01*
X115361773Y-168368139D01*
X115346364Y-168362615D01*
X115330200Y-168358161D01*
X115313283Y-168354776D01*
X115295613Y-168352460D01*
X115277189Y-168351212D01*
X115264488Y-168350975D01*
X115247613Y-168351633D01*
X115229959Y-168353608D01*
X115211526Y-168356900D01*
X115197190Y-168360232D01*
X115182417Y-168364306D01*
X115167206Y-168369119D01*
X115151557Y-168374674D01*
X115135469Y-168380969D01*
X115118944Y-168388005D01*
X115107684Y-168393107D01*
X115091157Y-168400636D01*
X115075648Y-168407425D01*
X115061155Y-168413473D01*
X115043415Y-168420385D01*
X115027484Y-168425981D01*
X115013362Y-168430260D01*
X114998253Y-168433757D01*
X114983853Y-168435239D01*
X114966358Y-168434451D01*
X114950508Y-168432090D01*
X114936305Y-168428155D01*
X114921433Y-168421354D01*
X114908930Y-168412286D01*
X114900322Y-168402998D01*
X114891980Y-168389122D01*
X114886347Y-168375040D01*
X114881912Y-168358668D01*
X114879228Y-168343922D01*
X114877310Y-168327711D01*
X114876159Y-168310034D01*
X114875776Y-168290891D01*
X114875776Y-167780912D01*
X114876143Y-167764195D01*
X114877243Y-167749535D01*
X114879531Y-167734658D01*
X114884225Y-167719431D01*
X114890797Y-167709471D01*
X114903591Y-167700919D01*
X114917730Y-167696562D01*
X114933072Y-167694685D01*
X114941721Y-167694450D01*
X115616931Y-167694450D01*
X115632267Y-167694851D01*
X115649746Y-167696479D01*
X115665347Y-167699359D01*
X115681588Y-167704468D01*
X115695125Y-167711380D01*
X115705957Y-167720095D01*
X115715807Y-167733296D01*
X115722325Y-167747765D01*
X115726398Y-167762046D01*
X115729237Y-167778348D01*
X115730841Y-167796671D01*
X115731236Y-167812786D01*
X115730847Y-167828637D01*
X115729266Y-167846663D01*
X115726468Y-167862704D01*
X115721505Y-167879332D01*
X115714790Y-167893101D01*
X115706324Y-167904010D01*
X115693656Y-167913718D01*
X115679729Y-167920140D01*
X115662967Y-167924812D01*
X115646835Y-167927366D01*
X115628735Y-167928704D01*
X115616931Y-167928923D01*
X115125270Y-167928923D01*
G37*
G36*
X97817491Y-169788312D02*
G01*
X97843025Y-169788531D01*
X97867660Y-169788896D01*
X97891396Y-169789407D01*
X97914234Y-169790064D01*
X97936173Y-169790867D01*
X97957213Y-169791816D01*
X97977355Y-169792910D01*
X97996597Y-169794151D01*
X98014941Y-169795538D01*
X98032387Y-169797071D01*
X98048933Y-169798749D01*
X98064581Y-169800574D01*
X98079330Y-169802545D01*
X98099768Y-169805774D01*
X98106132Y-169806924D01*
X98124621Y-169810577D01*
X98142582Y-169814669D01*
X98160015Y-169819198D01*
X98176920Y-169824166D01*
X98193297Y-169829571D01*
X98209146Y-169835414D01*
X98224467Y-169841695D01*
X98239259Y-169848415D01*
X98253524Y-169855572D01*
X98267260Y-169863166D01*
X98276125Y-169868473D01*
X98291468Y-169877971D01*
X98306356Y-169887965D01*
X98320788Y-169898453D01*
X98334766Y-169909437D01*
X98348289Y-169920916D01*
X98361356Y-169932890D01*
X98373968Y-169945359D01*
X98386126Y-169958324D01*
X98397828Y-169971783D01*
X98409075Y-169985738D01*
X98419867Y-170000188D01*
X98430204Y-170015133D01*
X98440086Y-170030573D01*
X98449512Y-170046509D01*
X98458484Y-170062939D01*
X98467001Y-170079865D01*
X98475075Y-170097160D01*
X98482628Y-170114790D01*
X98489661Y-170132755D01*
X98496172Y-170151054D01*
X98502163Y-170169689D01*
X98507633Y-170188658D01*
X98512581Y-170207962D01*
X98517009Y-170227602D01*
X98520916Y-170247576D01*
X98524302Y-170267884D01*
X98527167Y-170288528D01*
X98529511Y-170309507D01*
X98531335Y-170330820D01*
X98532637Y-170352469D01*
X98533418Y-170374452D01*
X98533679Y-170396770D01*
X98533383Y-170420352D01*
X98532494Y-170443562D01*
X98531013Y-170466400D01*
X98528939Y-170488865D01*
X98526273Y-170510959D01*
X98523014Y-170532680D01*
X98519163Y-170554029D01*
X98514719Y-170575006D01*
X98509683Y-170595612D01*
X98504055Y-170615845D01*
X98497834Y-170635706D01*
X98491020Y-170655194D01*
X98483614Y-170674311D01*
X98475616Y-170693056D01*
X98467025Y-170711429D01*
X98457841Y-170729429D01*
X98448159Y-170746972D01*
X98437978Y-170763970D01*
X98427299Y-170780425D01*
X98416122Y-170796336D01*
X98404447Y-170811704D01*
X98392274Y-170826527D01*
X98379603Y-170840807D01*
X98366434Y-170854542D01*
X98352766Y-170867734D01*
X98338601Y-170880383D01*
X98323938Y-170892487D01*
X98308777Y-170904047D01*
X98293118Y-170915064D01*
X98276961Y-170925537D01*
X98260305Y-170935466D01*
X98243152Y-170944851D01*
X98227146Y-170952814D01*
X98210454Y-170960216D01*
X98193075Y-170967056D01*
X98175008Y-170973336D01*
X98161008Y-170977678D01*
X98146621Y-170981704D01*
X98131847Y-170985414D01*
X98116688Y-170988809D01*
X98101141Y-170991889D01*
X98095874Y-170992845D01*
X98079284Y-170995464D01*
X98061252Y-170997825D01*
X98041778Y-170999929D01*
X98020860Y-171001775D01*
X98006114Y-171002863D01*
X97990727Y-171003836D01*
X97974699Y-171004695D01*
X97958029Y-171005439D01*
X97940718Y-171006068D01*
X97922766Y-171006584D01*
X97904173Y-171006984D01*
X97884939Y-171007271D01*
X97865064Y-171007442D01*
X97844548Y-171007500D01*
X97730242Y-171007500D01*
X97536435Y-171007500D01*
X97519308Y-171007076D01*
X97503463Y-171005805D01*
X97488900Y-171003687D01*
X97472499Y-170999848D01*
X97458102Y-170994685D01*
X97443470Y-170986743D01*
X97435319Y-170980389D01*
X97425234Y-170968797D01*
X97417235Y-170954629D01*
X97412164Y-170940854D01*
X97408541Y-170925291D01*
X97406368Y-170907939D01*
X97405672Y-170892769D01*
X97405643Y-170888797D01*
X97406341Y-170871723D01*
X97408434Y-170855989D01*
X97411922Y-170841598D01*
X97417950Y-170826099D01*
X97425987Y-170812532D01*
X97434220Y-170802702D01*
X97446013Y-170792617D01*
X97459688Y-170784618D01*
X97475242Y-170778706D01*
X97489641Y-170775374D01*
X97505346Y-170773490D01*
X97518850Y-170773026D01*
X97536435Y-170773026D01*
X97802049Y-170773026D01*
X97860668Y-170773026D01*
X97884632Y-170772666D01*
X97907797Y-170771584D01*
X97930164Y-170769781D01*
X97951732Y-170767256D01*
X97972502Y-170764010D01*
X97992473Y-170760043D01*
X98011646Y-170755355D01*
X98030020Y-170749945D01*
X98047595Y-170743815D01*
X98064372Y-170736962D01*
X98080350Y-170729389D01*
X98095530Y-170721094D01*
X98109911Y-170712078D01*
X98123494Y-170702341D01*
X98136278Y-170691882D01*
X98148264Y-170680703D01*
X98159532Y-170668727D01*
X98170074Y-170655973D01*
X98179888Y-170642440D01*
X98188976Y-170628129D01*
X98197336Y-170613040D01*
X98204970Y-170597172D01*
X98211876Y-170580525D01*
X98218056Y-170563100D01*
X98223509Y-170544896D01*
X98228234Y-170525914D01*
X98232233Y-170506153D01*
X98235504Y-170485614D01*
X98238049Y-170464296D01*
X98239866Y-170442199D01*
X98240957Y-170419325D01*
X98241320Y-170395671D01*
X98240951Y-170372416D01*
X98239843Y-170349910D01*
X98237997Y-170328154D01*
X98235413Y-170307148D01*
X98232089Y-170286892D01*
X98228028Y-170267386D01*
X98223228Y-170248630D01*
X98217690Y-170230624D01*
X98211413Y-170213368D01*
X98204398Y-170196861D01*
X98196644Y-170181105D01*
X98188152Y-170166098D01*
X98178921Y-170151841D01*
X98168952Y-170138335D01*
X98158244Y-170125578D01*
X98146798Y-170113571D01*
X98134655Y-170102302D01*
X98121765Y-170091761D01*
X98108128Y-170081946D01*
X98093744Y-170072858D01*
X98078613Y-170064498D01*
X98062735Y-170056864D01*
X98046110Y-170049958D01*
X98028737Y-170043778D01*
X98010618Y-170038326D01*
X97991752Y-170033600D01*
X97972138Y-170029602D01*
X97951778Y-170026330D01*
X97930670Y-170023786D01*
X97908816Y-170021968D01*
X97886214Y-170020878D01*
X97862866Y-170020514D01*
X97847332Y-170020601D01*
X97832435Y-170020926D01*
X97825130Y-170021247D01*
X97810104Y-170021991D01*
X97802049Y-170022712D01*
X97802049Y-170773026D01*
X97536435Y-170773026D01*
X97536435Y-170022712D01*
X97518850Y-170022712D01*
X97502100Y-170021988D01*
X97486657Y-170019814D01*
X97469849Y-170015293D01*
X97454921Y-170008686D01*
X97441873Y-169999992D01*
X97434220Y-169993037D01*
X97424508Y-169980930D01*
X97416806Y-169966865D01*
X97411113Y-169950842D01*
X97407904Y-169935994D01*
X97406090Y-169919787D01*
X97405643Y-169905842D01*
X97406124Y-169890981D01*
X97408078Y-169873887D01*
X97411534Y-169858438D01*
X97416493Y-169844635D01*
X97424427Y-169830244D01*
X97434524Y-169818222D01*
X97436418Y-169816449D01*
X97449422Y-169806862D01*
X97465080Y-169799259D01*
X97480155Y-169794438D01*
X97497073Y-169790994D01*
X97511933Y-169789231D01*
X97527973Y-169788349D01*
X97536435Y-169788239D01*
X97730242Y-169788239D01*
X97791058Y-169788239D01*
X97817491Y-169788312D01*
G37*
G36*
X99277466Y-170023229D02*
G01*
X99304412Y-170024779D01*
X99330760Y-170027362D01*
X99356510Y-170030978D01*
X99381662Y-170035628D01*
X99406215Y-170041311D01*
X99430171Y-170048027D01*
X99453528Y-170055777D01*
X99476287Y-170064559D01*
X99498448Y-170074375D01*
X99520010Y-170085225D01*
X99540975Y-170097107D01*
X99561341Y-170110023D01*
X99581109Y-170123972D01*
X99600278Y-170138954D01*
X99618850Y-170154970D01*
X99636596Y-170171691D01*
X99653196Y-170188881D01*
X99668652Y-170206541D01*
X99682964Y-170224671D01*
X99696130Y-170243269D01*
X99708151Y-170262337D01*
X99719028Y-170281875D01*
X99728759Y-170301882D01*
X99737346Y-170322358D01*
X99744788Y-170343304D01*
X99751084Y-170364719D01*
X99756236Y-170386604D01*
X99760244Y-170408958D01*
X99763106Y-170431781D01*
X99764823Y-170455074D01*
X99765396Y-170478836D01*
X99764932Y-170493530D01*
X99763048Y-170510208D01*
X99759715Y-170525008D01*
X99753804Y-170540288D01*
X99745805Y-170552863D01*
X99735720Y-170562733D01*
X99722539Y-170570453D01*
X99708210Y-170575666D01*
X99690840Y-170579769D01*
X99674755Y-170582254D01*
X99656723Y-170584028D01*
X99641921Y-170584893D01*
X99626025Y-170585359D01*
X99614820Y-170585448D01*
X98950235Y-170585448D01*
X98955688Y-170604833D01*
X98962016Y-170623285D01*
X98969220Y-170640803D01*
X98977300Y-170657387D01*
X98986256Y-170673037D01*
X98996088Y-170687754D01*
X99006795Y-170701536D01*
X99018379Y-170714385D01*
X99030838Y-170726300D01*
X99044173Y-170737282D01*
X99053550Y-170744084D01*
X99068423Y-170753446D01*
X99084191Y-170761888D01*
X99100855Y-170769409D01*
X99118413Y-170776009D01*
X99136867Y-170781688D01*
X99156216Y-170786446D01*
X99176460Y-170790283D01*
X99197600Y-170793199D01*
X99212190Y-170794632D01*
X99227178Y-170795655D01*
X99242564Y-170796269D01*
X99258347Y-170796474D01*
X99274317Y-170796230D01*
X99290261Y-170795501D01*
X99306179Y-170794284D01*
X99322072Y-170792581D01*
X99337939Y-170790391D01*
X99353780Y-170787715D01*
X99369595Y-170784553D01*
X99385384Y-170780903D01*
X99401148Y-170776767D01*
X99416886Y-170772145D01*
X99432598Y-170767036D01*
X99448284Y-170761440D01*
X99463945Y-170755358D01*
X99479580Y-170748789D01*
X99495189Y-170741734D01*
X99510772Y-170734192D01*
X99525958Y-170726650D01*
X99540373Y-170719594D01*
X99554019Y-170713026D01*
X99573044Y-170704085D01*
X99590336Y-170696239D01*
X99605896Y-170689487D01*
X99619724Y-170683831D01*
X99635466Y-170677992D01*
X99650813Y-170673430D01*
X99661348Y-170671910D01*
X99677351Y-170673260D01*
X99692022Y-170677309D01*
X99705361Y-170684059D01*
X99717367Y-170693508D01*
X99723630Y-170700120D01*
X99733052Y-170713233D01*
X99740159Y-170727889D01*
X99744953Y-170744088D01*
X99747220Y-170759200D01*
X99747810Y-170772660D01*
X99746551Y-170791996D01*
X99742774Y-170810849D01*
X99736479Y-170829219D01*
X99727666Y-170847106D01*
X99716335Y-170864510D01*
X99702485Y-170881432D01*
X99691854Y-170892444D01*
X99680103Y-170903242D01*
X99667233Y-170913825D01*
X99653244Y-170924193D01*
X99638135Y-170934347D01*
X99621908Y-170944286D01*
X99604562Y-170954010D01*
X99586389Y-170963327D01*
X99567685Y-170972042D01*
X99548448Y-170980157D01*
X99528678Y-170987670D01*
X99508377Y-170994582D01*
X99487543Y-171000893D01*
X99466176Y-171006604D01*
X99444277Y-171011713D01*
X99421846Y-171016221D01*
X99398882Y-171020128D01*
X99375386Y-171023433D01*
X99351358Y-171026138D01*
X99326797Y-171028242D01*
X99301704Y-171029745D01*
X99276079Y-171030646D01*
X99249921Y-171030947D01*
X99234441Y-171030809D01*
X99219144Y-171030396D01*
X99204027Y-171029707D01*
X99189093Y-171028743D01*
X99174340Y-171027503D01*
X99145381Y-171024197D01*
X99117148Y-171019790D01*
X99089642Y-171014280D01*
X99062863Y-171007668D01*
X99036811Y-170999954D01*
X99011486Y-170991139D01*
X98986888Y-170981221D01*
X98963017Y-170970202D01*
X98939873Y-170958080D01*
X98917456Y-170944857D01*
X98895766Y-170930531D01*
X98874803Y-170915104D01*
X98854567Y-170898574D01*
X98844722Y-170889897D01*
X98825823Y-170871905D01*
X98808143Y-170853283D01*
X98791682Y-170834032D01*
X98776441Y-170814151D01*
X98762419Y-170793640D01*
X98749616Y-170772500D01*
X98738033Y-170750730D01*
X98727669Y-170728330D01*
X98718524Y-170705300D01*
X98710598Y-170681641D01*
X98703892Y-170657353D01*
X98698405Y-170632434D01*
X98694138Y-170606886D01*
X98691090Y-170580708D01*
X98689261Y-170553900D01*
X98688651Y-170526463D01*
X98689261Y-170499116D01*
X98691090Y-170472396D01*
X98694138Y-170446302D01*
X98694396Y-170444764D01*
X98950235Y-170444764D01*
X99505643Y-170444764D01*
X99501860Y-170424257D01*
X99497104Y-170404639D01*
X99491375Y-170385909D01*
X99484675Y-170368068D01*
X99477001Y-170351116D01*
X99468356Y-170335052D01*
X99458738Y-170319877D01*
X99448147Y-170305591D01*
X99436584Y-170292194D01*
X99424048Y-170279685D01*
X99415151Y-170271840D01*
X99401167Y-170260841D01*
X99386416Y-170250923D01*
X99370899Y-170242087D01*
X99354615Y-170234334D01*
X99337565Y-170227662D01*
X99319749Y-170222072D01*
X99301167Y-170217564D01*
X99281818Y-170214138D01*
X99261702Y-170211794D01*
X99240821Y-170210531D01*
X99226474Y-170210291D01*
X99205771Y-170210803D01*
X99185842Y-170212339D01*
X99166685Y-170214899D01*
X99148301Y-170218483D01*
X99130689Y-170223090D01*
X99113851Y-170228722D01*
X99097785Y-170235378D01*
X99082493Y-170243058D01*
X99067972Y-170251761D01*
X99054225Y-170261489D01*
X99045490Y-170268543D01*
X99033011Y-170279990D01*
X99021267Y-170292487D01*
X99010257Y-170306033D01*
X98999980Y-170320629D01*
X98990438Y-170336275D01*
X98981631Y-170352971D01*
X98973557Y-170370717D01*
X98966218Y-170389512D01*
X98959612Y-170409357D01*
X98953741Y-170430251D01*
X98950235Y-170444764D01*
X98694396Y-170444764D01*
X98698405Y-170420836D01*
X98703892Y-170395996D01*
X98710598Y-170371783D01*
X98718524Y-170348197D01*
X98727669Y-170325238D01*
X98738033Y-170302905D01*
X98749616Y-170281200D01*
X98762419Y-170260121D01*
X98776441Y-170239669D01*
X98791682Y-170219844D01*
X98808143Y-170200645D01*
X98825823Y-170182074D01*
X98844722Y-170164129D01*
X98864595Y-170147004D01*
X98885194Y-170130984D01*
X98906520Y-170116069D01*
X98928574Y-170102259D01*
X98951354Y-170089554D01*
X98974862Y-170077953D01*
X98999096Y-170067457D01*
X99024057Y-170058066D01*
X99049746Y-170049780D01*
X99076161Y-170042599D01*
X99103304Y-170036523D01*
X99131173Y-170031551D01*
X99159770Y-170027684D01*
X99189093Y-170024922D01*
X99204027Y-170023955D01*
X99219144Y-170023265D01*
X99234441Y-170022850D01*
X99249921Y-170022712D01*
X99277466Y-170023229D01*
G37*
G36*
X100218954Y-170988815D02*
G01*
X100205330Y-170998455D01*
X100191569Y-171006858D01*
X100177670Y-171014025D01*
X100163633Y-171019956D01*
X100149414Y-171024764D01*
X100134965Y-171028199D01*
X100120288Y-171030260D01*
X100105382Y-171030947D01*
X100089685Y-171030110D01*
X100073717Y-171027017D01*
X100058558Y-171020691D01*
X100046697Y-171011389D01*
X100043100Y-171007133D01*
X100035246Y-170992662D01*
X100030828Y-170978442D01*
X100027672Y-170961338D01*
X100026007Y-170944880D01*
X100025218Y-170926419D01*
X100025148Y-170918473D01*
X100025148Y-170780720D01*
X100025503Y-170764308D01*
X100026567Y-170749144D01*
X100028897Y-170731944D01*
X100032335Y-170716694D01*
X100037925Y-170700967D01*
X100045112Y-170688048D01*
X100047862Y-170684366D01*
X100059378Y-170673231D01*
X100074049Y-170664832D01*
X100089136Y-170659808D01*
X100106541Y-170656794D01*
X100122816Y-170655818D01*
X100126264Y-170655790D01*
X100141114Y-170656666D01*
X100158677Y-170660224D01*
X100175131Y-170666519D01*
X100190476Y-170675551D01*
X100201954Y-170684747D01*
X100212721Y-170695695D01*
X100222779Y-170708395D01*
X100225183Y-170711844D01*
X100234770Y-170724393D01*
X100244868Y-170736890D01*
X100255133Y-170748594D01*
X100263285Y-170756906D01*
X100276176Y-170767376D01*
X100289571Y-170777171D01*
X100303470Y-170786290D01*
X100317873Y-170794733D01*
X100332779Y-170802502D01*
X100348189Y-170809594D01*
X100364103Y-170816011D01*
X100380521Y-170821753D01*
X100397574Y-170826819D01*
X100415211Y-170831210D01*
X100433432Y-170834925D01*
X100452237Y-170837964D01*
X100471626Y-170840329D01*
X100486550Y-170841658D01*
X100501803Y-170842608D01*
X100517385Y-170843178D01*
X100533295Y-170843368D01*
X100551333Y-170842922D01*
X100568443Y-170841582D01*
X100584626Y-170839350D01*
X100599882Y-170836224D01*
X100614210Y-170832206D01*
X100630816Y-170825927D01*
X100645974Y-170818252D01*
X100651631Y-170814792D01*
X100664402Y-170805432D01*
X100675008Y-170795214D01*
X100684878Y-170781819D01*
X100691632Y-170767187D01*
X100695268Y-170751319D01*
X100695961Y-170740054D01*
X100693868Y-170724980D01*
X100687589Y-170710807D01*
X100677124Y-170697537D01*
X100662473Y-170685168D01*
X100643636Y-170673700D01*
X100628752Y-170666556D01*
X100612008Y-170659813D01*
X100593404Y-170653470D01*
X100572939Y-170647528D01*
X100550614Y-170641987D01*
X100526428Y-170636846D01*
X100500382Y-170632106D01*
X100472475Y-170627767D01*
X100457824Y-170625748D01*
X100441998Y-170623828D01*
X100427263Y-170621963D01*
X100411021Y-170619795D01*
X100396351Y-170617704D01*
X100381221Y-170615362D01*
X100375392Y-170614391D01*
X100353311Y-170611138D01*
X100331949Y-170607516D01*
X100311305Y-170603524D01*
X100291380Y-170599164D01*
X100272173Y-170594434D01*
X100253685Y-170589335D01*
X100235915Y-170583866D01*
X100218863Y-170578029D01*
X100202530Y-170571822D01*
X100186915Y-170565246D01*
X100172018Y-170558301D01*
X100157840Y-170550987D01*
X100144381Y-170543303D01*
X100131640Y-170535250D01*
X100119617Y-170526828D01*
X100108312Y-170518037D01*
X100092664Y-170504070D01*
X100078555Y-170489233D01*
X100065986Y-170473527D01*
X100054955Y-170456951D01*
X100045463Y-170439506D01*
X100037511Y-170421192D01*
X100031098Y-170402008D01*
X100026224Y-170381955D01*
X100022889Y-170361033D01*
X100021093Y-170339241D01*
X100020751Y-170324230D01*
X100021162Y-170306487D01*
X100022394Y-170289254D01*
X100024448Y-170272530D01*
X100027323Y-170256315D01*
X100031020Y-170240610D01*
X100035538Y-170225415D01*
X100040877Y-170210729D01*
X100047038Y-170196552D01*
X100054020Y-170182885D01*
X100061824Y-170169727D01*
X100070450Y-170157079D01*
X100079896Y-170144941D01*
X100090165Y-170133311D01*
X100101254Y-170122192D01*
X100113165Y-170111581D01*
X100125898Y-170101481D01*
X100139390Y-170091942D01*
X100153581Y-170083019D01*
X100168471Y-170074712D01*
X100184058Y-170067020D01*
X100200344Y-170059943D01*
X100217329Y-170053481D01*
X100235012Y-170047635D01*
X100253393Y-170042404D01*
X100272472Y-170037789D01*
X100292250Y-170033789D01*
X100312727Y-170030405D01*
X100333901Y-170027635D01*
X100355774Y-170025482D01*
X100378346Y-170023943D01*
X100401616Y-170023020D01*
X100425584Y-170022712D01*
X100442397Y-170022884D01*
X100459312Y-170023399D01*
X100476331Y-170024258D01*
X100493453Y-170025460D01*
X100510678Y-170027006D01*
X100528006Y-170028895D01*
X100545437Y-170031127D01*
X100562971Y-170033703D01*
X100580705Y-170036548D01*
X100598554Y-170039771D01*
X100616517Y-170043372D01*
X100634595Y-170047350D01*
X100652787Y-170051707D01*
X100671094Y-170056441D01*
X100689515Y-170061553D01*
X100708051Y-170067042D01*
X100719019Y-170055090D01*
X100730307Y-170045244D01*
X100743390Y-170036685D01*
X100753846Y-170031871D01*
X100768059Y-170027444D01*
X100783084Y-170024465D01*
X100798920Y-170022936D01*
X100808068Y-170022712D01*
X100823159Y-170023653D01*
X100838975Y-170027126D01*
X100852862Y-170033159D01*
X100864821Y-170041752D01*
X100872182Y-170049457D01*
X100880890Y-170062277D01*
X100887459Y-170077657D01*
X100891387Y-170092877D01*
X100893745Y-170109977D01*
X100894508Y-170125664D01*
X100894530Y-170128958D01*
X100894530Y-170257185D01*
X100893732Y-170273238D01*
X100891336Y-170287874D01*
X100886522Y-170303159D01*
X100879535Y-170316515D01*
X100871816Y-170326428D01*
X100859451Y-170337167D01*
X100844705Y-170344838D01*
X100829848Y-170349033D01*
X100813169Y-170350879D01*
X100808068Y-170350975D01*
X100793426Y-170348971D01*
X100775832Y-170342961D01*
X100759632Y-170335267D01*
X100746242Y-170327814D01*
X100731790Y-170318918D01*
X100716275Y-170308580D01*
X100699697Y-170296799D01*
X100682057Y-170283575D01*
X100669707Y-170273958D01*
X100663354Y-170268909D01*
X100650530Y-170258971D01*
X100637703Y-170249675D01*
X100624873Y-170241020D01*
X100612040Y-170233005D01*
X100599205Y-170225632D01*
X100579946Y-170215775D01*
X100560681Y-170207360D01*
X100541409Y-170200388D01*
X100522131Y-170194858D01*
X100502846Y-170190771D01*
X100483555Y-170188126D01*
X100464258Y-170186924D01*
X100457824Y-170186844D01*
X100443096Y-170187079D01*
X100424440Y-170188123D01*
X100406906Y-170190004D01*
X100390494Y-170192720D01*
X100375204Y-170196272D01*
X100361036Y-170200660D01*
X100344904Y-170207320D01*
X100333260Y-170213588D01*
X100320489Y-170222332D01*
X100308021Y-170234147D01*
X100298671Y-170247405D01*
X100292437Y-170262106D01*
X100289320Y-170278249D01*
X100288930Y-170286861D01*
X100291827Y-170304424D01*
X100300516Y-170320475D01*
X100310835Y-170331522D01*
X100324413Y-170341718D01*
X100341249Y-170351065D01*
X100361344Y-170359561D01*
X100376551Y-170364753D01*
X100393206Y-170369568D01*
X100411310Y-170374004D01*
X100430862Y-170378063D01*
X100451862Y-170381744D01*
X100474310Y-170385047D01*
X100490480Y-170386948D01*
X100505559Y-170388760D01*
X100522213Y-170390817D01*
X100537295Y-170392745D01*
X100552905Y-170394831D01*
X100558941Y-170395671D01*
X100587451Y-170400109D01*
X100614823Y-170404813D01*
X100641055Y-170409783D01*
X100666148Y-170415020D01*
X100690102Y-170420522D01*
X100712917Y-170426291D01*
X100734592Y-170432326D01*
X100755129Y-170438627D01*
X100774526Y-170445195D01*
X100792784Y-170452028D01*
X100809903Y-170459128D01*
X100825883Y-170466494D01*
X100840723Y-170474126D01*
X100854425Y-170482024D01*
X100866987Y-170490189D01*
X100878410Y-170498620D01*
X100893993Y-170511979D01*
X100908043Y-170526505D01*
X100920560Y-170542196D01*
X100931544Y-170559052D01*
X100940996Y-170577075D01*
X100948915Y-170596263D01*
X100955302Y-170616616D01*
X100960155Y-170638136D01*
X100962539Y-170653129D01*
X100964242Y-170668641D01*
X100965264Y-170684671D01*
X100965605Y-170701219D01*
X100965156Y-170720632D01*
X100963807Y-170739487D01*
X100961561Y-170757784D01*
X100958415Y-170775522D01*
X100954371Y-170792703D01*
X100949428Y-170809325D01*
X100943586Y-170825389D01*
X100936845Y-170840895D01*
X100929206Y-170855843D01*
X100920668Y-170870233D01*
X100911231Y-170884065D01*
X100900896Y-170897338D01*
X100889662Y-170910054D01*
X100877529Y-170922211D01*
X100864497Y-170933810D01*
X100850566Y-170944851D01*
X100835856Y-170955277D01*
X100820393Y-170965030D01*
X100804177Y-170974110D01*
X100787208Y-170982518D01*
X100769487Y-170990253D01*
X100751013Y-170997316D01*
X100731786Y-171003706D01*
X100711806Y-171009423D01*
X100691074Y-171014468D01*
X100669588Y-171018840D01*
X100647350Y-171022539D01*
X100624359Y-171025566D01*
X100600616Y-171027920D01*
X100576120Y-171029602D01*
X100550871Y-171030611D01*
X100524869Y-171030947D01*
X100509467Y-171030850D01*
X100494176Y-171030560D01*
X100478993Y-171030077D01*
X100463921Y-171029401D01*
X100448957Y-171028532D01*
X100434103Y-171027469D01*
X100419359Y-171026213D01*
X100404724Y-171024764D01*
X100385381Y-171022532D01*
X100366233Y-171019956D01*
X100347262Y-171017145D01*
X100328452Y-171014025D01*
X100309801Y-171010596D01*
X100291311Y-171006858D01*
X100272982Y-171002811D01*
X100254812Y-170998455D01*
X100236803Y-170993789D01*
X100218954Y-170988815D01*
G37*
G36*
X101895437Y-170773026D02*
G01*
X102116721Y-170773026D01*
X102133849Y-170773444D01*
X102149694Y-170774698D01*
X102164257Y-170776787D01*
X102180658Y-170780574D01*
X102195055Y-170785667D01*
X102209686Y-170793503D01*
X102217838Y-170799771D01*
X102228047Y-170811050D01*
X102236145Y-170824827D01*
X102242130Y-170841103D01*
X102245503Y-170856575D01*
X102247410Y-170873782D01*
X102247880Y-170888797D01*
X102247405Y-170904002D01*
X102245474Y-170921461D01*
X102242059Y-170937203D01*
X102237160Y-170951228D01*
X102229320Y-170965791D01*
X102219342Y-170977881D01*
X102217472Y-170979656D01*
X102204665Y-170989118D01*
X102189050Y-170996623D01*
X102173892Y-171001382D01*
X102156785Y-171004780D01*
X102141696Y-171006521D01*
X102125358Y-171007391D01*
X102116721Y-171007500D01*
X101420263Y-171007500D01*
X101403387Y-171007064D01*
X101387748Y-171005759D01*
X101369938Y-171002904D01*
X101354060Y-170998690D01*
X101340114Y-170993115D01*
X101325928Y-170984632D01*
X101319879Y-170979656D01*
X101309545Y-170967978D01*
X101301349Y-170953827D01*
X101295291Y-170937203D01*
X101291876Y-170921461D01*
X101289946Y-170904002D01*
X101289471Y-170888797D01*
X101289929Y-170873782D01*
X101291789Y-170856575D01*
X101295081Y-170841103D01*
X101300920Y-170824827D01*
X101308820Y-170811050D01*
X101318780Y-170799771D01*
X101331278Y-170790682D01*
X101346790Y-170783473D01*
X101362019Y-170778903D01*
X101379340Y-170775638D01*
X101394705Y-170773967D01*
X101411409Y-170773131D01*
X101420263Y-170773026D01*
X101641913Y-170773026D01*
X101641913Y-170280633D01*
X101525409Y-170280633D01*
X101508711Y-170280209D01*
X101493238Y-170278938D01*
X101475619Y-170276158D01*
X101459915Y-170272055D01*
X101446124Y-170266627D01*
X101432102Y-170258367D01*
X101426125Y-170253522D01*
X101416040Y-170241968D01*
X101408041Y-170227916D01*
X101402129Y-170211366D01*
X101398797Y-170195665D01*
X101396913Y-170178228D01*
X101396449Y-170163030D01*
X101396901Y-170147757D01*
X101398739Y-170130276D01*
X101401989Y-170114584D01*
X101406653Y-170100681D01*
X101414115Y-170086358D01*
X101423611Y-170074612D01*
X101425392Y-170072904D01*
X101437727Y-170063815D01*
X101453024Y-170056607D01*
X101468034Y-170052036D01*
X101485102Y-170048771D01*
X101500238Y-170047100D01*
X101516690Y-170046264D01*
X101525409Y-170046160D01*
X101835720Y-170046160D01*
X101850928Y-170047116D01*
X101865311Y-170050422D01*
X101879075Y-170057506D01*
X101880050Y-170058250D01*
X101890013Y-170069226D01*
X101894896Y-170083105D01*
X101895437Y-170090490D01*
X101895437Y-170773026D01*
G37*
G36*
X101747060Y-169577213D02*
G01*
X101765046Y-169577671D01*
X101781452Y-169579045D01*
X101796279Y-169581335D01*
X101812590Y-169585485D01*
X101826432Y-169591067D01*
X101839784Y-169599653D01*
X101846711Y-169606523D01*
X101855177Y-169620399D01*
X101860895Y-169636370D01*
X101864593Y-169652032D01*
X101867512Y-169670258D01*
X101869191Y-169685611D01*
X101870432Y-169702407D01*
X101871234Y-169720645D01*
X101871599Y-169740326D01*
X101871624Y-169747206D01*
X101871427Y-169766550D01*
X101870838Y-169784464D01*
X101869856Y-169800948D01*
X101868481Y-169816003D01*
X101866037Y-169833852D01*
X101862894Y-169849159D01*
X101857983Y-169864718D01*
X101850650Y-169878148D01*
X101849275Y-169879830D01*
X101836766Y-169889823D01*
X101821439Y-169896435D01*
X101805419Y-169900567D01*
X101790478Y-169902971D01*
X101773648Y-169904574D01*
X101754930Y-169905376D01*
X101744862Y-169905476D01*
X101725691Y-169905098D01*
X101708294Y-169903965D01*
X101692672Y-169902075D01*
X101675640Y-169898652D01*
X101661381Y-169894047D01*
X101647930Y-169886963D01*
X101641181Y-169881296D01*
X101632187Y-169868420D01*
X101626237Y-169853729D01*
X101622517Y-169838908D01*
X101619925Y-169821743D01*
X101618663Y-169806325D01*
X101618122Y-169789406D01*
X101618100Y-169784942D01*
X101618191Y-169768517D01*
X101618466Y-169752856D01*
X101618924Y-169737960D01*
X101619954Y-169717048D01*
X101621397Y-169697856D01*
X101623252Y-169680383D01*
X101625519Y-169664630D01*
X101629182Y-169646300D01*
X101633579Y-169631027D01*
X101640104Y-169616235D01*
X101641547Y-169613850D01*
X101652512Y-169601399D01*
X101664759Y-169592991D01*
X101679832Y-169586372D01*
X101697732Y-169581542D01*
X101714086Y-169578966D01*
X101732250Y-169577535D01*
X101747060Y-169577213D01*
G37*
G36*
X102955290Y-170022992D02*
G01*
X102972070Y-170023833D01*
X102988452Y-170025234D01*
X103004433Y-170027195D01*
X103020016Y-170029716D01*
X103035200Y-170032797D01*
X103049984Y-170036439D01*
X103064368Y-170040641D01*
X103078354Y-170045404D01*
X103096380Y-170052625D01*
X103100776Y-170054586D01*
X103117984Y-170063012D01*
X103134619Y-170072538D01*
X103150682Y-170083162D01*
X103166172Y-170094886D01*
X103177414Y-170104400D01*
X103188334Y-170114532D01*
X103198932Y-170125283D01*
X103209208Y-170136652D01*
X103219162Y-170148639D01*
X103222409Y-170152772D01*
X103222409Y-170093054D01*
X103224521Y-170077512D01*
X103231577Y-170064047D01*
X103237430Y-170058250D01*
X103250756Y-170050882D01*
X103265010Y-170047340D01*
X103280286Y-170046171D01*
X103282126Y-170046160D01*
X103450287Y-170046160D01*
X103467398Y-170046578D01*
X103483191Y-170047831D01*
X103501082Y-170050574D01*
X103516916Y-170054622D01*
X103530692Y-170059976D01*
X103544508Y-170068125D01*
X103550305Y-170072904D01*
X103560141Y-170084007D01*
X103567942Y-170097531D01*
X103573708Y-170113476D01*
X103576958Y-170128614D01*
X103578795Y-170145433D01*
X103579248Y-170160099D01*
X103578550Y-170177068D01*
X103576457Y-170192714D01*
X103572969Y-170207036D01*
X103566941Y-170222475D01*
X103558904Y-170236007D01*
X103550671Y-170245828D01*
X103539165Y-170255664D01*
X103525804Y-170263465D01*
X103510589Y-170269231D01*
X103493518Y-170272962D01*
X103477876Y-170274517D01*
X103467873Y-170274771D01*
X103450287Y-170274771D01*
X103450287Y-170994310D01*
X103449808Y-171022397D01*
X103448370Y-171049505D01*
X103445973Y-171075635D01*
X103442617Y-171100785D01*
X103438302Y-171124956D01*
X103433028Y-171148149D01*
X103426796Y-171170363D01*
X103419604Y-171191598D01*
X103411454Y-171211853D01*
X103402345Y-171231131D01*
X103392277Y-171249429D01*
X103381251Y-171266748D01*
X103369265Y-171283088D01*
X103356321Y-171298450D01*
X103342417Y-171312833D01*
X103327555Y-171326236D01*
X103311679Y-171338747D01*
X103294640Y-171350451D01*
X103276439Y-171361347D01*
X103257076Y-171371437D01*
X103236551Y-171380719D01*
X103214864Y-171389194D01*
X103192015Y-171396862D01*
X103168004Y-171403722D01*
X103142830Y-171409776D01*
X103116495Y-171415023D01*
X103088998Y-171419462D01*
X103060338Y-171423094D01*
X103045573Y-171424607D01*
X103030517Y-171425919D01*
X103015170Y-171427029D01*
X102999533Y-171427937D01*
X102983606Y-171428643D01*
X102967388Y-171429148D01*
X102950879Y-171429450D01*
X102934080Y-171429551D01*
X102913452Y-171429419D01*
X102893517Y-171429024D01*
X102874274Y-171428366D01*
X102855724Y-171427445D01*
X102837867Y-171426260D01*
X102820702Y-171424811D01*
X102804230Y-171423100D01*
X102788450Y-171421125D01*
X102773364Y-171418887D01*
X102752032Y-171415035D01*
X102732259Y-171410592D01*
X102714045Y-171405556D01*
X102697389Y-171399927D01*
X102687151Y-171395846D01*
X102673074Y-171389185D01*
X102660382Y-171381841D01*
X102645613Y-171370987D01*
X102633305Y-171358920D01*
X102623459Y-171345639D01*
X102616074Y-171331145D01*
X102611151Y-171315437D01*
X102608690Y-171298516D01*
X102608382Y-171289600D01*
X102609160Y-171274371D01*
X102612149Y-171257301D01*
X102617378Y-171241544D01*
X102624848Y-171227102D01*
X102634560Y-171213973D01*
X102640256Y-171207901D01*
X102653054Y-171197193D01*
X102667270Y-171188701D01*
X102682902Y-171182424D01*
X102699950Y-171178363D01*
X102715240Y-171176670D01*
X102724886Y-171176393D01*
X102741478Y-171177476D01*
X102756660Y-171178978D01*
X102772616Y-171180723D01*
X102787546Y-171182440D01*
X102804399Y-171184443D01*
X102813546Y-171185553D01*
X102832151Y-171187785D01*
X102850412Y-171189720D01*
X102868329Y-171191357D01*
X102885903Y-171192697D01*
X102903134Y-171193738D01*
X102920021Y-171194483D01*
X102936565Y-171194929D01*
X102952765Y-171195078D01*
X102970818Y-171194865D01*
X102988159Y-171194225D01*
X103004787Y-171193159D01*
X103020702Y-171191666D01*
X103035905Y-171189747D01*
X103050395Y-171187402D01*
X103070794Y-171183084D01*
X103089589Y-171177806D01*
X103106780Y-171171569D01*
X103122368Y-171164372D01*
X103136353Y-171156216D01*
X103148734Y-171147100D01*
X103156097Y-171140490D01*
X103166114Y-171129563D01*
X103175146Y-171117117D01*
X103183193Y-171103151D01*
X103190255Y-171087665D01*
X103196331Y-171070659D01*
X103201422Y-171052133D01*
X103205527Y-171032087D01*
X103208647Y-171010522D01*
X103210180Y-170995301D01*
X103211275Y-170979404D01*
X103211932Y-170962832D01*
X103212151Y-170945584D01*
X103212151Y-170900155D01*
X103198425Y-170907995D01*
X103184725Y-170915443D01*
X103171051Y-170922498D01*
X103157402Y-170929161D01*
X103143779Y-170935430D01*
X103130182Y-170941306D01*
X103112093Y-170948531D01*
X103094050Y-170955056D01*
X103076052Y-170960884D01*
X103067070Y-170963536D01*
X103049118Y-170968344D01*
X103030983Y-170972512D01*
X103012665Y-170976038D01*
X102994164Y-170978923D01*
X102975479Y-170981167D01*
X102956612Y-170982770D01*
X102937561Y-170983732D01*
X102918326Y-170984052D01*
X102892747Y-170983537D01*
X102867757Y-170981991D01*
X102843356Y-170979415D01*
X102819545Y-170975809D01*
X102796324Y-170971172D01*
X102773693Y-170965505D01*
X102751651Y-170958807D01*
X102730198Y-170951079D01*
X102709336Y-170942321D01*
X102689063Y-170932532D01*
X102669379Y-170921713D01*
X102650285Y-170909863D01*
X102631781Y-170896983D01*
X102613866Y-170883073D01*
X102596541Y-170868132D01*
X102579806Y-170852161D01*
X102563923Y-170835334D01*
X102549066Y-170817917D01*
X102535232Y-170799911D01*
X102522424Y-170781315D01*
X102510640Y-170762130D01*
X102499881Y-170742355D01*
X102490147Y-170721990D01*
X102481437Y-170701036D01*
X102473752Y-170679492D01*
X102467092Y-170657358D01*
X102461456Y-170634635D01*
X102456845Y-170611322D01*
X102453258Y-170587420D01*
X102450697Y-170562928D01*
X102449160Y-170537846D01*
X102448735Y-170516571D01*
X102733312Y-170516571D01*
X102733895Y-170537113D01*
X102735644Y-170556972D01*
X102738558Y-170576148D01*
X102742638Y-170594641D01*
X102747883Y-170612452D01*
X102754294Y-170629580D01*
X102761871Y-170646026D01*
X102770613Y-170661789D01*
X102780521Y-170676869D01*
X102791594Y-170691267D01*
X102799624Y-170700486D01*
X102812426Y-170713450D01*
X102825827Y-170725139D01*
X102839826Y-170735552D01*
X102854424Y-170744690D01*
X102869622Y-170752554D01*
X102885418Y-170759142D01*
X102901813Y-170764455D01*
X102918807Y-170768493D01*
X102936400Y-170771255D01*
X102954592Y-170772743D01*
X102967053Y-170773026D01*
X102985837Y-170772389D01*
X103003997Y-170770476D01*
X103021532Y-170767288D01*
X103038442Y-170762825D01*
X103054728Y-170757087D01*
X103070389Y-170750074D01*
X103085425Y-170741786D01*
X103099837Y-170732223D01*
X103113624Y-170721384D01*
X103126786Y-170709270D01*
X103135214Y-170700486D01*
X103147130Y-170686544D01*
X103157874Y-170671918D01*
X103167446Y-170656611D01*
X103175846Y-170640620D01*
X103183074Y-170623947D01*
X103189130Y-170606591D01*
X103194013Y-170588553D01*
X103197725Y-170569832D01*
X103200264Y-170550428D01*
X103201632Y-170530342D01*
X103201892Y-170516571D01*
X103201306Y-170495699D01*
X103199548Y-170475536D01*
X103196618Y-170456080D01*
X103192516Y-170437334D01*
X103187241Y-170419295D01*
X103180795Y-170401965D01*
X103173176Y-170385344D01*
X103164386Y-170369430D01*
X103154423Y-170354225D01*
X103143288Y-170339729D01*
X103135214Y-170330458D01*
X103122468Y-170317364D01*
X103109098Y-170305557D01*
X103095103Y-170295038D01*
X103080483Y-170285808D01*
X103065238Y-170277865D01*
X103049369Y-170271210D01*
X103032875Y-170265844D01*
X103015756Y-170261765D01*
X102998013Y-170258974D01*
X102979645Y-170257472D01*
X102967053Y-170257185D01*
X102948462Y-170257829D01*
X102930469Y-170259761D01*
X102913076Y-170262981D01*
X102896282Y-170267489D01*
X102880086Y-170273285D01*
X102864489Y-170280369D01*
X102849492Y-170288741D01*
X102835093Y-170298401D01*
X102821293Y-170309349D01*
X102808092Y-170321585D01*
X102799624Y-170330458D01*
X102787774Y-170344482D01*
X102777089Y-170359215D01*
X102767569Y-170374656D01*
X102759216Y-170390805D01*
X102752027Y-170407663D01*
X102746005Y-170425229D01*
X102741148Y-170443504D01*
X102737457Y-170462487D01*
X102734931Y-170482178D01*
X102733572Y-170502578D01*
X102733312Y-170516571D01*
X102448735Y-170516571D01*
X102448647Y-170512175D01*
X102449184Y-170485772D01*
X102450794Y-170459962D01*
X102453477Y-170434745D01*
X102457234Y-170410120D01*
X102462064Y-170386087D01*
X102467967Y-170362647D01*
X102474944Y-170339799D01*
X102482994Y-170317544D01*
X102492117Y-170295881D01*
X102502314Y-170274811D01*
X102513584Y-170254333D01*
X102525927Y-170234448D01*
X102539344Y-170215155D01*
X102553834Y-170196455D01*
X102569397Y-170178347D01*
X102586034Y-170160832D01*
X102603552Y-170144106D01*
X102621669Y-170128460D01*
X102640383Y-170113893D01*
X102659696Y-170100404D01*
X102679607Y-170087995D01*
X102700116Y-170076665D01*
X102721224Y-170066414D01*
X102742930Y-170057242D01*
X102765233Y-170049149D01*
X102788135Y-170042135D01*
X102811636Y-170036201D01*
X102835734Y-170031345D01*
X102860431Y-170027568D01*
X102885726Y-170024870D01*
X102911619Y-170023252D01*
X102938110Y-170022712D01*
X102955290Y-170022992D01*
G37*
G36*
X104704352Y-170773026D02*
G01*
X104717908Y-170773026D01*
X104735185Y-170773742D01*
X104751067Y-170775889D01*
X104765553Y-170779466D01*
X104781095Y-170785649D01*
X104794627Y-170793892D01*
X104804370Y-170802336D01*
X104814206Y-170814232D01*
X104822007Y-170828216D01*
X104827773Y-170844286D01*
X104831023Y-170859271D01*
X104832860Y-170875706D01*
X104833312Y-170889897D01*
X104832855Y-170904929D01*
X104830994Y-170922206D01*
X104827703Y-170937802D01*
X104822980Y-170951716D01*
X104815424Y-170966193D01*
X104805807Y-170978248D01*
X104804003Y-170980022D01*
X104791570Y-170989360D01*
X104776251Y-170996766D01*
X104761282Y-171001462D01*
X104744309Y-171004816D01*
X104729288Y-171006534D01*
X104712985Y-171007392D01*
X104704352Y-171007500D01*
X104450828Y-171007500D01*
X104434210Y-171007070D01*
X104418794Y-171005782D01*
X104401215Y-171002965D01*
X104385514Y-170998806D01*
X104371691Y-170993305D01*
X104357583Y-170984933D01*
X104351543Y-170980022D01*
X104341209Y-170968370D01*
X104333013Y-170954297D01*
X104326956Y-170937802D01*
X104323541Y-170922206D01*
X104321610Y-170904929D01*
X104321135Y-170889897D01*
X104321851Y-170872303D01*
X104323997Y-170856158D01*
X104327575Y-170841462D01*
X104333758Y-170825740D01*
X104342001Y-170812105D01*
X104350444Y-170802336D01*
X104362466Y-170792375D01*
X104376548Y-170784475D01*
X104392691Y-170778636D01*
X104407717Y-170775345D01*
X104424175Y-170773484D01*
X104438372Y-170773026D01*
X104450828Y-170773026D01*
X104450828Y-170480668D01*
X104450694Y-170465784D01*
X104449987Y-170444489D01*
X104448676Y-170424431D01*
X104446759Y-170405609D01*
X104444236Y-170388023D01*
X104441109Y-170371674D01*
X104437376Y-170356562D01*
X104431457Y-170338335D01*
X104424461Y-170322307D01*
X104416390Y-170308476D01*
X104407059Y-170296455D01*
X104396286Y-170286037D01*
X104384070Y-170277221D01*
X104370411Y-170270008D01*
X104355310Y-170264398D01*
X104338767Y-170260391D01*
X104320780Y-170257987D01*
X104301352Y-170257185D01*
X104285620Y-170257723D01*
X104270435Y-170259336D01*
X104255798Y-170262025D01*
X104237134Y-170267283D01*
X104219442Y-170274453D01*
X104202724Y-170283535D01*
X104186979Y-170294529D01*
X104175809Y-170304029D01*
X104165186Y-170314604D01*
X104161767Y-170318368D01*
X104152142Y-170330191D01*
X104143464Y-170342716D01*
X104135733Y-170355942D01*
X104128949Y-170369871D01*
X104123111Y-170384502D01*
X104118220Y-170399834D01*
X104114275Y-170415869D01*
X104111277Y-170432605D01*
X104109226Y-170450044D01*
X104108122Y-170468184D01*
X104107911Y-170480668D01*
X104107911Y-170773026D01*
X104120368Y-170773026D01*
X104137952Y-170773742D01*
X104154070Y-170775889D01*
X104168721Y-170779466D01*
X104184366Y-170785649D01*
X104197899Y-170793892D01*
X104207562Y-170802336D01*
X104217398Y-170814232D01*
X104225199Y-170828216D01*
X104230965Y-170844286D01*
X104234216Y-170859271D01*
X104236053Y-170875706D01*
X104236505Y-170889897D01*
X104236036Y-170904929D01*
X104234129Y-170922206D01*
X104230755Y-170937802D01*
X104225914Y-170951716D01*
X104218169Y-170966193D01*
X104208311Y-170978248D01*
X104206463Y-170980022D01*
X104193944Y-170989360D01*
X104178642Y-170996766D01*
X104163766Y-171001462D01*
X104146958Y-171004816D01*
X104132120Y-171006534D01*
X104116046Y-171007392D01*
X104107545Y-171007500D01*
X103852189Y-171007500D01*
X103835577Y-171007070D01*
X103820178Y-171005782D01*
X103802636Y-171002965D01*
X103786990Y-170998806D01*
X103773241Y-170993305D01*
X103759245Y-170984933D01*
X103753271Y-170980022D01*
X103743186Y-170968370D01*
X103735187Y-170954297D01*
X103729275Y-170937802D01*
X103725942Y-170922206D01*
X103724059Y-170904929D01*
X103723595Y-170889897D01*
X103724293Y-170872303D01*
X103726386Y-170856158D01*
X103729874Y-170841462D01*
X103735902Y-170825740D01*
X103743939Y-170812105D01*
X103752172Y-170802336D01*
X103764068Y-170792375D01*
X103778052Y-170784475D01*
X103794122Y-170778636D01*
X103809107Y-170775345D01*
X103825542Y-170773484D01*
X103839733Y-170773026D01*
X103852189Y-170773026D01*
X103852189Y-170280633D01*
X103834603Y-170280633D01*
X103817854Y-170279917D01*
X103802411Y-170277771D01*
X103785602Y-170273306D01*
X103770674Y-170266780D01*
X103757627Y-170258193D01*
X103749973Y-170251324D01*
X103740262Y-170239242D01*
X103732560Y-170225255D01*
X103726867Y-170209361D01*
X103723657Y-170194660D01*
X103721843Y-170178635D01*
X103721397Y-170164862D01*
X103721861Y-170149658D01*
X103723744Y-170132198D01*
X103727077Y-170116456D01*
X103731859Y-170102431D01*
X103739509Y-170087868D01*
X103749247Y-170075778D01*
X103751072Y-170074003D01*
X103763781Y-170064541D01*
X103779374Y-170057036D01*
X103794572Y-170052278D01*
X103811774Y-170048879D01*
X103826979Y-170047139D01*
X103843465Y-170046268D01*
X103852189Y-170046160D01*
X104027677Y-170046160D01*
X104042679Y-170047116D01*
X104058103Y-170050882D01*
X104071275Y-170058250D01*
X104081000Y-170069887D01*
X104085577Y-170083849D01*
X104086296Y-170093421D01*
X104086296Y-170179516D01*
X104095389Y-170165226D01*
X104104946Y-170151618D01*
X104114967Y-170138693D01*
X104125451Y-170126451D01*
X104136399Y-170114891D01*
X104147811Y-170104014D01*
X104159686Y-170093819D01*
X104172025Y-170084307D01*
X104184828Y-170075478D01*
X104198094Y-170067332D01*
X104207196Y-170062280D01*
X104221209Y-170055209D01*
X104235635Y-170048833D01*
X104250473Y-170043153D01*
X104265723Y-170038168D01*
X104281385Y-170033879D01*
X104297459Y-170030286D01*
X104313945Y-170027388D01*
X104330844Y-170025185D01*
X104348155Y-170023678D01*
X104365877Y-170022867D01*
X104377922Y-170022712D01*
X104398201Y-170023104D01*
X104417821Y-170024281D01*
X104436783Y-170026241D01*
X104455087Y-170028986D01*
X104472733Y-170032515D01*
X104489720Y-170036829D01*
X104506049Y-170041926D01*
X104521720Y-170047808D01*
X104536732Y-170054474D01*
X104551086Y-170061925D01*
X104564782Y-170070159D01*
X104577819Y-170079178D01*
X104590198Y-170088981D01*
X104601919Y-170099569D01*
X104612982Y-170110940D01*
X104623386Y-170123096D01*
X104633190Y-170136009D01*
X104642362Y-170149743D01*
X104650902Y-170164299D01*
X104658809Y-170179677D01*
X104666083Y-170195875D01*
X104672725Y-170212895D01*
X104678734Y-170230737D01*
X104684111Y-170249400D01*
X104688855Y-170268885D01*
X104692966Y-170289191D01*
X104696445Y-170310318D01*
X104699292Y-170332267D01*
X104701506Y-170355038D01*
X104703087Y-170378630D01*
X104704036Y-170403043D01*
X104704352Y-170428278D01*
X104704352Y-170773026D01*
G37*
G36*
X105578931Y-170023229D02*
G01*
X105605877Y-170024779D01*
X105632226Y-170027362D01*
X105657976Y-170030978D01*
X105683127Y-170035628D01*
X105707681Y-170041311D01*
X105731636Y-170048027D01*
X105754993Y-170055777D01*
X105777752Y-170064559D01*
X105799913Y-170074375D01*
X105821476Y-170085225D01*
X105842440Y-170097107D01*
X105862806Y-170110023D01*
X105882574Y-170123972D01*
X105901744Y-170138954D01*
X105920315Y-170154970D01*
X105938061Y-170171691D01*
X105954662Y-170188881D01*
X105970118Y-170206541D01*
X105984429Y-170224671D01*
X105997595Y-170243269D01*
X106009617Y-170262337D01*
X106020493Y-170281875D01*
X106030225Y-170301882D01*
X106038811Y-170322358D01*
X106046253Y-170343304D01*
X106052550Y-170364719D01*
X106057702Y-170386604D01*
X106061709Y-170408958D01*
X106064571Y-170431781D01*
X106066289Y-170455074D01*
X106066861Y-170478836D01*
X106066397Y-170493530D01*
X106064514Y-170510208D01*
X106061181Y-170525008D01*
X106055269Y-170540288D01*
X106047271Y-170552863D01*
X106037185Y-170562733D01*
X106024005Y-170570453D01*
X106009676Y-170575666D01*
X105992306Y-170579769D01*
X105976220Y-170582254D01*
X105958188Y-170584028D01*
X105943387Y-170584893D01*
X105927491Y-170585359D01*
X105916285Y-170585448D01*
X105251700Y-170585448D01*
X105257153Y-170604833D01*
X105263481Y-170623285D01*
X105270686Y-170640803D01*
X105278766Y-170657387D01*
X105287722Y-170673037D01*
X105297553Y-170687754D01*
X105308261Y-170701536D01*
X105319844Y-170714385D01*
X105332303Y-170726300D01*
X105345639Y-170737282D01*
X105355015Y-170744084D01*
X105369888Y-170753446D01*
X105385657Y-170761888D01*
X105402320Y-170769409D01*
X105419879Y-170776009D01*
X105438333Y-170781688D01*
X105457682Y-170786446D01*
X105477926Y-170790283D01*
X105499065Y-170793199D01*
X105513655Y-170794632D01*
X105528643Y-170795655D01*
X105544029Y-170796269D01*
X105559813Y-170796474D01*
X105575783Y-170796230D01*
X105591727Y-170795501D01*
X105607645Y-170794284D01*
X105623537Y-170792581D01*
X105639404Y-170790391D01*
X105655245Y-170787715D01*
X105671060Y-170784553D01*
X105686850Y-170780903D01*
X105702613Y-170776767D01*
X105718351Y-170772145D01*
X105734063Y-170767036D01*
X105749750Y-170761440D01*
X105765410Y-170755358D01*
X105781045Y-170748789D01*
X105796654Y-170741734D01*
X105812238Y-170734192D01*
X105827423Y-170726650D01*
X105841839Y-170719594D01*
X105855485Y-170713026D01*
X105874509Y-170704085D01*
X105891802Y-170696239D01*
X105907362Y-170689487D01*
X105921190Y-170683831D01*
X105936932Y-170677992D01*
X105952279Y-170673430D01*
X105962814Y-170671910D01*
X105978817Y-170673260D01*
X105993488Y-170677309D01*
X106006827Y-170684059D01*
X106018833Y-170693508D01*
X106025095Y-170700120D01*
X106034517Y-170713233D01*
X106041625Y-170727889D01*
X106046418Y-170744088D01*
X106048685Y-170759200D01*
X106049275Y-170772660D01*
X106048016Y-170791996D01*
X106044239Y-170810849D01*
X106037944Y-170829219D01*
X106029131Y-170847106D01*
X106017800Y-170864510D01*
X106003951Y-170881432D01*
X105993319Y-170892444D01*
X105981568Y-170903242D01*
X105968698Y-170913825D01*
X105954709Y-170924193D01*
X105939601Y-170934347D01*
X105923374Y-170944286D01*
X105906027Y-170954010D01*
X105887855Y-170963327D01*
X105869150Y-170972042D01*
X105849913Y-170980157D01*
X105830144Y-170987670D01*
X105809842Y-170994582D01*
X105789008Y-171000893D01*
X105767642Y-171006604D01*
X105745743Y-171011713D01*
X105723311Y-171016221D01*
X105700348Y-171020128D01*
X105676852Y-171023433D01*
X105652824Y-171026138D01*
X105628263Y-171028242D01*
X105603170Y-171029745D01*
X105577544Y-171030646D01*
X105551386Y-171030947D01*
X105535907Y-171030809D01*
X105520609Y-171030396D01*
X105505493Y-171029707D01*
X105490559Y-171028743D01*
X105475806Y-171027503D01*
X105446846Y-171024197D01*
X105418613Y-171019790D01*
X105391107Y-171014280D01*
X105364328Y-171007668D01*
X105338276Y-170999954D01*
X105312951Y-170991139D01*
X105288353Y-170981221D01*
X105264482Y-170970202D01*
X105241339Y-170958080D01*
X105218922Y-170944857D01*
X105197232Y-170930531D01*
X105176269Y-170915104D01*
X105156033Y-170898574D01*
X105146188Y-170889897D01*
X105127288Y-170871905D01*
X105109608Y-170853283D01*
X105093148Y-170834032D01*
X105077906Y-170814151D01*
X105063884Y-170793640D01*
X105051082Y-170772500D01*
X105039498Y-170750730D01*
X105029134Y-170728330D01*
X105019989Y-170705300D01*
X105012064Y-170681641D01*
X105005358Y-170657353D01*
X104999871Y-170632434D01*
X104995603Y-170606886D01*
X104992555Y-170580708D01*
X104990726Y-170553900D01*
X104990116Y-170526463D01*
X104990726Y-170499116D01*
X104992555Y-170472396D01*
X104995603Y-170446302D01*
X104995861Y-170444764D01*
X105251700Y-170444764D01*
X105807109Y-170444764D01*
X105803325Y-170424257D01*
X105798569Y-170404639D01*
X105792841Y-170385909D01*
X105786140Y-170368068D01*
X105778467Y-170351116D01*
X105769821Y-170335052D01*
X105760203Y-170319877D01*
X105749612Y-170305591D01*
X105738049Y-170292194D01*
X105725514Y-170279685D01*
X105716617Y-170271840D01*
X105702632Y-170260841D01*
X105687881Y-170250923D01*
X105672364Y-170242087D01*
X105656081Y-170234334D01*
X105639031Y-170227662D01*
X105621215Y-170222072D01*
X105602632Y-170217564D01*
X105583283Y-170214138D01*
X105563168Y-170211794D01*
X105542286Y-170210531D01*
X105527939Y-170210291D01*
X105507237Y-170210803D01*
X105487307Y-170212339D01*
X105468150Y-170214899D01*
X105449766Y-170218483D01*
X105432155Y-170223090D01*
X105415316Y-170228722D01*
X105399251Y-170235378D01*
X105383958Y-170243058D01*
X105369438Y-170251761D01*
X105355691Y-170261489D01*
X105346955Y-170268543D01*
X105334477Y-170279990D01*
X105322732Y-170292487D01*
X105311722Y-170306033D01*
X105301446Y-170320629D01*
X105291904Y-170336275D01*
X105283096Y-170352971D01*
X105275023Y-170370717D01*
X105267683Y-170389512D01*
X105261078Y-170409357D01*
X105255207Y-170430251D01*
X105251700Y-170444764D01*
X104995861Y-170444764D01*
X104999871Y-170420836D01*
X105005358Y-170395996D01*
X105012064Y-170371783D01*
X105019989Y-170348197D01*
X105029134Y-170325238D01*
X105039498Y-170302905D01*
X105051082Y-170281200D01*
X105063884Y-170260121D01*
X105077906Y-170239669D01*
X105093148Y-170219844D01*
X105109608Y-170200645D01*
X105127288Y-170182074D01*
X105146188Y-170164129D01*
X105166060Y-170147004D01*
X105186659Y-170130984D01*
X105207986Y-170116069D01*
X105230039Y-170102259D01*
X105252820Y-170089554D01*
X105276327Y-170077953D01*
X105300561Y-170067457D01*
X105325523Y-170058066D01*
X105351211Y-170049780D01*
X105377627Y-170042599D01*
X105404769Y-170036523D01*
X105432639Y-170031551D01*
X105461235Y-170027684D01*
X105490559Y-170024922D01*
X105505493Y-170023955D01*
X105520609Y-170023265D01*
X105535907Y-170022850D01*
X105551386Y-170022712D01*
X105578931Y-170023229D01*
G37*
G36*
X107186539Y-169648471D02*
G01*
X107201412Y-169651691D01*
X107214789Y-169658775D01*
X107218344Y-169662210D01*
X107225644Y-169674977D01*
X107229363Y-169689802D01*
X107230966Y-169706288D01*
X107231167Y-169715699D01*
X107231167Y-170773026D01*
X107248752Y-170773026D01*
X107265475Y-170773751D01*
X107280838Y-170775924D01*
X107297479Y-170780445D01*
X107312162Y-170787053D01*
X107324887Y-170795747D01*
X107332283Y-170802702D01*
X107341746Y-170814659D01*
X107349250Y-170828548D01*
X107354797Y-170844369D01*
X107357924Y-170859029D01*
X107359692Y-170875030D01*
X107360127Y-170888797D01*
X107359663Y-170904002D01*
X107357779Y-170921461D01*
X107354447Y-170937203D01*
X107349665Y-170951228D01*
X107342014Y-170965791D01*
X107332277Y-170977881D01*
X107330451Y-170979656D01*
X107318031Y-170989118D01*
X107302751Y-170996623D01*
X107287833Y-171001382D01*
X107270930Y-171004780D01*
X107255978Y-171006521D01*
X107239755Y-171007391D01*
X107231167Y-171007500D01*
X107073630Y-171007500D01*
X107057833Y-171006485D01*
X107042863Y-171002979D01*
X107029537Y-170996230D01*
X107027468Y-170994677D01*
X107017868Y-170983394D01*
X107012699Y-170969329D01*
X107011714Y-170958407D01*
X107011714Y-170878906D01*
X107001980Y-170892410D01*
X106991738Y-170905310D01*
X106980986Y-170917604D01*
X106969726Y-170929292D01*
X106957957Y-170940375D01*
X106945679Y-170950853D01*
X106932892Y-170960726D01*
X106919597Y-170969993D01*
X106905793Y-170978655D01*
X106891480Y-170986711D01*
X106881655Y-170991746D01*
X106866643Y-170998751D01*
X106851284Y-171005068D01*
X106835577Y-171010696D01*
X106819522Y-171015634D01*
X106803119Y-171019883D01*
X106786369Y-171023444D01*
X106769271Y-171026315D01*
X106751825Y-171028497D01*
X106734031Y-171029990D01*
X106715890Y-171030794D01*
X106703602Y-171030947D01*
X106678625Y-171030406D01*
X106654160Y-171028783D01*
X106630208Y-171026078D01*
X106606767Y-171022291D01*
X106583840Y-171017423D01*
X106561424Y-171011472D01*
X106539521Y-171004440D01*
X106518130Y-170996325D01*
X106497252Y-170987129D01*
X106476886Y-170976851D01*
X106457032Y-170965491D01*
X106437690Y-170953049D01*
X106418861Y-170939525D01*
X106400544Y-170924919D01*
X106382740Y-170909231D01*
X106365448Y-170892461D01*
X106348989Y-170874880D01*
X106333591Y-170856758D01*
X106319256Y-170838095D01*
X106305982Y-170818891D01*
X106293771Y-170799146D01*
X106282621Y-170778860D01*
X106272533Y-170758033D01*
X106263507Y-170736665D01*
X106255543Y-170714756D01*
X106248641Y-170692306D01*
X106242800Y-170669315D01*
X106238022Y-170645783D01*
X106234305Y-170621711D01*
X106231650Y-170597097D01*
X106230058Y-170571942D01*
X106229527Y-170546247D01*
X106229711Y-170537088D01*
X106514192Y-170537088D01*
X106514771Y-170558153D01*
X106516510Y-170578484D01*
X106519408Y-170598081D01*
X106523465Y-170616944D01*
X106528682Y-170635072D01*
X106535057Y-170652467D01*
X106542592Y-170669127D01*
X106551286Y-170685053D01*
X106561139Y-170700245D01*
X106572152Y-170714703D01*
X106580137Y-170723934D01*
X106592818Y-170736897D01*
X106606129Y-170748586D01*
X106620072Y-170758999D01*
X106634645Y-170768138D01*
X106649850Y-170776001D01*
X106665686Y-170782589D01*
X106682153Y-170787902D01*
X106699252Y-170791940D01*
X106716981Y-170794703D01*
X106735341Y-170796190D01*
X106747932Y-170796474D01*
X106766717Y-170795833D01*
X106784876Y-170793911D01*
X106802411Y-170790707D01*
X106819322Y-170786221D01*
X106835607Y-170780454D01*
X106851268Y-170773406D01*
X106866305Y-170765075D01*
X106880716Y-170755464D01*
X106894503Y-170744571D01*
X106907666Y-170732396D01*
X106916093Y-170723567D01*
X106928010Y-170709540D01*
X106938754Y-170694798D01*
X106948326Y-170679341D01*
X106956725Y-170663169D01*
X106963953Y-170646282D01*
X106970009Y-170628680D01*
X106974893Y-170610364D01*
X106978604Y-170591333D01*
X106981144Y-170571586D01*
X106982511Y-170551126D01*
X106982772Y-170537088D01*
X106982182Y-170516674D01*
X106980415Y-170496924D01*
X106977468Y-170477837D01*
X106973344Y-170459413D01*
X106968040Y-170441652D01*
X106961558Y-170424555D01*
X106953898Y-170408121D01*
X106945059Y-170392351D01*
X106935042Y-170377244D01*
X106923846Y-170362800D01*
X106915727Y-170353539D01*
X106902922Y-170340510D01*
X106889512Y-170328762D01*
X106875496Y-170318296D01*
X106860875Y-170309112D01*
X106845649Y-170301209D01*
X106829817Y-170294588D01*
X106813380Y-170289248D01*
X106796338Y-170285189D01*
X106778690Y-170282413D01*
X106760437Y-170280918D01*
X106747932Y-170280633D01*
X106729341Y-170281270D01*
X106711349Y-170283183D01*
X106693955Y-170286371D01*
X106677161Y-170290834D01*
X106660965Y-170296572D01*
X106645369Y-170303585D01*
X106630371Y-170311873D01*
X106615972Y-170321437D01*
X106602172Y-170332275D01*
X106588972Y-170344389D01*
X106580504Y-170353173D01*
X106568653Y-170367116D01*
X106557968Y-170381741D01*
X106548449Y-170397049D01*
X106540095Y-170413039D01*
X106532907Y-170429712D01*
X106526884Y-170447068D01*
X106522027Y-170465106D01*
X106518336Y-170483828D01*
X106515811Y-170503231D01*
X106514451Y-170523318D01*
X106514192Y-170537088D01*
X106229711Y-170537088D01*
X106230063Y-170519561D01*
X106231673Y-170493450D01*
X106234357Y-170467915D01*
X106238113Y-170442955D01*
X106242943Y-170418570D01*
X106248847Y-170394761D01*
X106255823Y-170371527D01*
X106263873Y-170348868D01*
X106272997Y-170326785D01*
X106283193Y-170305277D01*
X106294463Y-170284344D01*
X106306807Y-170263986D01*
X106320223Y-170244204D01*
X106334713Y-170224997D01*
X106350277Y-170206365D01*
X106366913Y-170188309D01*
X106384423Y-170171096D01*
X106402514Y-170154993D01*
X106421185Y-170140000D01*
X106440438Y-170126119D01*
X106460272Y-170113347D01*
X106480687Y-170101687D01*
X106501682Y-170091137D01*
X106523259Y-170081697D01*
X106545417Y-170073368D01*
X106568156Y-170066149D01*
X106591476Y-170060041D01*
X106615377Y-170055044D01*
X106639859Y-170051157D01*
X106664922Y-170048381D01*
X106690566Y-170046715D01*
X106716791Y-170046160D01*
X106735052Y-170046566D01*
X106753199Y-170047785D01*
X106771231Y-170049818D01*
X106789148Y-170052663D01*
X106806951Y-170056321D01*
X106824640Y-170060791D01*
X106842214Y-170066075D01*
X106859673Y-170072172D01*
X106876887Y-170078921D01*
X106893722Y-170086345D01*
X106910180Y-170094445D01*
X106926260Y-170103221D01*
X106941962Y-170112672D01*
X106957286Y-170122798D01*
X106972233Y-170133601D01*
X106986802Y-170145078D01*
X106986802Y-169882028D01*
X106849781Y-169882028D01*
X106832654Y-169881593D01*
X106816809Y-169880288D01*
X106802246Y-169878113D01*
X106785845Y-169874170D01*
X106771448Y-169868868D01*
X106756816Y-169860711D01*
X106748665Y-169854185D01*
X106738580Y-169842447D01*
X106730581Y-169828390D01*
X106724669Y-169812016D01*
X106721337Y-169796599D01*
X106719453Y-169779572D01*
X106718989Y-169764792D01*
X106719453Y-169749765D01*
X106721337Y-169732511D01*
X106724669Y-169716957D01*
X106729451Y-169703102D01*
X106737102Y-169688719D01*
X106746839Y-169676784D01*
X106748665Y-169675033D01*
X106761373Y-169665695D01*
X106776967Y-169658289D01*
X106792165Y-169653593D01*
X106809367Y-169650239D01*
X106824571Y-169648521D01*
X106841057Y-169647663D01*
X106849781Y-169647555D01*
X107170350Y-169647555D01*
X107186539Y-169648471D01*
G37*
G36*
X109079818Y-169648586D02*
G01*
X109094421Y-169652208D01*
X109107315Y-169659292D01*
X109112447Y-169664042D01*
X109120999Y-169677549D01*
X109125356Y-169692206D01*
X109127233Y-169707960D01*
X109127468Y-169716798D01*
X109127468Y-170145078D01*
X109140119Y-170133847D01*
X109153343Y-170123234D01*
X109167138Y-170113239D01*
X109181507Y-170103862D01*
X109196448Y-170095104D01*
X109211961Y-170086963D01*
X109228047Y-170079442D01*
X109244705Y-170072538D01*
X109261838Y-170066355D01*
X109279166Y-170060997D01*
X109296688Y-170056464D01*
X109314405Y-170052754D01*
X109332317Y-170049869D01*
X109350424Y-170047808D01*
X109368725Y-170046572D01*
X109387220Y-170046160D01*
X109413706Y-170046718D01*
X109439582Y-170048392D01*
X109464848Y-170051183D01*
X109489505Y-170055090D01*
X109513552Y-170060113D01*
X109536989Y-170066252D01*
X109559817Y-170073508D01*
X109582035Y-170081880D01*
X109603643Y-170091368D01*
X109624642Y-170101973D01*
X109645031Y-170113694D01*
X109664810Y-170126531D01*
X109683980Y-170140484D01*
X109702540Y-170155554D01*
X109720490Y-170171740D01*
X109737831Y-170189042D01*
X109754379Y-170207171D01*
X109769859Y-170225930D01*
X109784272Y-170245319D01*
X109797617Y-170265337D01*
X109809895Y-170285985D01*
X109821104Y-170307263D01*
X109831247Y-170329170D01*
X109840321Y-170351707D01*
X109848328Y-170374874D01*
X109855268Y-170398671D01*
X109861140Y-170423097D01*
X109865944Y-170448153D01*
X109869681Y-170473838D01*
X109872350Y-170500154D01*
X109873951Y-170527099D01*
X109874485Y-170554673D01*
X109873941Y-170579829D01*
X109872310Y-170604464D01*
X109869590Y-170628579D01*
X109865784Y-170652172D01*
X109860889Y-170675244D01*
X109854907Y-170697796D01*
X109847838Y-170719826D01*
X109839680Y-170741336D01*
X109830435Y-170762325D01*
X109820103Y-170782792D01*
X109808682Y-170802739D01*
X109796174Y-170822165D01*
X109782579Y-170841070D01*
X109767896Y-170859454D01*
X109752125Y-170877317D01*
X109735266Y-170894659D01*
X109717584Y-170911163D01*
X109699340Y-170926602D01*
X109680535Y-170940976D01*
X109661169Y-170954285D01*
X109641242Y-170966530D01*
X109620755Y-170977710D01*
X109599706Y-170987825D01*
X109578096Y-170996875D01*
X109555925Y-171004861D01*
X109533194Y-171011781D01*
X109509901Y-171017637D01*
X109486047Y-171022429D01*
X109461632Y-171026155D01*
X109436657Y-171028817D01*
X109411120Y-171030414D01*
X109385022Y-171030947D01*
X109366501Y-171030625D01*
X109348443Y-171029659D01*
X109330849Y-171028049D01*
X109313719Y-171025795D01*
X109297052Y-171022897D01*
X109280849Y-171019355D01*
X109265109Y-171015169D01*
X109249834Y-171010339D01*
X109235022Y-171004865D01*
X109220673Y-170998747D01*
X109211366Y-170994310D01*
X109197796Y-170987047D01*
X109184704Y-170979133D01*
X109172088Y-170970569D01*
X109159949Y-170961355D01*
X109148286Y-170951490D01*
X109137099Y-170940974D01*
X109126390Y-170929808D01*
X109116157Y-170917992D01*
X109106400Y-170905525D01*
X109097120Y-170892408D01*
X109091198Y-170883302D01*
X109091198Y-170958407D01*
X109088931Y-170974103D01*
X109082131Y-170987120D01*
X109075078Y-170994310D01*
X109061408Y-171002348D01*
X109047183Y-171006212D01*
X109032178Y-171007487D01*
X109030382Y-171007500D01*
X108871746Y-171007500D01*
X108854887Y-171007087D01*
X108839300Y-171005851D01*
X108821602Y-171003146D01*
X108805890Y-170999153D01*
X108792164Y-170993872D01*
X108778314Y-170985835D01*
X108772461Y-170981121D01*
X108762501Y-170969967D01*
X108754601Y-170956289D01*
X108748762Y-170940086D01*
X108745470Y-170924655D01*
X108743610Y-170907471D01*
X108743152Y-170892461D01*
X108743841Y-170876037D01*
X108745907Y-170860884D01*
X108750204Y-170844376D01*
X108756486Y-170829697D01*
X108764750Y-170816847D01*
X108771362Y-170809296D01*
X108782907Y-170799585D01*
X108796384Y-170791883D01*
X108811792Y-170786190D01*
X108826109Y-170782980D01*
X108841767Y-170781167D01*
X108855259Y-170780720D01*
X108871746Y-170780720D01*
X108871746Y-170537088D01*
X109121240Y-170537088D01*
X109121820Y-170558153D01*
X109123558Y-170578484D01*
X109126456Y-170598081D01*
X109130514Y-170616944D01*
X109135730Y-170635072D01*
X109142105Y-170652467D01*
X109149640Y-170669127D01*
X109158334Y-170685053D01*
X109168187Y-170700245D01*
X109179200Y-170714703D01*
X109187185Y-170723934D01*
X109199866Y-170736897D01*
X109213177Y-170748586D01*
X109227120Y-170758999D01*
X109241694Y-170768138D01*
X109256898Y-170776001D01*
X109272734Y-170782589D01*
X109289201Y-170787902D01*
X109306300Y-170791940D01*
X109324029Y-170794703D01*
X109342389Y-170796190D01*
X109354980Y-170796474D01*
X109373765Y-170795833D01*
X109391924Y-170793911D01*
X109409459Y-170790707D01*
X109426370Y-170786221D01*
X109442656Y-170780454D01*
X109458317Y-170773406D01*
X109473353Y-170765075D01*
X109487764Y-170755464D01*
X109501551Y-170744571D01*
X109514714Y-170732396D01*
X109523142Y-170723567D01*
X109535058Y-170709540D01*
X109545802Y-170694798D01*
X109555374Y-170679341D01*
X109563774Y-170663169D01*
X109571001Y-170646282D01*
X109577057Y-170628680D01*
X109581941Y-170610364D01*
X109585652Y-170591333D01*
X109588192Y-170571586D01*
X109589559Y-170551126D01*
X109589820Y-170537088D01*
X109589231Y-170516674D01*
X109587463Y-170496924D01*
X109584516Y-170477837D01*
X109580392Y-170459413D01*
X109575088Y-170441652D01*
X109568606Y-170424555D01*
X109560946Y-170408121D01*
X109552107Y-170392351D01*
X109542090Y-170377244D01*
X109530894Y-170362800D01*
X109522775Y-170353539D01*
X109509970Y-170340510D01*
X109496560Y-170328762D01*
X109482544Y-170318296D01*
X109467924Y-170309112D01*
X109452697Y-170301209D01*
X109436866Y-170294588D01*
X109420429Y-170289248D01*
X109403386Y-170285189D01*
X109385738Y-170282413D01*
X109367485Y-170280918D01*
X109354980Y-170280633D01*
X109336389Y-170281270D01*
X109318397Y-170283183D01*
X109301003Y-170286371D01*
X109284209Y-170290834D01*
X109268014Y-170296572D01*
X109252417Y-170303585D01*
X109237419Y-170311873D01*
X109223020Y-170321437D01*
X109209221Y-170332275D01*
X109196020Y-170344389D01*
X109187552Y-170353173D01*
X109175701Y-170367116D01*
X109165016Y-170381741D01*
X109155497Y-170397049D01*
X109147143Y-170413039D01*
X109139955Y-170429712D01*
X109133932Y-170447068D01*
X109129076Y-170465106D01*
X109125384Y-170483828D01*
X109122859Y-170503231D01*
X109121499Y-170523318D01*
X109121240Y-170537088D01*
X108871746Y-170537088D01*
X108871746Y-169882028D01*
X108855259Y-169882028D01*
X108838501Y-169881295D01*
X108823031Y-169879095D01*
X108806167Y-169874518D01*
X108791157Y-169867829D01*
X108778002Y-169859028D01*
X108770263Y-169851987D01*
X108760302Y-169839768D01*
X108752403Y-169825643D01*
X108746564Y-169809611D01*
X108743272Y-169794796D01*
X108741412Y-169778656D01*
X108740954Y-169764792D01*
X108741417Y-169749765D01*
X108743301Y-169732511D01*
X108746634Y-169716957D01*
X108751416Y-169703102D01*
X108759066Y-169688719D01*
X108768804Y-169676784D01*
X108770629Y-169675033D01*
X108783338Y-169665695D01*
X108798931Y-169658289D01*
X108814129Y-169653593D01*
X108831331Y-169650239D01*
X108846535Y-169648521D01*
X108863022Y-169647663D01*
X108871746Y-169647555D01*
X109064453Y-169647555D01*
X109079818Y-169648586D01*
G37*
G36*
X110391791Y-170280633D02*
G01*
X110577172Y-170719537D01*
X110772077Y-170280633D01*
X110755591Y-170280633D01*
X110738833Y-170279899D01*
X110723362Y-170277699D01*
X110706498Y-170273122D01*
X110691489Y-170266433D01*
X110678334Y-170257632D01*
X110670594Y-170250591D01*
X110660634Y-170238359D01*
X110652734Y-170224196D01*
X110646895Y-170208100D01*
X110643604Y-170193211D01*
X110641743Y-170176980D01*
X110641285Y-170163030D01*
X110641743Y-170147757D01*
X110643604Y-170130276D01*
X110646895Y-170114584D01*
X110651618Y-170100681D01*
X110659174Y-170086358D01*
X110668791Y-170074612D01*
X110670594Y-170072904D01*
X110683092Y-170063815D01*
X110698604Y-170056607D01*
X110713833Y-170052036D01*
X110731155Y-170048771D01*
X110746519Y-170047100D01*
X110763223Y-170046264D01*
X110772077Y-170046160D01*
X111014244Y-170046160D01*
X111031618Y-170046589D01*
X111047652Y-170047877D01*
X111062347Y-170050024D01*
X111078831Y-170053914D01*
X111093223Y-170059147D01*
X111107730Y-170067197D01*
X111115727Y-170073637D01*
X111125688Y-170085040D01*
X111133587Y-170098916D01*
X111139426Y-170115265D01*
X111142718Y-170130778D01*
X111144578Y-170148009D01*
X111145036Y-170163030D01*
X111144330Y-170180334D01*
X111142210Y-170196296D01*
X111138677Y-170210917D01*
X111132572Y-170226690D01*
X111124431Y-170240532D01*
X111116093Y-170250591D01*
X111104312Y-170260800D01*
X111090677Y-170268898D01*
X111075186Y-170274883D01*
X111060861Y-170278256D01*
X111045248Y-170280163D01*
X111031830Y-170280633D01*
X111014244Y-170280633D01*
X110590727Y-171195078D01*
X110636889Y-171195078D01*
X110653845Y-171195507D01*
X110669541Y-171196795D01*
X110687391Y-171199613D01*
X110703272Y-171203772D01*
X110717186Y-171209273D01*
X110731286Y-171217645D01*
X110737273Y-171222555D01*
X110747607Y-171234207D01*
X110755803Y-171248281D01*
X110761861Y-171264776D01*
X110765276Y-171280371D01*
X110767206Y-171297649D01*
X110767681Y-171312681D01*
X110767206Y-171327536D01*
X110765276Y-171344607D01*
X110761861Y-171360015D01*
X110755803Y-171376308D01*
X110747607Y-171390206D01*
X110737273Y-171401707D01*
X110724590Y-171411170D01*
X110709074Y-171418675D01*
X110693979Y-171423433D01*
X110676917Y-171426832D01*
X110661850Y-171428572D01*
X110645524Y-171429442D01*
X110636889Y-171429551D01*
X110185528Y-171429551D01*
X110168401Y-171429128D01*
X110152555Y-171427857D01*
X110137992Y-171425739D01*
X110121592Y-171421900D01*
X110107195Y-171416737D01*
X110092563Y-171408794D01*
X110084412Y-171402440D01*
X110074327Y-171391024D01*
X110066328Y-171377110D01*
X110060416Y-171360696D01*
X110057083Y-171345110D01*
X110055200Y-171327788D01*
X110054736Y-171312681D01*
X110055200Y-171297649D01*
X110057083Y-171280371D01*
X110060416Y-171264776D01*
X110065198Y-171250862D01*
X110072849Y-171236385D01*
X110082586Y-171224329D01*
X110084412Y-171222555D01*
X110097120Y-171213217D01*
X110112713Y-171205811D01*
X110127912Y-171201116D01*
X110145114Y-171197761D01*
X110160318Y-171196044D01*
X110176804Y-171195185D01*
X110185528Y-171195078D01*
X110345263Y-171195078D01*
X110441983Y-170986983D01*
X110129841Y-170280633D01*
X110113354Y-170280633D01*
X110096596Y-170279899D01*
X110081126Y-170277699D01*
X110064262Y-170273122D01*
X110049252Y-170266433D01*
X110036097Y-170257632D01*
X110028358Y-170250591D01*
X110018397Y-170238359D01*
X110010498Y-170224196D01*
X110004659Y-170208100D01*
X110001367Y-170193211D01*
X109999507Y-170176980D01*
X109999049Y-170163030D01*
X109999512Y-170147757D01*
X110001396Y-170130276D01*
X110004729Y-170114584D01*
X110009510Y-170100681D01*
X110017161Y-170086358D01*
X110026898Y-170074612D01*
X110028724Y-170072904D01*
X110041432Y-170063815D01*
X110057026Y-170056607D01*
X110072224Y-170052036D01*
X110089426Y-170048771D01*
X110104630Y-170047100D01*
X110121117Y-170046264D01*
X110129841Y-170046160D01*
X110391791Y-170046160D01*
X110408913Y-170046589D01*
X110424741Y-170047877D01*
X110439275Y-170050024D01*
X110455624Y-170053914D01*
X110469951Y-170059147D01*
X110484476Y-170067197D01*
X110492541Y-170073637D01*
X110502751Y-170085040D01*
X110510848Y-170098916D01*
X110516833Y-170115265D01*
X110520207Y-170130778D01*
X110522114Y-170148009D01*
X110522583Y-170163030D01*
X110521868Y-170180334D01*
X110519721Y-170196296D01*
X110516143Y-170210917D01*
X110509961Y-170226690D01*
X110501718Y-170240532D01*
X110493274Y-170250591D01*
X110481394Y-170260800D01*
X110467737Y-170268898D01*
X110452303Y-170274883D01*
X110435091Y-170278755D01*
X110419390Y-170280369D01*
X110409377Y-170280633D01*
X110391791Y-170280633D01*
G37*
G36*
X112941008Y-169788312D02*
G01*
X112966542Y-169788531D01*
X112991177Y-169788896D01*
X113014914Y-169789407D01*
X113037751Y-169790064D01*
X113059690Y-169790867D01*
X113080730Y-169791816D01*
X113100872Y-169792910D01*
X113120115Y-169794151D01*
X113138458Y-169795538D01*
X113155904Y-169797071D01*
X113172450Y-169798749D01*
X113188098Y-169800574D01*
X113202847Y-169802545D01*
X113223285Y-169805774D01*
X113229649Y-169806924D01*
X113248138Y-169810577D01*
X113266099Y-169814669D01*
X113283532Y-169819198D01*
X113300437Y-169824166D01*
X113316814Y-169829571D01*
X113332663Y-169835414D01*
X113347984Y-169841695D01*
X113362776Y-169848415D01*
X113377041Y-169855572D01*
X113390778Y-169863166D01*
X113399642Y-169868473D01*
X113414985Y-169877971D01*
X113429873Y-169887965D01*
X113444305Y-169898453D01*
X113458283Y-169909437D01*
X113471806Y-169920916D01*
X113484873Y-169932890D01*
X113497485Y-169945359D01*
X113509643Y-169958324D01*
X113521345Y-169971783D01*
X113532592Y-169985738D01*
X113543384Y-170000188D01*
X113553721Y-170015133D01*
X113563603Y-170030573D01*
X113573029Y-170046509D01*
X113582001Y-170062939D01*
X113590518Y-170079865D01*
X113598592Y-170097160D01*
X113606145Y-170114790D01*
X113613178Y-170132755D01*
X113619689Y-170151054D01*
X113625680Y-170169689D01*
X113631150Y-170188658D01*
X113636099Y-170207962D01*
X113640526Y-170227602D01*
X113644433Y-170247576D01*
X113647819Y-170267884D01*
X113650684Y-170288528D01*
X113653029Y-170309507D01*
X113654852Y-170330820D01*
X113656154Y-170352469D01*
X113656935Y-170374452D01*
X113657196Y-170396770D01*
X113656900Y-170420352D01*
X113656011Y-170443562D01*
X113654530Y-170466400D01*
X113652456Y-170488865D01*
X113649790Y-170510959D01*
X113646531Y-170532680D01*
X113642680Y-170554029D01*
X113638237Y-170575006D01*
X113633201Y-170595612D01*
X113627572Y-170615845D01*
X113621351Y-170635706D01*
X113614537Y-170655194D01*
X113607131Y-170674311D01*
X113599133Y-170693056D01*
X113590542Y-170711429D01*
X113581359Y-170729429D01*
X113571676Y-170746972D01*
X113561495Y-170763970D01*
X113550816Y-170780425D01*
X113539639Y-170796336D01*
X113527964Y-170811704D01*
X113515791Y-170826527D01*
X113503120Y-170840807D01*
X113489951Y-170854542D01*
X113476284Y-170867734D01*
X113462118Y-170880383D01*
X113447455Y-170892487D01*
X113432294Y-170904047D01*
X113416635Y-170915064D01*
X113400478Y-170925537D01*
X113383822Y-170935466D01*
X113366669Y-170944851D01*
X113350664Y-170952814D01*
X113333971Y-170960216D01*
X113316592Y-170967056D01*
X113298525Y-170973336D01*
X113284525Y-170977678D01*
X113270138Y-170981704D01*
X113255364Y-170985414D01*
X113240205Y-170988809D01*
X113224659Y-170991889D01*
X113219391Y-170992845D01*
X113202801Y-170995464D01*
X113184769Y-170997825D01*
X113165295Y-170999929D01*
X113144378Y-171001775D01*
X113129631Y-171002863D01*
X113114244Y-171003836D01*
X113098216Y-171004695D01*
X113081546Y-171005439D01*
X113064235Y-171006068D01*
X113046284Y-171006584D01*
X113027691Y-171006984D01*
X113008456Y-171007271D01*
X112988581Y-171007442D01*
X112968065Y-171007500D01*
X112853759Y-171007500D01*
X112659952Y-171007500D01*
X112642825Y-171007076D01*
X112626980Y-171005805D01*
X112612417Y-171003687D01*
X112596016Y-170999848D01*
X112581619Y-170994685D01*
X112566987Y-170986743D01*
X112558836Y-170980389D01*
X112548751Y-170968797D01*
X112540752Y-170954629D01*
X112535681Y-170940854D01*
X112532058Y-170925291D01*
X112529885Y-170907939D01*
X112529189Y-170892769D01*
X112529160Y-170888797D01*
X112529858Y-170871723D01*
X112531951Y-170855989D01*
X112535439Y-170841598D01*
X112541467Y-170826099D01*
X112549504Y-170812532D01*
X112557737Y-170802702D01*
X112569531Y-170792617D01*
X112583205Y-170784618D01*
X112598760Y-170778706D01*
X112613158Y-170775374D01*
X112628863Y-170773490D01*
X112642367Y-170773026D01*
X112659952Y-170773026D01*
X112925566Y-170773026D01*
X112984185Y-170773026D01*
X113008149Y-170772666D01*
X113031314Y-170771584D01*
X113053681Y-170769781D01*
X113075249Y-170767256D01*
X113096019Y-170764010D01*
X113115990Y-170760043D01*
X113135163Y-170755355D01*
X113153537Y-170749945D01*
X113171112Y-170743815D01*
X113187889Y-170736962D01*
X113203867Y-170729389D01*
X113219047Y-170721094D01*
X113233428Y-170712078D01*
X113247011Y-170702341D01*
X113259795Y-170691882D01*
X113271781Y-170680703D01*
X113283049Y-170668727D01*
X113293591Y-170655973D01*
X113303405Y-170642440D01*
X113312493Y-170628129D01*
X113320854Y-170613040D01*
X113328487Y-170597172D01*
X113335394Y-170580525D01*
X113341573Y-170563100D01*
X113347026Y-170544896D01*
X113351751Y-170525914D01*
X113355750Y-170506153D01*
X113359021Y-170485614D01*
X113361566Y-170464296D01*
X113363383Y-170442199D01*
X113364474Y-170419325D01*
X113364837Y-170395671D01*
X113364468Y-170372416D01*
X113363360Y-170349910D01*
X113361514Y-170328154D01*
X113358930Y-170307148D01*
X113355607Y-170286892D01*
X113351545Y-170267386D01*
X113346745Y-170248630D01*
X113341207Y-170230624D01*
X113334930Y-170213368D01*
X113327915Y-170196861D01*
X113320161Y-170181105D01*
X113311669Y-170166098D01*
X113302438Y-170151841D01*
X113292469Y-170138335D01*
X113281761Y-170125578D01*
X113270315Y-170113571D01*
X113258172Y-170102302D01*
X113245282Y-170091761D01*
X113231645Y-170081946D01*
X113217261Y-170072858D01*
X113202130Y-170064498D01*
X113186252Y-170056864D01*
X113169627Y-170049958D01*
X113152254Y-170043778D01*
X113134135Y-170038326D01*
X113115269Y-170033600D01*
X113095655Y-170029602D01*
X113075295Y-170026330D01*
X113054188Y-170023786D01*
X113032333Y-170021968D01*
X113009732Y-170020878D01*
X112986383Y-170020514D01*
X112970849Y-170020601D01*
X112955952Y-170020926D01*
X112948647Y-170021247D01*
X112933621Y-170021991D01*
X112925566Y-170022712D01*
X112925566Y-170773026D01*
X112659952Y-170773026D01*
X112659952Y-170022712D01*
X112642367Y-170022712D01*
X112625618Y-170021988D01*
X112610174Y-170019814D01*
X112593366Y-170015293D01*
X112578438Y-170008686D01*
X112565390Y-169999992D01*
X112557737Y-169993037D01*
X112548025Y-169980930D01*
X112540323Y-169966865D01*
X112534630Y-169950842D01*
X112531421Y-169935994D01*
X112529607Y-169919787D01*
X112529160Y-169905842D01*
X112529641Y-169890981D01*
X112531595Y-169873887D01*
X112535051Y-169858438D01*
X112540010Y-169844635D01*
X112547944Y-169830244D01*
X112558042Y-169818222D01*
X112559935Y-169816449D01*
X112572939Y-169806862D01*
X112588597Y-169799259D01*
X112603672Y-169794438D01*
X112620590Y-169790994D01*
X112635450Y-169789231D01*
X112651490Y-169788349D01*
X112659952Y-169788239D01*
X112853759Y-169788239D01*
X112914576Y-169788239D01*
X112941008Y-169788312D01*
G37*
G36*
X114392322Y-170023041D02*
G01*
X114418289Y-170024029D01*
X114443281Y-170025675D01*
X114467296Y-170027979D01*
X114490335Y-170030941D01*
X114512399Y-170034562D01*
X114533486Y-170038841D01*
X114553598Y-170043778D01*
X114572733Y-170049374D01*
X114590892Y-170055628D01*
X114608076Y-170062540D01*
X114624283Y-170070111D01*
X114639514Y-170078340D01*
X114653770Y-170087227D01*
X114667049Y-170096772D01*
X114679352Y-170106976D01*
X114690843Y-170117923D01*
X114701592Y-170129788D01*
X114711599Y-170142572D01*
X114720866Y-170156275D01*
X114729391Y-170170897D01*
X114737175Y-170186437D01*
X114744217Y-170202896D01*
X114750519Y-170220274D01*
X114756078Y-170238571D01*
X114760897Y-170257787D01*
X114764974Y-170277921D01*
X114768310Y-170298974D01*
X114770905Y-170320946D01*
X114772758Y-170343836D01*
X114773870Y-170367646D01*
X114774241Y-170392374D01*
X114774241Y-170773026D01*
X114790727Y-170773026D01*
X114807485Y-170773778D01*
X114822956Y-170776032D01*
X114837138Y-170779788D01*
X114852457Y-170786280D01*
X114865920Y-170794935D01*
X114875724Y-170803801D01*
X114885809Y-170816119D01*
X114893807Y-170830265D01*
X114899719Y-170846241D01*
X114903052Y-170860951D01*
X114904935Y-170876931D01*
X114905399Y-170890629D01*
X114904924Y-170905656D01*
X114902994Y-170922910D01*
X114899579Y-170938464D01*
X114894679Y-170952319D01*
X114886839Y-170966702D01*
X114876862Y-170978637D01*
X114874991Y-170980389D01*
X114862197Y-170989602D01*
X114846620Y-170996909D01*
X114831515Y-171001543D01*
X114814478Y-171004852D01*
X114799457Y-171006546D01*
X114783199Y-171007394D01*
X114774607Y-171007500D01*
X114677520Y-171007500D01*
X114662127Y-171006999D01*
X114645332Y-171005075D01*
X114630365Y-171001709D01*
X114615216Y-170995959D01*
X114602556Y-170988245D01*
X114600950Y-170986983D01*
X114590311Y-170976394D01*
X114580514Y-170962580D01*
X114572786Y-170948171D01*
X114566818Y-170934354D01*
X114561280Y-170918891D01*
X114559185Y-170912245D01*
X114543086Y-170922857D01*
X114526800Y-170932986D01*
X114510328Y-170942632D01*
X114493669Y-170951795D01*
X114476823Y-170960475D01*
X114459790Y-170968672D01*
X114442570Y-170976386D01*
X114425164Y-170983617D01*
X114407571Y-170990365D01*
X114389791Y-170996630D01*
X114377834Y-171000539D01*
X114359821Y-171005973D01*
X114341775Y-171010873D01*
X114323697Y-171015238D01*
X114305586Y-171019069D01*
X114287444Y-171022365D01*
X114269269Y-171025126D01*
X114251062Y-171027354D01*
X114232823Y-171029046D01*
X114214552Y-171030204D01*
X114196248Y-171030828D01*
X114184028Y-171030947D01*
X114163560Y-171030638D01*
X114143648Y-171029710D01*
X114124290Y-171028165D01*
X114105488Y-171026001D01*
X114087242Y-171023219D01*
X114069550Y-171019818D01*
X114052414Y-171015800D01*
X114035833Y-171011163D01*
X114019808Y-171005908D01*
X114004338Y-171000035D01*
X113989423Y-170993543D01*
X113975063Y-170986434D01*
X113961258Y-170978706D01*
X113948009Y-170970359D01*
X113935315Y-170961395D01*
X113923176Y-170951812D01*
X113911730Y-170941647D01*
X113901023Y-170931027D01*
X113891054Y-170919951D01*
X113881823Y-170908421D01*
X113873331Y-170896435D01*
X113865577Y-170883995D01*
X113858562Y-170871099D01*
X113852285Y-170857748D01*
X113846747Y-170843942D01*
X113841947Y-170829681D01*
X113837885Y-170814965D01*
X113834562Y-170799794D01*
X113831977Y-170784168D01*
X113830131Y-170768086D01*
X113829024Y-170751550D01*
X113828654Y-170734558D01*
X113829132Y-170716226D01*
X113830370Y-170700853D01*
X114107824Y-170700853D01*
X114108826Y-170718377D01*
X114111831Y-170734541D01*
X114116840Y-170749346D01*
X114123852Y-170762791D01*
X114132868Y-170774877D01*
X114143888Y-170785603D01*
X114148857Y-170789513D01*
X114162671Y-170798273D01*
X114178237Y-170805548D01*
X114195558Y-170811339D01*
X114210676Y-170814902D01*
X114226916Y-170817516D01*
X114244278Y-170819179D01*
X114262762Y-170819891D01*
X114267559Y-170819921D01*
X114285196Y-170819612D01*
X114302570Y-170818685D01*
X114319680Y-170817139D01*
X114336527Y-170814975D01*
X114353111Y-170812193D01*
X114369431Y-170808793D01*
X114385488Y-170804774D01*
X114401282Y-170800137D01*
X114417001Y-170794756D01*
X114432652Y-170788688D01*
X114448234Y-170781934D01*
X114463747Y-170774492D01*
X114479191Y-170766363D01*
X114494567Y-170757547D01*
X114509874Y-170748045D01*
X114525113Y-170737855D01*
X114525113Y-170583982D01*
X114509176Y-170580682D01*
X114493650Y-170577650D01*
X114478536Y-170574886D01*
X114463833Y-170572390D01*
X114446732Y-170569750D01*
X114430225Y-170567496D01*
X114414232Y-170565628D01*
X114398677Y-170564147D01*
X114383560Y-170563052D01*
X114368881Y-170562344D01*
X114352310Y-170562006D01*
X114349991Y-170562001D01*
X114329193Y-170562326D01*
X114309251Y-170563301D01*
X114290166Y-170564928D01*
X114271938Y-170567204D01*
X114254566Y-170570131D01*
X114238051Y-170573708D01*
X114222392Y-170577936D01*
X114207590Y-170582815D01*
X114193644Y-170588343D01*
X114176382Y-170596727D01*
X114172304Y-170599003D01*
X114157192Y-170608689D01*
X114144094Y-170619245D01*
X114133012Y-170630671D01*
X114123944Y-170642967D01*
X114116892Y-170656133D01*
X114111854Y-170670170D01*
X114108831Y-170685076D01*
X114107824Y-170700853D01*
X113830370Y-170700853D01*
X113830566Y-170698414D01*
X113832956Y-170681123D01*
X113836302Y-170664354D01*
X113840604Y-170648105D01*
X113845862Y-170632377D01*
X113852076Y-170617170D01*
X113859246Y-170602484D01*
X113867372Y-170588319D01*
X113876454Y-170574674D01*
X113886491Y-170561551D01*
X113897485Y-170548949D01*
X113909435Y-170536867D01*
X113922341Y-170525307D01*
X113936202Y-170514267D01*
X113951020Y-170503749D01*
X113966748Y-170493767D01*
X113983249Y-170484429D01*
X114000522Y-170475735D01*
X114018568Y-170467685D01*
X114037388Y-170460279D01*
X114056980Y-170453517D01*
X114077344Y-170447399D01*
X114098482Y-170441925D01*
X114120392Y-170437095D01*
X114143075Y-170432909D01*
X114166531Y-170429367D01*
X114190760Y-170426469D01*
X114215761Y-170424215D01*
X114241536Y-170422605D01*
X114268083Y-170421639D01*
X114295403Y-170421317D01*
X114311011Y-170421442D01*
X114326923Y-170421818D01*
X114343139Y-170422444D01*
X114359659Y-170423320D01*
X114376484Y-170424447D01*
X114393612Y-170425825D01*
X114400549Y-170426446D01*
X114418273Y-170428201D01*
X114432916Y-170429824D01*
X114447972Y-170431641D01*
X114463439Y-170433653D01*
X114479319Y-170435860D01*
X114495611Y-170438261D01*
X114512314Y-170440857D01*
X114525113Y-170442932D01*
X114525113Y-170423148D01*
X114524717Y-170404078D01*
X114523529Y-170385882D01*
X114521548Y-170368563D01*
X114518776Y-170352120D01*
X114515211Y-170336552D01*
X114510855Y-170321860D01*
X114505706Y-170308044D01*
X114497609Y-170290985D01*
X114488103Y-170275484D01*
X114480050Y-170264879D01*
X114468206Y-170252085D01*
X114455023Y-170240997D01*
X114440500Y-170231614D01*
X114424637Y-170223938D01*
X114407436Y-170217967D01*
X114388894Y-170213703D01*
X114374109Y-170211624D01*
X114358570Y-170210504D01*
X114347793Y-170210291D01*
X114330173Y-170211024D01*
X114311385Y-170213222D01*
X114296528Y-170215832D01*
X114281014Y-170219267D01*
X114264843Y-170223526D01*
X114248016Y-170228609D01*
X114230531Y-170234517D01*
X114212390Y-170241249D01*
X114193591Y-170248805D01*
X114174136Y-170257185D01*
X114154845Y-170265566D01*
X114136539Y-170273122D01*
X114119219Y-170279854D01*
X114102884Y-170285762D01*
X114087534Y-170290845D01*
X114073170Y-170295104D01*
X114055550Y-170299501D01*
X114039682Y-170302431D01*
X114022310Y-170304034D01*
X114019164Y-170304080D01*
X114004499Y-170303400D01*
X113988081Y-170300790D01*
X113972951Y-170296222D01*
X113959109Y-170289696D01*
X113946556Y-170281212D01*
X113940762Y-170276236D01*
X113930677Y-170265039D01*
X113922678Y-170252606D01*
X113916766Y-170238936D01*
X113912941Y-170224030D01*
X113911202Y-170207887D01*
X113911086Y-170202231D01*
X113912159Y-170187009D01*
X113915375Y-170172392D01*
X113920737Y-170158381D01*
X113928243Y-170144975D01*
X113937893Y-170132174D01*
X113949688Y-170119979D01*
X113963627Y-170108389D01*
X113979711Y-170097405D01*
X113997939Y-170087026D01*
X114011283Y-170080443D01*
X114025580Y-170074129D01*
X114033086Y-170071072D01*
X114048680Y-170065216D01*
X114064965Y-170059738D01*
X114081939Y-170054638D01*
X114099604Y-170049915D01*
X114117958Y-170045570D01*
X114137001Y-170041603D01*
X114156735Y-170038014D01*
X114177158Y-170034802D01*
X114198272Y-170031969D01*
X114220075Y-170029513D01*
X114242567Y-170027435D01*
X114265750Y-170025735D01*
X114289622Y-170024412D01*
X114314184Y-170023468D01*
X114339436Y-170022901D01*
X114365378Y-170022712D01*
X114392322Y-170023041D01*
G37*
G36*
X116046990Y-170773026D02*
G01*
X116060546Y-170773026D01*
X116077823Y-170773742D01*
X116093704Y-170775889D01*
X116108191Y-170779466D01*
X116123733Y-170785649D01*
X116137265Y-170793892D01*
X116147008Y-170802336D01*
X116156844Y-170814232D01*
X116164645Y-170828216D01*
X116170410Y-170844286D01*
X116173661Y-170859271D01*
X116175498Y-170875706D01*
X116175950Y-170889897D01*
X116175492Y-170904929D01*
X116173632Y-170922206D01*
X116170340Y-170937802D01*
X116165618Y-170951716D01*
X116158061Y-170966193D01*
X116148444Y-170978248D01*
X116146641Y-170980022D01*
X116134208Y-170989360D01*
X116118889Y-170996766D01*
X116103920Y-171001462D01*
X116086947Y-171004816D01*
X116071926Y-171006534D01*
X116055623Y-171007392D01*
X116046990Y-171007500D01*
X115793466Y-171007500D01*
X115776848Y-171007070D01*
X115761432Y-171005782D01*
X115743853Y-171002965D01*
X115728152Y-170998806D01*
X115714329Y-170993305D01*
X115700221Y-170984933D01*
X115694181Y-170980022D01*
X115683847Y-170968370D01*
X115675651Y-170954297D01*
X115669593Y-170937802D01*
X115666178Y-170922206D01*
X115664248Y-170904929D01*
X115663773Y-170889897D01*
X115664489Y-170872303D01*
X115666635Y-170856158D01*
X115670213Y-170841462D01*
X115676395Y-170825740D01*
X115684639Y-170812105D01*
X115693082Y-170802336D01*
X115705104Y-170792375D01*
X115719186Y-170784475D01*
X115735329Y-170778636D01*
X115750355Y-170775345D01*
X115766813Y-170773484D01*
X115781010Y-170773026D01*
X115793466Y-170773026D01*
X115793466Y-170480668D01*
X115793331Y-170465784D01*
X115792625Y-170444489D01*
X115791314Y-170424431D01*
X115789397Y-170405609D01*
X115786874Y-170388023D01*
X115783747Y-170371674D01*
X115780014Y-170356562D01*
X115774094Y-170338335D01*
X115767099Y-170322307D01*
X115759028Y-170308476D01*
X115749697Y-170296455D01*
X115738924Y-170286037D01*
X115726708Y-170277221D01*
X115713049Y-170270008D01*
X115697948Y-170264398D01*
X115681404Y-170260391D01*
X115663418Y-170257987D01*
X115643989Y-170257185D01*
X115628258Y-170257723D01*
X115613073Y-170259336D01*
X115598436Y-170262025D01*
X115579772Y-170267283D01*
X115562080Y-170274453D01*
X115545362Y-170283535D01*
X115529617Y-170294529D01*
X115518447Y-170304029D01*
X115507824Y-170314604D01*
X115504405Y-170318368D01*
X115494780Y-170330191D01*
X115486102Y-170342716D01*
X115478371Y-170355942D01*
X115471586Y-170369871D01*
X115465749Y-170384502D01*
X115460857Y-170399834D01*
X115456913Y-170415869D01*
X115453915Y-170432605D01*
X115451864Y-170450044D01*
X115450759Y-170468184D01*
X115450549Y-170480668D01*
X115450549Y-170773026D01*
X115463005Y-170773026D01*
X115480590Y-170773742D01*
X115496708Y-170775889D01*
X115511359Y-170779466D01*
X115527004Y-170785649D01*
X115540537Y-170793892D01*
X115550200Y-170802336D01*
X115560036Y-170814232D01*
X115567837Y-170828216D01*
X115573603Y-170844286D01*
X115576853Y-170859271D01*
X115578691Y-170875706D01*
X115579143Y-170889897D01*
X115578674Y-170904929D01*
X115576767Y-170922206D01*
X115573393Y-170937802D01*
X115568552Y-170951716D01*
X115560807Y-170966193D01*
X115550949Y-170978248D01*
X115549101Y-170980022D01*
X115536582Y-170989360D01*
X115521280Y-170996766D01*
X115506404Y-171001462D01*
X115489595Y-171004816D01*
X115474758Y-171006534D01*
X115458683Y-171007392D01*
X115450183Y-171007500D01*
X115194827Y-171007500D01*
X115178214Y-171007070D01*
X115162816Y-171005782D01*
X115145274Y-171002965D01*
X115129628Y-170998806D01*
X115115879Y-170993305D01*
X115101883Y-170984933D01*
X115095908Y-170980022D01*
X115085823Y-170968370D01*
X115077825Y-170954297D01*
X115071913Y-170937802D01*
X115068580Y-170922206D01*
X115066697Y-170904929D01*
X115066233Y-170889897D01*
X115066931Y-170872303D01*
X115069024Y-170856158D01*
X115072512Y-170841462D01*
X115078540Y-170825740D01*
X115086577Y-170812105D01*
X115094809Y-170802336D01*
X115106706Y-170792375D01*
X115120690Y-170784475D01*
X115136759Y-170778636D01*
X115151745Y-170775345D01*
X115168180Y-170773484D01*
X115182370Y-170773026D01*
X115194827Y-170773026D01*
X115194827Y-170280633D01*
X115177241Y-170280633D01*
X115160492Y-170279917D01*
X115145048Y-170277771D01*
X115128240Y-170273306D01*
X115113312Y-170266780D01*
X115100265Y-170258193D01*
X115092611Y-170251324D01*
X115082900Y-170239242D01*
X115075197Y-170225255D01*
X115069504Y-170209361D01*
X115066295Y-170194660D01*
X115064481Y-170178635D01*
X115064035Y-170164862D01*
X115064498Y-170149658D01*
X115066382Y-170132198D01*
X115069715Y-170116456D01*
X115074497Y-170102431D01*
X115082147Y-170087868D01*
X115091885Y-170075778D01*
X115093710Y-170074003D01*
X115106419Y-170064541D01*
X115122012Y-170057036D01*
X115137210Y-170052278D01*
X115154412Y-170048879D01*
X115169616Y-170047139D01*
X115186103Y-170046268D01*
X115194827Y-170046160D01*
X115370315Y-170046160D01*
X115385317Y-170047116D01*
X115400741Y-170050882D01*
X115413913Y-170058250D01*
X115423638Y-170069887D01*
X115428215Y-170083849D01*
X115428934Y-170093421D01*
X115428934Y-170179516D01*
X115438027Y-170165226D01*
X115447584Y-170151618D01*
X115457604Y-170138693D01*
X115468089Y-170126451D01*
X115479037Y-170114891D01*
X115490448Y-170104014D01*
X115502324Y-170093819D01*
X115514663Y-170084307D01*
X115527466Y-170075478D01*
X115540732Y-170067332D01*
X115549834Y-170062280D01*
X115563847Y-170055209D01*
X115578273Y-170048833D01*
X115593111Y-170043153D01*
X115608360Y-170038168D01*
X115624023Y-170033879D01*
X115640097Y-170030286D01*
X115656583Y-170027388D01*
X115673482Y-170025185D01*
X115690792Y-170023678D01*
X115708515Y-170022867D01*
X115720560Y-170022712D01*
X115740838Y-170023104D01*
X115760459Y-170024281D01*
X115779421Y-170026241D01*
X115797725Y-170028986D01*
X115815371Y-170032515D01*
X115832358Y-170036829D01*
X115848687Y-170041926D01*
X115864357Y-170047808D01*
X115879370Y-170054474D01*
X115893724Y-170061925D01*
X115907420Y-170070159D01*
X115920457Y-170079178D01*
X115932836Y-170088981D01*
X115944557Y-170099569D01*
X115955619Y-170110940D01*
X115966024Y-170123096D01*
X115975828Y-170136009D01*
X115985000Y-170149743D01*
X115993540Y-170164299D01*
X116001446Y-170179677D01*
X116008721Y-170195875D01*
X116015363Y-170212895D01*
X116021372Y-170230737D01*
X116026748Y-170249400D01*
X116031493Y-170268885D01*
X116035604Y-170289191D01*
X116039083Y-170310318D01*
X116041930Y-170332267D01*
X116044144Y-170355038D01*
X116045725Y-170378630D01*
X116046674Y-170403043D01*
X116046990Y-170428278D01*
X116046990Y-170773026D01*
G37*
D11*
X86652976Y-135894700D02*
X86795833Y-135942319D01*
X86795833Y-135942319D02*
X87033928Y-135942319D01*
X87033928Y-135942319D02*
X87129166Y-135894700D01*
X87129166Y-135894700D02*
X87176785Y-135847080D01*
X87176785Y-135847080D02*
X87224404Y-135751842D01*
X87224404Y-135751842D02*
X87224404Y-135656604D01*
X87224404Y-135656604D02*
X87176785Y-135561366D01*
X87176785Y-135561366D02*
X87129166Y-135513747D01*
X87129166Y-135513747D02*
X87033928Y-135466128D01*
X87033928Y-135466128D02*
X86843452Y-135418509D01*
X86843452Y-135418509D02*
X86748214Y-135370890D01*
X86748214Y-135370890D02*
X86700595Y-135323271D01*
X86700595Y-135323271D02*
X86652976Y-135228033D01*
X86652976Y-135228033D02*
X86652976Y-135132795D01*
X86652976Y-135132795D02*
X86700595Y-135037557D01*
X86700595Y-135037557D02*
X86748214Y-134989938D01*
X86748214Y-134989938D02*
X86843452Y-134942319D01*
X86843452Y-134942319D02*
X87081547Y-134942319D01*
X87081547Y-134942319D02*
X87224404Y-134989938D01*
X87557738Y-134942319D02*
X87795833Y-135942319D01*
X87795833Y-135942319D02*
X87986309Y-135228033D01*
X87986309Y-135228033D02*
X88176785Y-135942319D01*
X88176785Y-135942319D02*
X88414881Y-134942319D01*
X89319642Y-135942319D02*
X88748214Y-135942319D01*
X89033928Y-135942319D02*
X89033928Y-134942319D01*
X89033928Y-134942319D02*
X88938690Y-135085176D01*
X88938690Y-135085176D02*
X88843452Y-135180414D01*
X88843452Y-135180414D02*
X88748214Y-135228033D01*
X89891071Y-135370890D02*
X89795833Y-135323271D01*
X89795833Y-135323271D02*
X89748214Y-135275652D01*
X89748214Y-135275652D02*
X89700595Y-135180414D01*
X89700595Y-135180414D02*
X89700595Y-135132795D01*
X89700595Y-135132795D02*
X89748214Y-135037557D01*
X89748214Y-135037557D02*
X89795833Y-134989938D01*
X89795833Y-134989938D02*
X89891071Y-134942319D01*
X89891071Y-134942319D02*
X90081547Y-134942319D01*
X90081547Y-134942319D02*
X90176785Y-134989938D01*
X90176785Y-134989938D02*
X90224404Y-135037557D01*
X90224404Y-135037557D02*
X90272023Y-135132795D01*
X90272023Y-135132795D02*
X90272023Y-135180414D01*
X90272023Y-135180414D02*
X90224404Y-135275652D01*
X90224404Y-135275652D02*
X90176785Y-135323271D01*
X90176785Y-135323271D02*
X90081547Y-135370890D01*
X90081547Y-135370890D02*
X89891071Y-135370890D01*
X89891071Y-135370890D02*
X89795833Y-135418509D01*
X89795833Y-135418509D02*
X89748214Y-135466128D01*
X89748214Y-135466128D02*
X89700595Y-135561366D01*
X89700595Y-135561366D02*
X89700595Y-135751842D01*
X89700595Y-135751842D02*
X89748214Y-135847080D01*
X89748214Y-135847080D02*
X89795833Y-135894700D01*
X89795833Y-135894700D02*
X89891071Y-135942319D01*
X89891071Y-135942319D02*
X90081547Y-135942319D01*
X90081547Y-135942319D02*
X90176785Y-135894700D01*
X90176785Y-135894700D02*
X90224404Y-135847080D01*
X90224404Y-135847080D02*
X90272023Y-135751842D01*
X90272023Y-135751842D02*
X90272023Y-135561366D01*
X90272023Y-135561366D02*
X90224404Y-135466128D01*
X90224404Y-135466128D02*
X90176785Y-135418509D01*
X90176785Y-135418509D02*
X90081547Y-135370890D01*
X105707629Y-107308820D02*
X105850486Y-107356439D01*
X105850486Y-107356439D02*
X106088581Y-107356439D01*
X106088581Y-107356439D02*
X106183819Y-107308820D01*
X106183819Y-107308820D02*
X106231438Y-107261200D01*
X106231438Y-107261200D02*
X106279057Y-107165962D01*
X106279057Y-107165962D02*
X106279057Y-107070724D01*
X106279057Y-107070724D02*
X106231438Y-106975486D01*
X106231438Y-106975486D02*
X106183819Y-106927867D01*
X106183819Y-106927867D02*
X106088581Y-106880248D01*
X106088581Y-106880248D02*
X105898105Y-106832629D01*
X105898105Y-106832629D02*
X105802867Y-106785010D01*
X105802867Y-106785010D02*
X105755248Y-106737391D01*
X105755248Y-106737391D02*
X105707629Y-106642153D01*
X105707629Y-106642153D02*
X105707629Y-106546915D01*
X105707629Y-106546915D02*
X105755248Y-106451677D01*
X105755248Y-106451677D02*
X105802867Y-106404058D01*
X105802867Y-106404058D02*
X105898105Y-106356439D01*
X105898105Y-106356439D02*
X106136200Y-106356439D01*
X106136200Y-106356439D02*
X106279057Y-106404058D01*
X106612391Y-106356439D02*
X106850486Y-107356439D01*
X106850486Y-107356439D02*
X107040962Y-106642153D01*
X107040962Y-106642153D02*
X107231438Y-107356439D01*
X107231438Y-107356439D02*
X107469534Y-106356439D01*
X108374295Y-107356439D02*
X107802867Y-107356439D01*
X108088581Y-107356439D02*
X108088581Y-106356439D01*
X108088581Y-106356439D02*
X107993343Y-106499296D01*
X107993343Y-106499296D02*
X107898105Y-106594534D01*
X107898105Y-106594534D02*
X107802867Y-106642153D01*
X109279057Y-106356439D02*
X108802867Y-106356439D01*
X108802867Y-106356439D02*
X108755248Y-106832629D01*
X108755248Y-106832629D02*
X108802867Y-106785010D01*
X108802867Y-106785010D02*
X108898105Y-106737391D01*
X108898105Y-106737391D02*
X109136200Y-106737391D01*
X109136200Y-106737391D02*
X109231438Y-106785010D01*
X109231438Y-106785010D02*
X109279057Y-106832629D01*
X109279057Y-106832629D02*
X109326676Y-106927867D01*
X109326676Y-106927867D02*
X109326676Y-107165962D01*
X109326676Y-107165962D02*
X109279057Y-107261200D01*
X109279057Y-107261200D02*
X109231438Y-107308820D01*
X109231438Y-107308820D02*
X109136200Y-107356439D01*
X109136200Y-107356439D02*
X108898105Y-107356439D01*
X108898105Y-107356439D02*
X108802867Y-107308820D01*
X108802867Y-107308820D02*
X108755248Y-107261200D01*
X69004167Y-78407200D02*
X69147024Y-78454819D01*
X69147024Y-78454819D02*
X69385119Y-78454819D01*
X69385119Y-78454819D02*
X69480357Y-78407200D01*
X69480357Y-78407200D02*
X69527976Y-78359580D01*
X69527976Y-78359580D02*
X69575595Y-78264342D01*
X69575595Y-78264342D02*
X69575595Y-78169104D01*
X69575595Y-78169104D02*
X69527976Y-78073866D01*
X69527976Y-78073866D02*
X69480357Y-78026247D01*
X69480357Y-78026247D02*
X69385119Y-77978628D01*
X69385119Y-77978628D02*
X69194643Y-77931009D01*
X69194643Y-77931009D02*
X69099405Y-77883390D01*
X69099405Y-77883390D02*
X69051786Y-77835771D01*
X69051786Y-77835771D02*
X69004167Y-77740533D01*
X69004167Y-77740533D02*
X69004167Y-77645295D01*
X69004167Y-77645295D02*
X69051786Y-77550057D01*
X69051786Y-77550057D02*
X69099405Y-77502438D01*
X69099405Y-77502438D02*
X69194643Y-77454819D01*
X69194643Y-77454819D02*
X69432738Y-77454819D01*
X69432738Y-77454819D02*
X69575595Y-77502438D01*
X69908929Y-77454819D02*
X70147024Y-78454819D01*
X70147024Y-78454819D02*
X70337500Y-77740533D01*
X70337500Y-77740533D02*
X70527976Y-78454819D01*
X70527976Y-78454819D02*
X70766072Y-77454819D01*
X71575595Y-77454819D02*
X71385119Y-77454819D01*
X71385119Y-77454819D02*
X71289881Y-77502438D01*
X71289881Y-77502438D02*
X71242262Y-77550057D01*
X71242262Y-77550057D02*
X71147024Y-77692914D01*
X71147024Y-77692914D02*
X71099405Y-77883390D01*
X71099405Y-77883390D02*
X71099405Y-78264342D01*
X71099405Y-78264342D02*
X71147024Y-78359580D01*
X71147024Y-78359580D02*
X71194643Y-78407200D01*
X71194643Y-78407200D02*
X71289881Y-78454819D01*
X71289881Y-78454819D02*
X71480357Y-78454819D01*
X71480357Y-78454819D02*
X71575595Y-78407200D01*
X71575595Y-78407200D02*
X71623214Y-78359580D01*
X71623214Y-78359580D02*
X71670833Y-78264342D01*
X71670833Y-78264342D02*
X71670833Y-78026247D01*
X71670833Y-78026247D02*
X71623214Y-77931009D01*
X71623214Y-77931009D02*
X71575595Y-77883390D01*
X71575595Y-77883390D02*
X71480357Y-77835771D01*
X71480357Y-77835771D02*
X71289881Y-77835771D01*
X71289881Y-77835771D02*
X71194643Y-77883390D01*
X71194643Y-77883390D02*
X71147024Y-77931009D01*
X71147024Y-77931009D02*
X71099405Y-78026247D01*
X67602976Y-116847200D02*
X67745833Y-116894819D01*
X67745833Y-116894819D02*
X67983928Y-116894819D01*
X67983928Y-116894819D02*
X68079166Y-116847200D01*
X68079166Y-116847200D02*
X68126785Y-116799580D01*
X68126785Y-116799580D02*
X68174404Y-116704342D01*
X68174404Y-116704342D02*
X68174404Y-116609104D01*
X68174404Y-116609104D02*
X68126785Y-116513866D01*
X68126785Y-116513866D02*
X68079166Y-116466247D01*
X68079166Y-116466247D02*
X67983928Y-116418628D01*
X67983928Y-116418628D02*
X67793452Y-116371009D01*
X67793452Y-116371009D02*
X67698214Y-116323390D01*
X67698214Y-116323390D02*
X67650595Y-116275771D01*
X67650595Y-116275771D02*
X67602976Y-116180533D01*
X67602976Y-116180533D02*
X67602976Y-116085295D01*
X67602976Y-116085295D02*
X67650595Y-115990057D01*
X67650595Y-115990057D02*
X67698214Y-115942438D01*
X67698214Y-115942438D02*
X67793452Y-115894819D01*
X67793452Y-115894819D02*
X68031547Y-115894819D01*
X68031547Y-115894819D02*
X68174404Y-115942438D01*
X68507738Y-115894819D02*
X68745833Y-116894819D01*
X68745833Y-116894819D02*
X68936309Y-116180533D01*
X68936309Y-116180533D02*
X69126785Y-116894819D01*
X69126785Y-116894819D02*
X69364881Y-115894819D01*
X70269642Y-116894819D02*
X69698214Y-116894819D01*
X69983928Y-116894819D02*
X69983928Y-115894819D01*
X69983928Y-115894819D02*
X69888690Y-116037676D01*
X69888690Y-116037676D02*
X69793452Y-116132914D01*
X69793452Y-116132914D02*
X69698214Y-116180533D01*
X70602976Y-115894819D02*
X71222023Y-115894819D01*
X71222023Y-115894819D02*
X70888690Y-116275771D01*
X70888690Y-116275771D02*
X71031547Y-116275771D01*
X71031547Y-116275771D02*
X71126785Y-116323390D01*
X71126785Y-116323390D02*
X71174404Y-116371009D01*
X71174404Y-116371009D02*
X71222023Y-116466247D01*
X71222023Y-116466247D02*
X71222023Y-116704342D01*
X71222023Y-116704342D02*
X71174404Y-116799580D01*
X71174404Y-116799580D02*
X71126785Y-116847200D01*
X71126785Y-116847200D02*
X71031547Y-116894819D01*
X71031547Y-116894819D02*
X70745833Y-116894819D01*
X70745833Y-116894819D02*
X70650595Y-116847200D01*
X70650595Y-116847200D02*
X70602976Y-116799580D01*
X106179167Y-78744700D02*
X106322024Y-78792319D01*
X106322024Y-78792319D02*
X106560119Y-78792319D01*
X106560119Y-78792319D02*
X106655357Y-78744700D01*
X106655357Y-78744700D02*
X106702976Y-78697080D01*
X106702976Y-78697080D02*
X106750595Y-78601842D01*
X106750595Y-78601842D02*
X106750595Y-78506604D01*
X106750595Y-78506604D02*
X106702976Y-78411366D01*
X106702976Y-78411366D02*
X106655357Y-78363747D01*
X106655357Y-78363747D02*
X106560119Y-78316128D01*
X106560119Y-78316128D02*
X106369643Y-78268509D01*
X106369643Y-78268509D02*
X106274405Y-78220890D01*
X106274405Y-78220890D02*
X106226786Y-78173271D01*
X106226786Y-78173271D02*
X106179167Y-78078033D01*
X106179167Y-78078033D02*
X106179167Y-77982795D01*
X106179167Y-77982795D02*
X106226786Y-77887557D01*
X106226786Y-77887557D02*
X106274405Y-77839938D01*
X106274405Y-77839938D02*
X106369643Y-77792319D01*
X106369643Y-77792319D02*
X106607738Y-77792319D01*
X106607738Y-77792319D02*
X106750595Y-77839938D01*
X107083929Y-77792319D02*
X107322024Y-78792319D01*
X107322024Y-78792319D02*
X107512500Y-78078033D01*
X107512500Y-78078033D02*
X107702976Y-78792319D01*
X107702976Y-78792319D02*
X107941072Y-77792319D01*
X108464881Y-78220890D02*
X108369643Y-78173271D01*
X108369643Y-78173271D02*
X108322024Y-78125652D01*
X108322024Y-78125652D02*
X108274405Y-78030414D01*
X108274405Y-78030414D02*
X108274405Y-77982795D01*
X108274405Y-77982795D02*
X108322024Y-77887557D01*
X108322024Y-77887557D02*
X108369643Y-77839938D01*
X108369643Y-77839938D02*
X108464881Y-77792319D01*
X108464881Y-77792319D02*
X108655357Y-77792319D01*
X108655357Y-77792319D02*
X108750595Y-77839938D01*
X108750595Y-77839938D02*
X108798214Y-77887557D01*
X108798214Y-77887557D02*
X108845833Y-77982795D01*
X108845833Y-77982795D02*
X108845833Y-78030414D01*
X108845833Y-78030414D02*
X108798214Y-78125652D01*
X108798214Y-78125652D02*
X108750595Y-78173271D01*
X108750595Y-78173271D02*
X108655357Y-78220890D01*
X108655357Y-78220890D02*
X108464881Y-78220890D01*
X108464881Y-78220890D02*
X108369643Y-78268509D01*
X108369643Y-78268509D02*
X108322024Y-78316128D01*
X108322024Y-78316128D02*
X108274405Y-78411366D01*
X108274405Y-78411366D02*
X108274405Y-78601842D01*
X108274405Y-78601842D02*
X108322024Y-78697080D01*
X108322024Y-78697080D02*
X108369643Y-78744700D01*
X108369643Y-78744700D02*
X108464881Y-78792319D01*
X108464881Y-78792319D02*
X108655357Y-78792319D01*
X108655357Y-78792319D02*
X108750595Y-78744700D01*
X108750595Y-78744700D02*
X108798214Y-78697080D01*
X108798214Y-78697080D02*
X108845833Y-78601842D01*
X108845833Y-78601842D02*
X108845833Y-78411366D01*
X108845833Y-78411366D02*
X108798214Y-78316128D01*
X108798214Y-78316128D02*
X108750595Y-78268509D01*
X108750595Y-78268509D02*
X108655357Y-78220890D01*
X48552976Y-135894700D02*
X48695833Y-135942319D01*
X48695833Y-135942319D02*
X48933928Y-135942319D01*
X48933928Y-135942319D02*
X49029166Y-135894700D01*
X49029166Y-135894700D02*
X49076785Y-135847080D01*
X49076785Y-135847080D02*
X49124404Y-135751842D01*
X49124404Y-135751842D02*
X49124404Y-135656604D01*
X49124404Y-135656604D02*
X49076785Y-135561366D01*
X49076785Y-135561366D02*
X49029166Y-135513747D01*
X49029166Y-135513747D02*
X48933928Y-135466128D01*
X48933928Y-135466128D02*
X48743452Y-135418509D01*
X48743452Y-135418509D02*
X48648214Y-135370890D01*
X48648214Y-135370890D02*
X48600595Y-135323271D01*
X48600595Y-135323271D02*
X48552976Y-135228033D01*
X48552976Y-135228033D02*
X48552976Y-135132795D01*
X48552976Y-135132795D02*
X48600595Y-135037557D01*
X48600595Y-135037557D02*
X48648214Y-134989938D01*
X48648214Y-134989938D02*
X48743452Y-134942319D01*
X48743452Y-134942319D02*
X48981547Y-134942319D01*
X48981547Y-134942319D02*
X49124404Y-134989938D01*
X49457738Y-134942319D02*
X49695833Y-135942319D01*
X49695833Y-135942319D02*
X49886309Y-135228033D01*
X49886309Y-135228033D02*
X50076785Y-135942319D01*
X50076785Y-135942319D02*
X50314881Y-134942319D01*
X51219642Y-135942319D02*
X50648214Y-135942319D01*
X50933928Y-135942319D02*
X50933928Y-134942319D01*
X50933928Y-134942319D02*
X50838690Y-135085176D01*
X50838690Y-135085176D02*
X50743452Y-135180414D01*
X50743452Y-135180414D02*
X50648214Y-135228033D01*
X52076785Y-134942319D02*
X51886309Y-134942319D01*
X51886309Y-134942319D02*
X51791071Y-134989938D01*
X51791071Y-134989938D02*
X51743452Y-135037557D01*
X51743452Y-135037557D02*
X51648214Y-135180414D01*
X51648214Y-135180414D02*
X51600595Y-135370890D01*
X51600595Y-135370890D02*
X51600595Y-135751842D01*
X51600595Y-135751842D02*
X51648214Y-135847080D01*
X51648214Y-135847080D02*
X51695833Y-135894700D01*
X51695833Y-135894700D02*
X51791071Y-135942319D01*
X51791071Y-135942319D02*
X51981547Y-135942319D01*
X51981547Y-135942319D02*
X52076785Y-135894700D01*
X52076785Y-135894700D02*
X52124404Y-135847080D01*
X52124404Y-135847080D02*
X52172023Y-135751842D01*
X52172023Y-135751842D02*
X52172023Y-135513747D01*
X52172023Y-135513747D02*
X52124404Y-135418509D01*
X52124404Y-135418509D02*
X52076785Y-135370890D01*
X52076785Y-135370890D02*
X51981547Y-135323271D01*
X51981547Y-135323271D02*
X51791071Y-135323271D01*
X51791071Y-135323271D02*
X51695833Y-135370890D01*
X51695833Y-135370890D02*
X51648214Y-135418509D01*
X51648214Y-135418509D02*
X51600595Y-135513747D01*
X48552976Y-116847200D02*
X48695833Y-116894819D01*
X48695833Y-116894819D02*
X48933928Y-116894819D01*
X48933928Y-116894819D02*
X49029166Y-116847200D01*
X49029166Y-116847200D02*
X49076785Y-116799580D01*
X49076785Y-116799580D02*
X49124404Y-116704342D01*
X49124404Y-116704342D02*
X49124404Y-116609104D01*
X49124404Y-116609104D02*
X49076785Y-116513866D01*
X49076785Y-116513866D02*
X49029166Y-116466247D01*
X49029166Y-116466247D02*
X48933928Y-116418628D01*
X48933928Y-116418628D02*
X48743452Y-116371009D01*
X48743452Y-116371009D02*
X48648214Y-116323390D01*
X48648214Y-116323390D02*
X48600595Y-116275771D01*
X48600595Y-116275771D02*
X48552976Y-116180533D01*
X48552976Y-116180533D02*
X48552976Y-116085295D01*
X48552976Y-116085295D02*
X48600595Y-115990057D01*
X48600595Y-115990057D02*
X48648214Y-115942438D01*
X48648214Y-115942438D02*
X48743452Y-115894819D01*
X48743452Y-115894819D02*
X48981547Y-115894819D01*
X48981547Y-115894819D02*
X49124404Y-115942438D01*
X49457738Y-115894819D02*
X49695833Y-116894819D01*
X49695833Y-116894819D02*
X49886309Y-116180533D01*
X49886309Y-116180533D02*
X50076785Y-116894819D01*
X50076785Y-116894819D02*
X50314881Y-115894819D01*
X51219642Y-116894819D02*
X50648214Y-116894819D01*
X50933928Y-116894819D02*
X50933928Y-115894819D01*
X50933928Y-115894819D02*
X50838690Y-116037676D01*
X50838690Y-116037676D02*
X50743452Y-116132914D01*
X50743452Y-116132914D02*
X50648214Y-116180533D01*
X51600595Y-115990057D02*
X51648214Y-115942438D01*
X51648214Y-115942438D02*
X51743452Y-115894819D01*
X51743452Y-115894819D02*
X51981547Y-115894819D01*
X51981547Y-115894819D02*
X52076785Y-115942438D01*
X52076785Y-115942438D02*
X52124404Y-115990057D01*
X52124404Y-115990057D02*
X52172023Y-116085295D01*
X52172023Y-116085295D02*
X52172023Y-116180533D01*
X52172023Y-116180533D02*
X52124404Y-116323390D01*
X52124404Y-116323390D02*
X51552976Y-116894819D01*
X51552976Y-116894819D02*
X52172023Y-116894819D01*
X86690476Y-116847200D02*
X86833333Y-116894819D01*
X86833333Y-116894819D02*
X87071428Y-116894819D01*
X87071428Y-116894819D02*
X87166666Y-116847200D01*
X87166666Y-116847200D02*
X87214285Y-116799580D01*
X87214285Y-116799580D02*
X87261904Y-116704342D01*
X87261904Y-116704342D02*
X87261904Y-116609104D01*
X87261904Y-116609104D02*
X87214285Y-116513866D01*
X87214285Y-116513866D02*
X87166666Y-116466247D01*
X87166666Y-116466247D02*
X87071428Y-116418628D01*
X87071428Y-116418628D02*
X86880952Y-116371009D01*
X86880952Y-116371009D02*
X86785714Y-116323390D01*
X86785714Y-116323390D02*
X86738095Y-116275771D01*
X86738095Y-116275771D02*
X86690476Y-116180533D01*
X86690476Y-116180533D02*
X86690476Y-116085295D01*
X86690476Y-116085295D02*
X86738095Y-115990057D01*
X86738095Y-115990057D02*
X86785714Y-115942438D01*
X86785714Y-115942438D02*
X86880952Y-115894819D01*
X86880952Y-115894819D02*
X87119047Y-115894819D01*
X87119047Y-115894819D02*
X87261904Y-115942438D01*
X87595238Y-115894819D02*
X87833333Y-116894819D01*
X87833333Y-116894819D02*
X88023809Y-116180533D01*
X88023809Y-116180533D02*
X88214285Y-116894819D01*
X88214285Y-116894819D02*
X88452381Y-115894819D01*
X89357142Y-116894819D02*
X88785714Y-116894819D01*
X89071428Y-116894819D02*
X89071428Y-115894819D01*
X89071428Y-115894819D02*
X88976190Y-116037676D01*
X88976190Y-116037676D02*
X88880952Y-116132914D01*
X88880952Y-116132914D02*
X88785714Y-116180533D01*
X90214285Y-116228152D02*
X90214285Y-116894819D01*
X89976190Y-115847200D02*
X89738095Y-116561485D01*
X89738095Y-116561485D02*
X90357142Y-116561485D01*
X58077976Y-154944700D02*
X58220833Y-154992319D01*
X58220833Y-154992319D02*
X58458928Y-154992319D01*
X58458928Y-154992319D02*
X58554166Y-154944700D01*
X58554166Y-154944700D02*
X58601785Y-154897080D01*
X58601785Y-154897080D02*
X58649404Y-154801842D01*
X58649404Y-154801842D02*
X58649404Y-154706604D01*
X58649404Y-154706604D02*
X58601785Y-154611366D01*
X58601785Y-154611366D02*
X58554166Y-154563747D01*
X58554166Y-154563747D02*
X58458928Y-154516128D01*
X58458928Y-154516128D02*
X58268452Y-154468509D01*
X58268452Y-154468509D02*
X58173214Y-154420890D01*
X58173214Y-154420890D02*
X58125595Y-154373271D01*
X58125595Y-154373271D02*
X58077976Y-154278033D01*
X58077976Y-154278033D02*
X58077976Y-154182795D01*
X58077976Y-154182795D02*
X58125595Y-154087557D01*
X58125595Y-154087557D02*
X58173214Y-154039938D01*
X58173214Y-154039938D02*
X58268452Y-153992319D01*
X58268452Y-153992319D02*
X58506547Y-153992319D01*
X58506547Y-153992319D02*
X58649404Y-154039938D01*
X58982738Y-153992319D02*
X59220833Y-154992319D01*
X59220833Y-154992319D02*
X59411309Y-154278033D01*
X59411309Y-154278033D02*
X59601785Y-154992319D01*
X59601785Y-154992319D02*
X59839881Y-153992319D01*
X60744642Y-154992319D02*
X60173214Y-154992319D01*
X60458928Y-154992319D02*
X60458928Y-153992319D01*
X60458928Y-153992319D02*
X60363690Y-154135176D01*
X60363690Y-154135176D02*
X60268452Y-154230414D01*
X60268452Y-154230414D02*
X60173214Y-154278033D01*
X61220833Y-154992319D02*
X61411309Y-154992319D01*
X61411309Y-154992319D02*
X61506547Y-154944700D01*
X61506547Y-154944700D02*
X61554166Y-154897080D01*
X61554166Y-154897080D02*
X61649404Y-154754223D01*
X61649404Y-154754223D02*
X61697023Y-154563747D01*
X61697023Y-154563747D02*
X61697023Y-154182795D01*
X61697023Y-154182795D02*
X61649404Y-154087557D01*
X61649404Y-154087557D02*
X61601785Y-154039938D01*
X61601785Y-154039938D02*
X61506547Y-153992319D01*
X61506547Y-153992319D02*
X61316071Y-153992319D01*
X61316071Y-153992319D02*
X61220833Y-154039938D01*
X61220833Y-154039938D02*
X61173214Y-154087557D01*
X61173214Y-154087557D02*
X61125595Y-154182795D01*
X61125595Y-154182795D02*
X61125595Y-154420890D01*
X61125595Y-154420890D02*
X61173214Y-154516128D01*
X61173214Y-154516128D02*
X61220833Y-154563747D01*
X61220833Y-154563747D02*
X61316071Y-154611366D01*
X61316071Y-154611366D02*
X61506547Y-154611366D01*
X61506547Y-154611366D02*
X61601785Y-154563747D01*
X61601785Y-154563747D02*
X61649404Y-154516128D01*
X61649404Y-154516128D02*
X61697023Y-154420890D01*
X67602976Y-135894700D02*
X67745833Y-135942319D01*
X67745833Y-135942319D02*
X67983928Y-135942319D01*
X67983928Y-135942319D02*
X68079166Y-135894700D01*
X68079166Y-135894700D02*
X68126785Y-135847080D01*
X68126785Y-135847080D02*
X68174404Y-135751842D01*
X68174404Y-135751842D02*
X68174404Y-135656604D01*
X68174404Y-135656604D02*
X68126785Y-135561366D01*
X68126785Y-135561366D02*
X68079166Y-135513747D01*
X68079166Y-135513747D02*
X67983928Y-135466128D01*
X67983928Y-135466128D02*
X67793452Y-135418509D01*
X67793452Y-135418509D02*
X67698214Y-135370890D01*
X67698214Y-135370890D02*
X67650595Y-135323271D01*
X67650595Y-135323271D02*
X67602976Y-135228033D01*
X67602976Y-135228033D02*
X67602976Y-135132795D01*
X67602976Y-135132795D02*
X67650595Y-135037557D01*
X67650595Y-135037557D02*
X67698214Y-134989938D01*
X67698214Y-134989938D02*
X67793452Y-134942319D01*
X67793452Y-134942319D02*
X68031547Y-134942319D01*
X68031547Y-134942319D02*
X68174404Y-134989938D01*
X68507738Y-134942319D02*
X68745833Y-135942319D01*
X68745833Y-135942319D02*
X68936309Y-135228033D01*
X68936309Y-135228033D02*
X69126785Y-135942319D01*
X69126785Y-135942319D02*
X69364881Y-134942319D01*
X70269642Y-135942319D02*
X69698214Y-135942319D01*
X69983928Y-135942319D02*
X69983928Y-134942319D01*
X69983928Y-134942319D02*
X69888690Y-135085176D01*
X69888690Y-135085176D02*
X69793452Y-135180414D01*
X69793452Y-135180414D02*
X69698214Y-135228033D01*
X70602976Y-134942319D02*
X71269642Y-134942319D01*
X71269642Y-134942319D02*
X70841071Y-135942319D01*
X67602976Y-97794700D02*
X67745833Y-97842319D01*
X67745833Y-97842319D02*
X67983928Y-97842319D01*
X67983928Y-97842319D02*
X68079166Y-97794700D01*
X68079166Y-97794700D02*
X68126785Y-97747080D01*
X68126785Y-97747080D02*
X68174404Y-97651842D01*
X68174404Y-97651842D02*
X68174404Y-97556604D01*
X68174404Y-97556604D02*
X68126785Y-97461366D01*
X68126785Y-97461366D02*
X68079166Y-97413747D01*
X68079166Y-97413747D02*
X67983928Y-97366128D01*
X67983928Y-97366128D02*
X67793452Y-97318509D01*
X67793452Y-97318509D02*
X67698214Y-97270890D01*
X67698214Y-97270890D02*
X67650595Y-97223271D01*
X67650595Y-97223271D02*
X67602976Y-97128033D01*
X67602976Y-97128033D02*
X67602976Y-97032795D01*
X67602976Y-97032795D02*
X67650595Y-96937557D01*
X67650595Y-96937557D02*
X67698214Y-96889938D01*
X67698214Y-96889938D02*
X67793452Y-96842319D01*
X67793452Y-96842319D02*
X68031547Y-96842319D01*
X68031547Y-96842319D02*
X68174404Y-96889938D01*
X68507738Y-96842319D02*
X68745833Y-97842319D01*
X68745833Y-97842319D02*
X68936309Y-97128033D01*
X68936309Y-97128033D02*
X69126785Y-97842319D01*
X69126785Y-97842319D02*
X69364881Y-96842319D01*
X70269642Y-97842319D02*
X69698214Y-97842319D01*
X69983928Y-97842319D02*
X69983928Y-96842319D01*
X69983928Y-96842319D02*
X69888690Y-96985176D01*
X69888690Y-96985176D02*
X69793452Y-97080414D01*
X69793452Y-97080414D02*
X69698214Y-97128033D01*
X70888690Y-96842319D02*
X70983928Y-96842319D01*
X70983928Y-96842319D02*
X71079166Y-96889938D01*
X71079166Y-96889938D02*
X71126785Y-96937557D01*
X71126785Y-96937557D02*
X71174404Y-97032795D01*
X71174404Y-97032795D02*
X71222023Y-97223271D01*
X71222023Y-97223271D02*
X71222023Y-97461366D01*
X71222023Y-97461366D02*
X71174404Y-97651842D01*
X71174404Y-97651842D02*
X71126785Y-97747080D01*
X71126785Y-97747080D02*
X71079166Y-97794700D01*
X71079166Y-97794700D02*
X70983928Y-97842319D01*
X70983928Y-97842319D02*
X70888690Y-97842319D01*
X70888690Y-97842319D02*
X70793452Y-97794700D01*
X70793452Y-97794700D02*
X70745833Y-97747080D01*
X70745833Y-97747080D02*
X70698214Y-97651842D01*
X70698214Y-97651842D02*
X70650595Y-97461366D01*
X70650595Y-97461366D02*
X70650595Y-97223271D01*
X70650595Y-97223271D02*
X70698214Y-97032795D01*
X70698214Y-97032795D02*
X70745833Y-96937557D01*
X70745833Y-96937557D02*
X70793452Y-96889938D01*
X70793452Y-96889938D02*
X70888690Y-96842319D01*
X68079167Y-59694700D02*
X68222024Y-59742319D01*
X68222024Y-59742319D02*
X68460119Y-59742319D01*
X68460119Y-59742319D02*
X68555357Y-59694700D01*
X68555357Y-59694700D02*
X68602976Y-59647080D01*
X68602976Y-59647080D02*
X68650595Y-59551842D01*
X68650595Y-59551842D02*
X68650595Y-59456604D01*
X68650595Y-59456604D02*
X68602976Y-59361366D01*
X68602976Y-59361366D02*
X68555357Y-59313747D01*
X68555357Y-59313747D02*
X68460119Y-59266128D01*
X68460119Y-59266128D02*
X68269643Y-59218509D01*
X68269643Y-59218509D02*
X68174405Y-59170890D01*
X68174405Y-59170890D02*
X68126786Y-59123271D01*
X68126786Y-59123271D02*
X68079167Y-59028033D01*
X68079167Y-59028033D02*
X68079167Y-58932795D01*
X68079167Y-58932795D02*
X68126786Y-58837557D01*
X68126786Y-58837557D02*
X68174405Y-58789938D01*
X68174405Y-58789938D02*
X68269643Y-58742319D01*
X68269643Y-58742319D02*
X68507738Y-58742319D01*
X68507738Y-58742319D02*
X68650595Y-58789938D01*
X68983929Y-58742319D02*
X69222024Y-59742319D01*
X69222024Y-59742319D02*
X69412500Y-59028033D01*
X69412500Y-59028033D02*
X69602976Y-59742319D01*
X69602976Y-59742319D02*
X69841072Y-58742319D01*
X70174405Y-58837557D02*
X70222024Y-58789938D01*
X70222024Y-58789938D02*
X70317262Y-58742319D01*
X70317262Y-58742319D02*
X70555357Y-58742319D01*
X70555357Y-58742319D02*
X70650595Y-58789938D01*
X70650595Y-58789938D02*
X70698214Y-58837557D01*
X70698214Y-58837557D02*
X70745833Y-58932795D01*
X70745833Y-58932795D02*
X70745833Y-59028033D01*
X70745833Y-59028033D02*
X70698214Y-59170890D01*
X70698214Y-59170890D02*
X70126786Y-59742319D01*
X70126786Y-59742319D02*
X70745833Y-59742319D01*
X87129167Y-77907200D02*
X87272024Y-77954819D01*
X87272024Y-77954819D02*
X87510119Y-77954819D01*
X87510119Y-77954819D02*
X87605357Y-77907200D01*
X87605357Y-77907200D02*
X87652976Y-77859580D01*
X87652976Y-77859580D02*
X87700595Y-77764342D01*
X87700595Y-77764342D02*
X87700595Y-77669104D01*
X87700595Y-77669104D02*
X87652976Y-77573866D01*
X87652976Y-77573866D02*
X87605357Y-77526247D01*
X87605357Y-77526247D02*
X87510119Y-77478628D01*
X87510119Y-77478628D02*
X87319643Y-77431009D01*
X87319643Y-77431009D02*
X87224405Y-77383390D01*
X87224405Y-77383390D02*
X87176786Y-77335771D01*
X87176786Y-77335771D02*
X87129167Y-77240533D01*
X87129167Y-77240533D02*
X87129167Y-77145295D01*
X87129167Y-77145295D02*
X87176786Y-77050057D01*
X87176786Y-77050057D02*
X87224405Y-77002438D01*
X87224405Y-77002438D02*
X87319643Y-76954819D01*
X87319643Y-76954819D02*
X87557738Y-76954819D01*
X87557738Y-76954819D02*
X87700595Y-77002438D01*
X88033929Y-76954819D02*
X88272024Y-77954819D01*
X88272024Y-77954819D02*
X88462500Y-77240533D01*
X88462500Y-77240533D02*
X88652976Y-77954819D01*
X88652976Y-77954819D02*
X88891072Y-76954819D01*
X89176786Y-76954819D02*
X89843452Y-76954819D01*
X89843452Y-76954819D02*
X89414881Y-77954819D01*
X86652976Y-97794700D02*
X86795833Y-97842319D01*
X86795833Y-97842319D02*
X87033928Y-97842319D01*
X87033928Y-97842319D02*
X87129166Y-97794700D01*
X87129166Y-97794700D02*
X87176785Y-97747080D01*
X87176785Y-97747080D02*
X87224404Y-97651842D01*
X87224404Y-97651842D02*
X87224404Y-97556604D01*
X87224404Y-97556604D02*
X87176785Y-97461366D01*
X87176785Y-97461366D02*
X87129166Y-97413747D01*
X87129166Y-97413747D02*
X87033928Y-97366128D01*
X87033928Y-97366128D02*
X86843452Y-97318509D01*
X86843452Y-97318509D02*
X86748214Y-97270890D01*
X86748214Y-97270890D02*
X86700595Y-97223271D01*
X86700595Y-97223271D02*
X86652976Y-97128033D01*
X86652976Y-97128033D02*
X86652976Y-97032795D01*
X86652976Y-97032795D02*
X86700595Y-96937557D01*
X86700595Y-96937557D02*
X86748214Y-96889938D01*
X86748214Y-96889938D02*
X86843452Y-96842319D01*
X86843452Y-96842319D02*
X87081547Y-96842319D01*
X87081547Y-96842319D02*
X87224404Y-96889938D01*
X87557738Y-96842319D02*
X87795833Y-97842319D01*
X87795833Y-97842319D02*
X87986309Y-97128033D01*
X87986309Y-97128033D02*
X88176785Y-97842319D01*
X88176785Y-97842319D02*
X88414881Y-96842319D01*
X89319642Y-97842319D02*
X88748214Y-97842319D01*
X89033928Y-97842319D02*
X89033928Y-96842319D01*
X89033928Y-96842319D02*
X88938690Y-96985176D01*
X88938690Y-96985176D02*
X88843452Y-97080414D01*
X88843452Y-97080414D02*
X88748214Y-97128033D01*
X90272023Y-97842319D02*
X89700595Y-97842319D01*
X89986309Y-97842319D02*
X89986309Y-96842319D01*
X89986309Y-96842319D02*
X89891071Y-96985176D01*
X89891071Y-96985176D02*
X89795833Y-97080414D01*
X89795833Y-97080414D02*
X89700595Y-97128033D01*
X86652976Y-154944700D02*
X86795833Y-154992319D01*
X86795833Y-154992319D02*
X87033928Y-154992319D01*
X87033928Y-154992319D02*
X87129166Y-154944700D01*
X87129166Y-154944700D02*
X87176785Y-154897080D01*
X87176785Y-154897080D02*
X87224404Y-154801842D01*
X87224404Y-154801842D02*
X87224404Y-154706604D01*
X87224404Y-154706604D02*
X87176785Y-154611366D01*
X87176785Y-154611366D02*
X87129166Y-154563747D01*
X87129166Y-154563747D02*
X87033928Y-154516128D01*
X87033928Y-154516128D02*
X86843452Y-154468509D01*
X86843452Y-154468509D02*
X86748214Y-154420890D01*
X86748214Y-154420890D02*
X86700595Y-154373271D01*
X86700595Y-154373271D02*
X86652976Y-154278033D01*
X86652976Y-154278033D02*
X86652976Y-154182795D01*
X86652976Y-154182795D02*
X86700595Y-154087557D01*
X86700595Y-154087557D02*
X86748214Y-154039938D01*
X86748214Y-154039938D02*
X86843452Y-153992319D01*
X86843452Y-153992319D02*
X87081547Y-153992319D01*
X87081547Y-153992319D02*
X87224404Y-154039938D01*
X87557738Y-153992319D02*
X87795833Y-154992319D01*
X87795833Y-154992319D02*
X87986309Y-154278033D01*
X87986309Y-154278033D02*
X88176785Y-154992319D01*
X88176785Y-154992319D02*
X88414881Y-153992319D01*
X88748214Y-154087557D02*
X88795833Y-154039938D01*
X88795833Y-154039938D02*
X88891071Y-153992319D01*
X88891071Y-153992319D02*
X89129166Y-153992319D01*
X89129166Y-153992319D02*
X89224404Y-154039938D01*
X89224404Y-154039938D02*
X89272023Y-154087557D01*
X89272023Y-154087557D02*
X89319642Y-154182795D01*
X89319642Y-154182795D02*
X89319642Y-154278033D01*
X89319642Y-154278033D02*
X89272023Y-154420890D01*
X89272023Y-154420890D02*
X88700595Y-154992319D01*
X88700595Y-154992319D02*
X89319642Y-154992319D01*
X89938690Y-153992319D02*
X90033928Y-153992319D01*
X90033928Y-153992319D02*
X90129166Y-154039938D01*
X90129166Y-154039938D02*
X90176785Y-154087557D01*
X90176785Y-154087557D02*
X90224404Y-154182795D01*
X90224404Y-154182795D02*
X90272023Y-154373271D01*
X90272023Y-154373271D02*
X90272023Y-154611366D01*
X90272023Y-154611366D02*
X90224404Y-154801842D01*
X90224404Y-154801842D02*
X90176785Y-154897080D01*
X90176785Y-154897080D02*
X90129166Y-154944700D01*
X90129166Y-154944700D02*
X90033928Y-154992319D01*
X90033928Y-154992319D02*
X89938690Y-154992319D01*
X89938690Y-154992319D02*
X89843452Y-154944700D01*
X89843452Y-154944700D02*
X89795833Y-154897080D01*
X89795833Y-154897080D02*
X89748214Y-154801842D01*
X89748214Y-154801842D02*
X89700595Y-154611366D01*
X89700595Y-154611366D02*
X89700595Y-154373271D01*
X89700595Y-154373271D02*
X89748214Y-154182795D01*
X89748214Y-154182795D02*
X89795833Y-154087557D01*
X89795833Y-154087557D02*
X89843452Y-154039938D01*
X89843452Y-154039938D02*
X89938690Y-153992319D01*
X106179167Y-59694700D02*
X106322024Y-59742319D01*
X106322024Y-59742319D02*
X106560119Y-59742319D01*
X106560119Y-59742319D02*
X106655357Y-59694700D01*
X106655357Y-59694700D02*
X106702976Y-59647080D01*
X106702976Y-59647080D02*
X106750595Y-59551842D01*
X106750595Y-59551842D02*
X106750595Y-59456604D01*
X106750595Y-59456604D02*
X106702976Y-59361366D01*
X106702976Y-59361366D02*
X106655357Y-59313747D01*
X106655357Y-59313747D02*
X106560119Y-59266128D01*
X106560119Y-59266128D02*
X106369643Y-59218509D01*
X106369643Y-59218509D02*
X106274405Y-59170890D01*
X106274405Y-59170890D02*
X106226786Y-59123271D01*
X106226786Y-59123271D02*
X106179167Y-59028033D01*
X106179167Y-59028033D02*
X106179167Y-58932795D01*
X106179167Y-58932795D02*
X106226786Y-58837557D01*
X106226786Y-58837557D02*
X106274405Y-58789938D01*
X106274405Y-58789938D02*
X106369643Y-58742319D01*
X106369643Y-58742319D02*
X106607738Y-58742319D01*
X106607738Y-58742319D02*
X106750595Y-58789938D01*
X107083929Y-58742319D02*
X107322024Y-59742319D01*
X107322024Y-59742319D02*
X107512500Y-59028033D01*
X107512500Y-59028033D02*
X107702976Y-59742319D01*
X107702976Y-59742319D02*
X107941072Y-58742319D01*
X108750595Y-59075652D02*
X108750595Y-59742319D01*
X108512500Y-58694700D02*
X108274405Y-59408985D01*
X108274405Y-59408985D02*
X108893452Y-59408985D01*
X105675476Y-145447200D02*
X105818333Y-145494819D01*
X105818333Y-145494819D02*
X106056428Y-145494819D01*
X106056428Y-145494819D02*
X106151666Y-145447200D01*
X106151666Y-145447200D02*
X106199285Y-145399580D01*
X106199285Y-145399580D02*
X106246904Y-145304342D01*
X106246904Y-145304342D02*
X106246904Y-145209104D01*
X106246904Y-145209104D02*
X106199285Y-145113866D01*
X106199285Y-145113866D02*
X106151666Y-145066247D01*
X106151666Y-145066247D02*
X106056428Y-145018628D01*
X106056428Y-145018628D02*
X105865952Y-144971009D01*
X105865952Y-144971009D02*
X105770714Y-144923390D01*
X105770714Y-144923390D02*
X105723095Y-144875771D01*
X105723095Y-144875771D02*
X105675476Y-144780533D01*
X105675476Y-144780533D02*
X105675476Y-144685295D01*
X105675476Y-144685295D02*
X105723095Y-144590057D01*
X105723095Y-144590057D02*
X105770714Y-144542438D01*
X105770714Y-144542438D02*
X105865952Y-144494819D01*
X105865952Y-144494819D02*
X106104047Y-144494819D01*
X106104047Y-144494819D02*
X106246904Y-144542438D01*
X106580238Y-144494819D02*
X106818333Y-145494819D01*
X106818333Y-145494819D02*
X107008809Y-144780533D01*
X107008809Y-144780533D02*
X107199285Y-145494819D01*
X107199285Y-145494819D02*
X107437381Y-144494819D01*
X107770714Y-144590057D02*
X107818333Y-144542438D01*
X107818333Y-144542438D02*
X107913571Y-144494819D01*
X107913571Y-144494819D02*
X108151666Y-144494819D01*
X108151666Y-144494819D02*
X108246904Y-144542438D01*
X108246904Y-144542438D02*
X108294523Y-144590057D01*
X108294523Y-144590057D02*
X108342142Y-144685295D01*
X108342142Y-144685295D02*
X108342142Y-144780533D01*
X108342142Y-144780533D02*
X108294523Y-144923390D01*
X108294523Y-144923390D02*
X107723095Y-145494819D01*
X107723095Y-145494819D02*
X108342142Y-145494819D01*
X109294523Y-145494819D02*
X108723095Y-145494819D01*
X109008809Y-145494819D02*
X109008809Y-144494819D01*
X109008809Y-144494819D02*
X108913571Y-144637676D01*
X108913571Y-144637676D02*
X108818333Y-144732914D01*
X108818333Y-144732914D02*
X108723095Y-144780533D01*
X49029167Y-78744700D02*
X49172024Y-78792319D01*
X49172024Y-78792319D02*
X49410119Y-78792319D01*
X49410119Y-78792319D02*
X49505357Y-78744700D01*
X49505357Y-78744700D02*
X49552976Y-78697080D01*
X49552976Y-78697080D02*
X49600595Y-78601842D01*
X49600595Y-78601842D02*
X49600595Y-78506604D01*
X49600595Y-78506604D02*
X49552976Y-78411366D01*
X49552976Y-78411366D02*
X49505357Y-78363747D01*
X49505357Y-78363747D02*
X49410119Y-78316128D01*
X49410119Y-78316128D02*
X49219643Y-78268509D01*
X49219643Y-78268509D02*
X49124405Y-78220890D01*
X49124405Y-78220890D02*
X49076786Y-78173271D01*
X49076786Y-78173271D02*
X49029167Y-78078033D01*
X49029167Y-78078033D02*
X49029167Y-77982795D01*
X49029167Y-77982795D02*
X49076786Y-77887557D01*
X49076786Y-77887557D02*
X49124405Y-77839938D01*
X49124405Y-77839938D02*
X49219643Y-77792319D01*
X49219643Y-77792319D02*
X49457738Y-77792319D01*
X49457738Y-77792319D02*
X49600595Y-77839938D01*
X49933929Y-77792319D02*
X50172024Y-78792319D01*
X50172024Y-78792319D02*
X50362500Y-78078033D01*
X50362500Y-78078033D02*
X50552976Y-78792319D01*
X50552976Y-78792319D02*
X50791072Y-77792319D01*
X51648214Y-77792319D02*
X51172024Y-77792319D01*
X51172024Y-77792319D02*
X51124405Y-78268509D01*
X51124405Y-78268509D02*
X51172024Y-78220890D01*
X51172024Y-78220890D02*
X51267262Y-78173271D01*
X51267262Y-78173271D02*
X51505357Y-78173271D01*
X51505357Y-78173271D02*
X51600595Y-78220890D01*
X51600595Y-78220890D02*
X51648214Y-78268509D01*
X51648214Y-78268509D02*
X51695833Y-78363747D01*
X51695833Y-78363747D02*
X51695833Y-78601842D01*
X51695833Y-78601842D02*
X51648214Y-78697080D01*
X51648214Y-78697080D02*
X51600595Y-78744700D01*
X51600595Y-78744700D02*
X51505357Y-78792319D01*
X51505357Y-78792319D02*
X51267262Y-78792319D01*
X51267262Y-78792319D02*
X51172024Y-78744700D01*
X51172024Y-78744700D02*
X51124405Y-78697080D01*
X49029167Y-97794700D02*
X49172024Y-97842319D01*
X49172024Y-97842319D02*
X49410119Y-97842319D01*
X49410119Y-97842319D02*
X49505357Y-97794700D01*
X49505357Y-97794700D02*
X49552976Y-97747080D01*
X49552976Y-97747080D02*
X49600595Y-97651842D01*
X49600595Y-97651842D02*
X49600595Y-97556604D01*
X49600595Y-97556604D02*
X49552976Y-97461366D01*
X49552976Y-97461366D02*
X49505357Y-97413747D01*
X49505357Y-97413747D02*
X49410119Y-97366128D01*
X49410119Y-97366128D02*
X49219643Y-97318509D01*
X49219643Y-97318509D02*
X49124405Y-97270890D01*
X49124405Y-97270890D02*
X49076786Y-97223271D01*
X49076786Y-97223271D02*
X49029167Y-97128033D01*
X49029167Y-97128033D02*
X49029167Y-97032795D01*
X49029167Y-97032795D02*
X49076786Y-96937557D01*
X49076786Y-96937557D02*
X49124405Y-96889938D01*
X49124405Y-96889938D02*
X49219643Y-96842319D01*
X49219643Y-96842319D02*
X49457738Y-96842319D01*
X49457738Y-96842319D02*
X49600595Y-96889938D01*
X49933929Y-96842319D02*
X50172024Y-97842319D01*
X50172024Y-97842319D02*
X50362500Y-97128033D01*
X50362500Y-97128033D02*
X50552976Y-97842319D01*
X50552976Y-97842319D02*
X50791072Y-96842319D01*
X51219643Y-97842319D02*
X51410119Y-97842319D01*
X51410119Y-97842319D02*
X51505357Y-97794700D01*
X51505357Y-97794700D02*
X51552976Y-97747080D01*
X51552976Y-97747080D02*
X51648214Y-97604223D01*
X51648214Y-97604223D02*
X51695833Y-97413747D01*
X51695833Y-97413747D02*
X51695833Y-97032795D01*
X51695833Y-97032795D02*
X51648214Y-96937557D01*
X51648214Y-96937557D02*
X51600595Y-96889938D01*
X51600595Y-96889938D02*
X51505357Y-96842319D01*
X51505357Y-96842319D02*
X51314881Y-96842319D01*
X51314881Y-96842319D02*
X51219643Y-96889938D01*
X51219643Y-96889938D02*
X51172024Y-96937557D01*
X51172024Y-96937557D02*
X51124405Y-97032795D01*
X51124405Y-97032795D02*
X51124405Y-97270890D01*
X51124405Y-97270890D02*
X51172024Y-97366128D01*
X51172024Y-97366128D02*
X51219643Y-97413747D01*
X51219643Y-97413747D02*
X51314881Y-97461366D01*
X51314881Y-97461366D02*
X51505357Y-97461366D01*
X51505357Y-97461366D02*
X51600595Y-97413747D01*
X51600595Y-97413747D02*
X51648214Y-97366128D01*
X51648214Y-97366128D02*
X51695833Y-97270890D01*
X49029167Y-59694700D02*
X49172024Y-59742319D01*
X49172024Y-59742319D02*
X49410119Y-59742319D01*
X49410119Y-59742319D02*
X49505357Y-59694700D01*
X49505357Y-59694700D02*
X49552976Y-59647080D01*
X49552976Y-59647080D02*
X49600595Y-59551842D01*
X49600595Y-59551842D02*
X49600595Y-59456604D01*
X49600595Y-59456604D02*
X49552976Y-59361366D01*
X49552976Y-59361366D02*
X49505357Y-59313747D01*
X49505357Y-59313747D02*
X49410119Y-59266128D01*
X49410119Y-59266128D02*
X49219643Y-59218509D01*
X49219643Y-59218509D02*
X49124405Y-59170890D01*
X49124405Y-59170890D02*
X49076786Y-59123271D01*
X49076786Y-59123271D02*
X49029167Y-59028033D01*
X49029167Y-59028033D02*
X49029167Y-58932795D01*
X49029167Y-58932795D02*
X49076786Y-58837557D01*
X49076786Y-58837557D02*
X49124405Y-58789938D01*
X49124405Y-58789938D02*
X49219643Y-58742319D01*
X49219643Y-58742319D02*
X49457738Y-58742319D01*
X49457738Y-58742319D02*
X49600595Y-58789938D01*
X49933929Y-58742319D02*
X50172024Y-59742319D01*
X50172024Y-59742319D02*
X50362500Y-59028033D01*
X50362500Y-59028033D02*
X50552976Y-59742319D01*
X50552976Y-59742319D02*
X50791072Y-58742319D01*
X51695833Y-59742319D02*
X51124405Y-59742319D01*
X51410119Y-59742319D02*
X51410119Y-58742319D01*
X51410119Y-58742319D02*
X51314881Y-58885176D01*
X51314881Y-58885176D02*
X51219643Y-58980414D01*
X51219643Y-58980414D02*
X51124405Y-59028033D01*
X87129167Y-59694700D02*
X87272024Y-59742319D01*
X87272024Y-59742319D02*
X87510119Y-59742319D01*
X87510119Y-59742319D02*
X87605357Y-59694700D01*
X87605357Y-59694700D02*
X87652976Y-59647080D01*
X87652976Y-59647080D02*
X87700595Y-59551842D01*
X87700595Y-59551842D02*
X87700595Y-59456604D01*
X87700595Y-59456604D02*
X87652976Y-59361366D01*
X87652976Y-59361366D02*
X87605357Y-59313747D01*
X87605357Y-59313747D02*
X87510119Y-59266128D01*
X87510119Y-59266128D02*
X87319643Y-59218509D01*
X87319643Y-59218509D02*
X87224405Y-59170890D01*
X87224405Y-59170890D02*
X87176786Y-59123271D01*
X87176786Y-59123271D02*
X87129167Y-59028033D01*
X87129167Y-59028033D02*
X87129167Y-58932795D01*
X87129167Y-58932795D02*
X87176786Y-58837557D01*
X87176786Y-58837557D02*
X87224405Y-58789938D01*
X87224405Y-58789938D02*
X87319643Y-58742319D01*
X87319643Y-58742319D02*
X87557738Y-58742319D01*
X87557738Y-58742319D02*
X87700595Y-58789938D01*
X88033929Y-58742319D02*
X88272024Y-59742319D01*
X88272024Y-59742319D02*
X88462500Y-59028033D01*
X88462500Y-59028033D02*
X88652976Y-59742319D01*
X88652976Y-59742319D02*
X88891072Y-58742319D01*
X89176786Y-58742319D02*
X89795833Y-58742319D01*
X89795833Y-58742319D02*
X89462500Y-59123271D01*
X89462500Y-59123271D02*
X89605357Y-59123271D01*
X89605357Y-59123271D02*
X89700595Y-59170890D01*
X89700595Y-59170890D02*
X89748214Y-59218509D01*
X89748214Y-59218509D02*
X89795833Y-59313747D01*
X89795833Y-59313747D02*
X89795833Y-59551842D01*
X89795833Y-59551842D02*
X89748214Y-59647080D01*
X89748214Y-59647080D02*
X89700595Y-59694700D01*
X89700595Y-59694700D02*
X89605357Y-59742319D01*
X89605357Y-59742319D02*
X89319643Y-59742319D01*
X89319643Y-59742319D02*
X89224405Y-59694700D01*
X89224405Y-59694700D02*
X89176786Y-59647080D01*
%TO.C,G\u002A\u002A\u002A*%
G36*
X50463654Y-166824654D02*
G01*
X50463654Y-167449884D01*
X50307346Y-167449884D01*
X50151038Y-167449884D01*
X50151038Y-167606192D01*
X50151038Y-167762500D01*
X49994730Y-167762500D01*
X49838423Y-167762500D01*
X49838423Y-167918807D01*
X49838423Y-168075115D01*
X49682115Y-168075115D01*
X49525807Y-168075115D01*
X49525807Y-168387730D01*
X49525807Y-168700346D01*
X49369500Y-168700346D01*
X49213192Y-168700346D01*
X49213192Y-168856654D01*
X49213192Y-169012961D01*
X49056884Y-169012961D01*
X48900577Y-169012961D01*
X48900577Y-169169269D01*
X48900577Y-169325577D01*
X47962730Y-169325577D01*
X47024884Y-169325577D01*
X47024884Y-169169269D01*
X47024884Y-169012961D01*
X46399654Y-169012961D01*
X45774423Y-169012961D01*
X45774423Y-169169269D01*
X45774423Y-169325577D01*
X45305500Y-169325577D01*
X44836577Y-169325577D01*
X44836577Y-169169269D01*
X44836577Y-169012961D01*
X44211346Y-169012961D01*
X43586115Y-169012961D01*
X43586115Y-169169269D01*
X43586115Y-169325577D01*
X43117192Y-169325577D01*
X42648269Y-169325577D01*
X42648269Y-169012961D01*
X42648269Y-168700346D01*
X42804577Y-168700346D01*
X42960884Y-168700346D01*
X42960884Y-168544038D01*
X42960884Y-168387730D01*
X43117192Y-168387730D01*
X43273500Y-168387730D01*
X43273500Y-168075115D01*
X43273500Y-167762500D01*
X43429807Y-167762500D01*
X43586115Y-167762500D01*
X43586115Y-168075115D01*
X43586115Y-168387730D01*
X43429807Y-168387730D01*
X43273500Y-168387730D01*
X43273500Y-168544038D01*
X43273500Y-168700346D01*
X43117192Y-168700346D01*
X42960884Y-168700346D01*
X42960884Y-168856654D01*
X42960884Y-169012961D01*
X43273500Y-169012961D01*
X43586115Y-169012961D01*
X43586115Y-168856654D01*
X43586115Y-168700346D01*
X44367654Y-168700346D01*
X45149192Y-168700346D01*
X45149192Y-168856654D01*
X45149192Y-169012961D01*
X45461807Y-169012961D01*
X45774423Y-169012961D01*
X45774423Y-168856654D01*
X45774423Y-168700346D01*
X46555961Y-168700346D01*
X47337500Y-168700346D01*
X47337500Y-168856654D01*
X47337500Y-169012961D01*
X48119038Y-169012961D01*
X48900577Y-169012961D01*
X48900577Y-168856654D01*
X48900577Y-168700346D01*
X49056884Y-168700346D01*
X49213192Y-168700346D01*
X49213192Y-168231423D01*
X49213192Y-167762500D01*
X49525807Y-167762500D01*
X49838423Y-167762500D01*
X49838423Y-167606192D01*
X49838423Y-167449884D01*
X49994730Y-167449884D01*
X50151038Y-167449884D01*
X50151038Y-166824654D01*
X50151038Y-166199423D01*
X50307346Y-166199423D01*
X50463654Y-166199423D01*
X50463654Y-166824654D01*
G37*
G36*
X43898730Y-165417884D02*
G01*
X43898730Y-165574192D01*
X43742423Y-165574192D01*
X43586115Y-165574192D01*
X43586115Y-166043115D01*
X43586115Y-166512038D01*
X43429807Y-166512038D01*
X43273500Y-166512038D01*
X43273500Y-167137269D01*
X43273500Y-167762500D01*
X43117192Y-167762500D01*
X42960884Y-167762500D01*
X42960884Y-167137269D01*
X42960884Y-166512038D01*
X43117192Y-166512038D01*
X43273500Y-166512038D01*
X43273500Y-166043115D01*
X43273500Y-165574192D01*
X43429807Y-165574192D01*
X43586115Y-165574192D01*
X43586115Y-165417884D01*
X43586115Y-165261577D01*
X43742423Y-165261577D01*
X43898730Y-165261577D01*
X43898730Y-165417884D01*
G37*
G36*
X46399654Y-166668346D02*
G01*
X46399654Y-166824654D01*
X46555961Y-166824654D01*
X46712269Y-166824654D01*
X46712269Y-166668346D01*
X46712269Y-166512038D01*
X47493807Y-166512038D01*
X48275346Y-166512038D01*
X48275346Y-166668346D01*
X48275346Y-166824654D01*
X47493807Y-166824654D01*
X46712269Y-166824654D01*
X46712269Y-166980961D01*
X46712269Y-167137269D01*
X46555961Y-167137269D01*
X46399654Y-167137269D01*
X46399654Y-167449884D01*
X46399654Y-167762500D01*
X46243346Y-167762500D01*
X46087038Y-167762500D01*
X46087038Y-167137269D01*
X46087038Y-166512038D01*
X46243346Y-166512038D01*
X46399654Y-166512038D01*
X46399654Y-166668346D01*
G37*
G36*
X49838423Y-166824654D02*
G01*
X49838423Y-167137269D01*
X49682115Y-167137269D01*
X49525807Y-167137269D01*
X49525807Y-167293577D01*
X49525807Y-167449884D01*
X49213192Y-167449884D01*
X48900577Y-167449884D01*
X48900577Y-167293577D01*
X48900577Y-167137269D01*
X48587961Y-167137269D01*
X48275346Y-167137269D01*
X48275346Y-166980961D01*
X48275346Y-166824654D01*
X48587961Y-166824654D01*
X48900577Y-166824654D01*
X48900577Y-166980961D01*
X48900577Y-167137269D01*
X49213192Y-167137269D01*
X49525807Y-167137269D01*
X49525807Y-166824654D01*
X49525807Y-166512038D01*
X49682115Y-166512038D01*
X49838423Y-166512038D01*
X49838423Y-166824654D01*
G37*
G36*
X46087038Y-166043115D02*
G01*
X46087038Y-166512038D01*
X45930730Y-166512038D01*
X45774423Y-166512038D01*
X45774423Y-166043115D01*
X45774423Y-165574192D01*
X45930730Y-165574192D01*
X46087038Y-165574192D01*
X46087038Y-166043115D01*
G37*
G36*
X49525807Y-166355730D02*
G01*
X49525807Y-166512038D01*
X49369500Y-166512038D01*
X49213192Y-166512038D01*
X49213192Y-166355730D01*
X49213192Y-166199423D01*
X49369500Y-166199423D01*
X49525807Y-166199423D01*
X49525807Y-166355730D01*
G37*
G36*
X45774423Y-165417884D02*
G01*
X45774423Y-165574192D01*
X45618115Y-165574192D01*
X45461807Y-165574192D01*
X45461807Y-165730500D01*
X45461807Y-165886807D01*
X45305500Y-165886807D01*
X45149192Y-165886807D01*
X45149192Y-166043115D01*
X45149192Y-166199423D01*
X44680269Y-166199423D01*
X44211346Y-166199423D01*
X44211346Y-166043115D01*
X44211346Y-165886807D01*
X44055038Y-165886807D01*
X43898730Y-165886807D01*
X43898730Y-165730500D01*
X43898730Y-165574192D01*
X44055038Y-165574192D01*
X44211346Y-165574192D01*
X44211346Y-165730500D01*
X44211346Y-165886807D01*
X44680269Y-165886807D01*
X45149192Y-165886807D01*
X45149192Y-165730500D01*
X45149192Y-165574192D01*
X45305500Y-165574192D01*
X45461807Y-165574192D01*
X45461807Y-165417884D01*
X45461807Y-165261577D01*
X45618115Y-165261577D01*
X45774423Y-165261577D01*
X45774423Y-165417884D01*
G37*
G36*
X49213192Y-166043115D02*
G01*
X49213192Y-166199423D01*
X48900577Y-166199423D01*
X48587961Y-166199423D01*
X48587961Y-166043115D01*
X48587961Y-165886807D01*
X48900577Y-165886807D01*
X49213192Y-165886807D01*
X49213192Y-166043115D01*
G37*
G36*
X50151038Y-166043115D02*
G01*
X50151038Y-166199423D01*
X49994730Y-166199423D01*
X49838423Y-166199423D01*
X49838423Y-166043115D01*
X49838423Y-165886807D01*
X49994730Y-165886807D01*
X50151038Y-165886807D01*
X50151038Y-166043115D01*
G37*
G36*
X49525807Y-165417884D02*
G01*
X49525807Y-165574192D01*
X49056884Y-165574192D01*
X48587961Y-165574192D01*
X48587961Y-165730500D01*
X48587961Y-165886807D01*
X48431654Y-165886807D01*
X48275346Y-165886807D01*
X48275346Y-165730500D01*
X48275346Y-165574192D01*
X48431654Y-165574192D01*
X48587961Y-165574192D01*
X48587961Y-165417884D01*
X48587961Y-165261577D01*
X49056884Y-165261577D01*
X49525807Y-165261577D01*
X49525807Y-165417884D01*
G37*
G36*
X49838423Y-165730500D02*
G01*
X49838423Y-165886807D01*
X49682115Y-165886807D01*
X49525807Y-165886807D01*
X49525807Y-165730500D01*
X49525807Y-165574192D01*
X49682115Y-165574192D01*
X49838423Y-165574192D01*
X49838423Y-165730500D01*
G37*
G36*
X45461807Y-168544038D02*
G01*
X45461807Y-168700346D01*
X45305500Y-168700346D01*
X45149192Y-168700346D01*
X45149192Y-168544038D01*
X45149192Y-168387730D01*
X45305500Y-168387730D01*
X45461807Y-168387730D01*
X45461807Y-168544038D01*
G37*
G36*
X47962730Y-168231423D02*
G01*
X47962730Y-168387730D01*
X47806423Y-168387730D01*
X47650115Y-168387730D01*
X47650115Y-168544038D01*
X47650115Y-168700346D01*
X47493807Y-168700346D01*
X47337500Y-168700346D01*
X47337500Y-168544038D01*
X47337500Y-168387730D01*
X47493807Y-168387730D01*
X47650115Y-168387730D01*
X47650115Y-168231423D01*
X47650115Y-168075115D01*
X47806423Y-168075115D01*
X47962730Y-168075115D01*
X47962730Y-168231423D01*
G37*
G36*
X46087038Y-167918807D02*
G01*
X46087038Y-168075115D01*
X45930730Y-168075115D01*
X45774423Y-168075115D01*
X45774423Y-167918807D01*
X45774423Y-167762500D01*
X45930730Y-167762500D01*
X46087038Y-167762500D01*
X46087038Y-167918807D01*
G37*
G36*
X44836577Y-167293577D02*
G01*
X44836577Y-167449884D01*
X44680269Y-167449884D01*
X44523961Y-167449884D01*
X44523961Y-167606192D01*
X44523961Y-167762500D01*
X44367654Y-167762500D01*
X44211346Y-167762500D01*
X44211346Y-167606192D01*
X44211346Y-167449884D01*
X44367654Y-167449884D01*
X44523961Y-167449884D01*
X44523961Y-167293577D01*
X44523961Y-167137269D01*
X44680269Y-167137269D01*
X44836577Y-167137269D01*
X44836577Y-167293577D01*
G37*
G36*
X45149192Y-167606192D02*
G01*
X45149192Y-167762500D01*
X44992884Y-167762500D01*
X44836577Y-167762500D01*
X44836577Y-167606192D01*
X44836577Y-167449884D01*
X44992884Y-167449884D01*
X45149192Y-167449884D01*
X45149192Y-167606192D01*
G37*
G36*
X44211346Y-166980961D02*
G01*
X44211346Y-167137269D01*
X44055038Y-167137269D01*
X43898730Y-167137269D01*
X43898730Y-166980961D01*
X43898730Y-166824654D01*
X44055038Y-166824654D01*
X44211346Y-166824654D01*
X44211346Y-166980961D01*
G37*
G36*
X45461807Y-166980961D02*
G01*
X45461807Y-167137269D01*
X45305500Y-167137269D01*
X45149192Y-167137269D01*
X45149192Y-166980961D01*
X45149192Y-166824654D01*
X45305500Y-166824654D01*
X45461807Y-166824654D01*
X45461807Y-166980961D01*
G37*
D12*
%TO.C,SW18*%
X81362500Y-136387500D02*
X81362500Y-150587500D01*
X81362500Y-150587500D02*
X95562500Y-150587500D01*
X95562500Y-136387500D02*
X81362500Y-136387500D01*
X95562500Y-150587500D02*
X95562500Y-136387500D01*
%TO.C,SW15*%
X100417153Y-107801620D02*
X100417153Y-122001620D01*
X100417153Y-122001620D02*
X114617153Y-122001620D01*
X114617153Y-107801620D02*
X100417153Y-107801620D01*
X114617153Y-122001620D02*
X114617153Y-107801620D01*
%TO.C,SW6*%
X62312500Y-79237500D02*
X62312500Y-93437500D01*
X62312500Y-93437500D02*
X76512500Y-93437500D01*
X76512500Y-79237500D02*
X62312500Y-79237500D01*
X76512500Y-93437500D02*
X76512500Y-79237500D01*
%TO.C,SW13*%
X62312500Y-117340000D02*
X62312500Y-131540000D01*
X62312500Y-131540000D02*
X76512500Y-131540000D01*
X76512500Y-117340000D02*
X62312500Y-117340000D01*
X76512500Y-131540000D02*
X76512500Y-117340000D01*
%TO.C,SW8*%
X100412500Y-79237500D02*
X100412500Y-93437500D01*
X100412500Y-93437500D02*
X114612500Y-93437500D01*
X114612500Y-79237500D02*
X100412500Y-79237500D01*
X114612500Y-93437500D02*
X114612500Y-79237500D01*
%TO.C,SW16*%
X43262500Y-136387500D02*
X43262500Y-150587500D01*
X43262500Y-150587500D02*
X57462500Y-150587500D01*
X57462500Y-136387500D02*
X43262500Y-136387500D01*
X57462500Y-150587500D02*
X57462500Y-136387500D01*
%TO.C,SW12*%
X43262500Y-117340000D02*
X43262500Y-131540000D01*
X43262500Y-131540000D02*
X57462500Y-131540000D01*
X57462500Y-117340000D02*
X43262500Y-117340000D01*
X57462500Y-131540000D02*
X57462500Y-117340000D01*
%TO.C,SW14*%
X81400000Y-117340000D02*
X81400000Y-131540000D01*
X81400000Y-131540000D02*
X95600000Y-131540000D01*
X95600000Y-117340000D02*
X81400000Y-117340000D01*
X95600000Y-131540000D02*
X95600000Y-117340000D01*
%TO.C,SW19*%
X52787500Y-155437500D02*
X52787500Y-169637500D01*
X52787500Y-169637500D02*
X66987500Y-169637500D01*
X66987500Y-155437500D02*
X52787500Y-155437500D01*
X66987500Y-169637500D02*
X66987500Y-155437500D01*
%TO.C,SW17*%
X62312500Y-136387500D02*
X62312500Y-150587500D01*
X62312500Y-150587500D02*
X76512500Y-150587500D01*
X76512500Y-136387500D02*
X62312500Y-136387500D01*
X76512500Y-150587500D02*
X76512500Y-136387500D01*
%TO.C,SW10*%
X62312500Y-98287500D02*
X62312500Y-112487500D01*
X62312500Y-112487500D02*
X76512500Y-112487500D01*
X76512500Y-98287500D02*
X62312500Y-98287500D01*
X76512500Y-112487500D02*
X76512500Y-98287500D01*
%TO.C,SW2*%
X62312500Y-60187500D02*
X62312500Y-74387500D01*
X62312500Y-74387500D02*
X76512500Y-74387500D01*
X76512500Y-60187500D02*
X62312500Y-60187500D01*
X76512500Y-74387500D02*
X76512500Y-60187500D01*
%TO.C,SW7*%
X81362500Y-79237500D02*
X81362500Y-93437500D01*
X81362500Y-93437500D02*
X95562500Y-93437500D01*
X95562500Y-79237500D02*
X81362500Y-79237500D01*
X95562500Y-93437500D02*
X95562500Y-79237500D01*
%TO.C,SW11*%
X81362500Y-98287500D02*
X81362500Y-112487500D01*
X81362500Y-112487500D02*
X95562500Y-112487500D01*
X95562500Y-98287500D02*
X81362500Y-98287500D01*
X95562500Y-112487500D02*
X95562500Y-98287500D01*
%TO.C,SW20*%
X81362500Y-155437500D02*
X81362500Y-169637500D01*
X81362500Y-169637500D02*
X95562500Y-169637500D01*
X95562500Y-155437500D02*
X81362500Y-155437500D01*
X95562500Y-169637500D02*
X95562500Y-155437500D01*
%TO.C,SW4*%
X100412500Y-60187500D02*
X100412500Y-74387500D01*
X100412500Y-74387500D02*
X114612500Y-74387500D01*
X114612500Y-60187500D02*
X100412500Y-60187500D01*
X114612500Y-74387500D02*
X114612500Y-60187500D01*
%TO.C,SW21*%
X100385000Y-145940000D02*
X100385000Y-160140000D01*
X100385000Y-160140000D02*
X114585000Y-160140000D01*
X114585000Y-145940000D02*
X100385000Y-145940000D01*
X114585000Y-160140000D02*
X114585000Y-145940000D01*
%TO.C,SW5*%
X43262500Y-79237500D02*
X43262500Y-93437500D01*
X43262500Y-93437500D02*
X57462500Y-93437500D01*
X57462500Y-79237500D02*
X43262500Y-79237500D01*
X57462500Y-93437500D02*
X57462500Y-79237500D01*
%TO.C,SW9*%
X43262500Y-98287500D02*
X43262500Y-112487500D01*
X43262500Y-112487500D02*
X57462500Y-112487500D01*
X57462500Y-98287500D02*
X43262500Y-98287500D01*
X57462500Y-112487500D02*
X57462500Y-98287500D01*
%TO.C,SW1*%
X43262500Y-60187500D02*
X43262500Y-74387500D01*
X43262500Y-74387500D02*
X57462500Y-74387500D01*
X57462500Y-60187500D02*
X43262500Y-60187500D01*
X57462500Y-74387500D02*
X57462500Y-60187500D01*
%TO.C,SW3*%
X81362500Y-60187500D02*
X81362500Y-74387500D01*
X81362500Y-74387500D02*
X95562500Y-74387500D01*
X95562500Y-60187500D02*
X81362500Y-60187500D01*
X95562500Y-74387500D02*
X95562500Y-60187500D01*
%TD*%
M02*
