M48
; DRILL file {KiCad 7.0.11} date Friday, January 24, 2025 at 11:41:34 AM
; FORMAT={-:-/ absolute / inch / decimal}
; #@! TF.CreationDate,2025-01-24T11:41:34+01:00
; #@! TF.GenerationSoftware,Kicad,Pcbnew,7.0.11
; #@! TF.FileFunction,NonPlated,1,2,NPTH
FMAT,2
INCH
; #@! TA.AperFunction,NonPlated,NPTH,ComponentDrill
T1C0.0689
; #@! TA.AperFunction,NonPlated,NPTH,ComponentDrill
T2C0.1201
; #@! TA.AperFunction,NonPlated,NPTH,ComponentDrill
T3C0.1575
%
G90
G05
T1
X1.7828Y-2.6491
X1.7828Y-3.3991
X1.7828Y-4.1491
X1.7828Y-4.8992
X1.7828Y-5.6491
X2.1578Y-6.3991
X2.1828Y-2.6491
X2.1828Y-3.3991
X2.1828Y-4.1491
X2.1828Y-4.8992
X2.1828Y-5.6491
X2.5328Y-2.6491
X2.5328Y-3.3991
X2.5328Y-4.1491
X2.5328Y-4.8992
X2.5328Y-5.6491
X2.5578Y-6.3991
X2.9328Y-2.6491
X2.9328Y-3.3991
X2.9328Y-4.1491
X2.9328Y-4.8992
X2.9328Y-5.6491
X3.2828Y-2.6491
X3.2828Y-3.3991
X3.2828Y-4.1491
X3.2828Y-5.6491
X3.2828Y-6.3991
X3.2843Y-4.8992
X3.6828Y-2.6491
X3.6828Y-3.3991
X3.6828Y-4.1491
X3.6828Y-5.6491
X3.6828Y-6.3991
X3.6843Y-4.8992
X4.0317Y-6.0252
X4.0328Y-2.6491
X4.0328Y-3.3991
X4.033Y-4.5237
X4.4317Y-6.0252
X4.4328Y-2.6491
X4.4328Y-3.3991
X4.433Y-4.5237
T2
X1.8328Y-2.5491
X1.8328Y-3.2991
X1.8328Y-4.0491
X1.8328Y-4.7992
X1.8328Y-5.5491
X2.0828Y-2.4491
X2.0828Y-3.1991
X2.0828Y-3.9491
X2.0828Y-4.6992
X2.0828Y-5.4491
X2.2078Y-6.2991
X2.4578Y-6.1991
X2.5828Y-2.5491
X2.5828Y-3.2991
X2.5828Y-4.0491
X2.5828Y-4.7992
X2.5828Y-5.5491
X2.8328Y-2.4491
X2.8328Y-3.1991
X2.8328Y-3.9491
X2.8328Y-4.6992
X2.8328Y-5.4491
X3.3328Y-2.5491
X3.3328Y-3.2991
X3.3328Y-4.0491
X3.3328Y-5.5491
X3.3328Y-6.2991
X3.3343Y-4.7992
X3.5828Y-2.4491
X3.5828Y-3.1991
X3.5828Y-3.9491
X3.5828Y-5.4491
X3.5828Y-6.1991
X3.5843Y-4.6992
X4.0817Y-5.9252
X4.0828Y-2.5491
X4.0828Y-3.2991
X4.083Y-4.4237
X4.3317Y-5.8252
X4.3328Y-2.4491
X4.3328Y-3.1991
X4.333Y-4.3237
T3
X1.9828Y-2.6491
X1.9828Y-3.3991
X1.9828Y-4.1491
X1.9828Y-4.8992
X1.9828Y-5.6491
X2.3578Y-6.3991
X2.7328Y-2.6491
X2.7328Y-3.3991
X2.7328Y-4.1491
X2.7328Y-4.8992
X2.7328Y-5.6491
X3.4828Y-2.6491
X3.4828Y-3.3991
X3.4828Y-4.1491
X3.4828Y-5.6491
X3.4828Y-6.3991
X3.4843Y-4.8992
X4.2317Y-6.0252
X4.2328Y-2.6491
X4.2328Y-3.3991
X4.233Y-4.5237
M30
